<?xml version="1.0" encoding="UTF-8" standalone="no"?>
<!-- Created with Inkscape (http://www.inkscape.org/) -->

<svg
   xmlns:dc="http://purl.org/dc/elements/1.1/"
   xmlns:cc="http://creativecommons.org/ns#"
   xmlns:rdf="http://www.w3.org/1999/02/22-rdf-syntax-ns#"
   xmlns:svg="http://www.w3.org/2000/svg"
   xmlns="http://www.w3.org/2000/svg"
   xmlns:sodipodi="http://sodipodi.sourceforge.net/DTD/sodipodi-0.dtd"
   xmlns:inkscape="http://www.inkscape.org/namespaces/inkscape"
   width="775.91296"
   height="195.96231"
   id="svg5827"
   version="1.1"
   inkscape:version="0.48.4 r9939"
   sodipodi:docname="Cantor_1D.svg">
  <sodipodi:namedview
     id="base"
     pagecolor="#ffffff"
     bordercolor="#666666"
     borderopacity="1.0"
     inkscape:pageopacity="0.0"
     inkscape:pageshadow="2"
     inkscape:zoom="0.64"
     inkscape:cx="350.37041"
     inkscape:cy="-107.74873"
     inkscape:document-units="px"
     inkscape:current-layer="layer1"
     showgrid="false"
     inkscape:window-width="1615"
     inkscape:window-height="1026"
     inkscape:window-x="65"
     inkscape:window-y="24"
     inkscape:window-maximized="1"
     fit-margin-top="0"
     fit-margin-left="0"
     fit-margin-right="0"
     fit-margin-bottom="0"
     showguides="true"
     inkscape:guide-bbox="true"
     inkscape:snap-bbox="true">
    <sodipodi:guide
       orientation="1,0"
       position="25.78125,157.03125"
       id="guide3320" />
  </sodipodi:namedview>
  <defs
     id="defs5829" />
  <metadata
     id="metadata5832">
    <rdf:RDF>
      <cc:Work
         rdf:about="">
        <dc:format>image/svg+xml</dc:format>
        <dc:type
           rdf:resource="http://purl.org/dc/dcmitype/StillImage" />
        <dc:title></dc:title>
      </cc:Work>
    </rdf:RDF>
  </metadata>
  <g
     transform="translate(19.38505,-5.8095703)"
     id="layer1"
     inkscape:groupmode="layer"
     inkscape:label="Calque 1">
    <path
       id="path5780"
       style="fill:none;stroke:#000000;stroke-width:3;stroke-linecap:butt;stroke-linejoin:round;stroke-opacity:1"
       d="m 6.2605957,44.99052 2.9771,0 m 2.9772003,0 2.9771,0 m 8.9315,0 2.9771,0 m 2.9772,0 2.9772,0 m 26.7944,0 2.9771,0 m 2.9772,0 2.9771,0 m 8.9315,0 2.9771,0 m 2.9772,0 2.9771,0 m 80.383204,0 2.9772,0 m 2.9771,0 2.9772,0 m 8.9315,0 2.9771,0 m 2.9772,0 2.9771,0 m 26.7944,0 2.9772,0 m 2.9771,0 2.9772,0 m 8.9314,0 2.9772,0 m 2.9772,0 2.9771,0 m 241.1495,0 2.9772,0 m 2.9771,0 2.9772,0 m 8.9314,0 2.9772,0 m 2.9772,0 2.9771,0 m 26.79444,0 2.9772,0 m 2.9771,0 2.9772,0 m 8.9314,0 2.9772,0 m 2.9771,0 2.9772,0 m 80.3832,0 2.9771,0 m 2.9772,0 2.9771,0 m 8.9315,0 2.9771,0 m 2.9772,0 2.9772,0 m 26.7943,0 2.9772,0 m 2.9772,0 2.9771,0 m 8.9315,0 2.9771,0 m 2.9772,0 2.9771,0"
       inkscape:connector-curvature="0" />
    <path
       inkscape:connector-curvature="0"
       id="path5654"
       d="m 6.2736357,83.02232 0,90.2978 2.96875,0 2.9687503,0 2.96875,0 0,-90.2978 -2.96875,0 -2.9687503,0 -2.96875,0 z m 17.8437503,0 0,90.2978 2.96875,0 3,0 2.96875,0 0,-90.2978 -2.96875,0 -3,0 -2.96875,0 z m 35.71875,0 0,90.2978 3,0 2.96875,0 2.96875,0 0,-90.2978 -2.96875,0 -2.96875,0 -3,0 z m 17.875,0 0,90.2978 2.96875,0 3,0 2.96875,0 0,-90.2978 -2.96875,0 -3,0 -2.96875,0 z m 89.312504,0 0,90.2978 2.96875,0 3,0 2.96875,0 0,-90.2978 -2.96875,0 -3,0 -2.96875,0 z m 17.875,0 0,90.2978 2.96875,0 2.96875,0 3,0 0,-90.2978 -3,0 -2.96875,0 -2.96875,0 z m 35.71875,0 0,90.2978 2.96875,0 2.96875,0 3,0 0,-90.2978 -3,0 -2.96875,0 -2.96875,0 z m 17.875,0 0,90.2978 2.96875,0 2.96875,0 2.96875,0 0,-90.2978 -2.96875,0 -2.96875,0 -2.96875,0 z m 250.0625,0 0,90.2978 2.96875,0 3,0 2.96875,0 0,-90.2978 -2.96875,0 -3,0 -2.96875,0 z m 17.875,0 0,90.2978 2.96875,0 2.96875,0 3,0 0,-90.2978 -3,0 -2.96875,0 -2.96875,0 z m 35.71875,0 0,90.2978 2.9688,0 3,0 2.9687,0 0,-90.2978 -2.9687,0 -3,0 -2.9688,0 z m 17.875,0 0,90.2978 2.9688,0 2.9687,0 2.9687,0 0,-90.2978 -2.9687,0 -2.9687,0 -2.9688,0 z m 89.3125,0 0,90.2978 2.9687,0 2.9688,0 2.9688,0 0,-90.2978 -2.9688,0 -2.9688,0 -2.9687,0 z m 17.8437,0 0,90.2978 3,0 2.9688,0 2.9688,0 0,-90.2978 -2.9688,0 -2.9688,0 -3,0 z m 35.75,0 0,90.2978 2.9688,0 2.9688,0 2.9687,0 0,-90.2978 -2.9687,0 -2.9688,0 -2.9688,0 z m 17.8438,0 0,90.2978 2.9688,0 3,0 2.9687,0 0,-90.2978 -2.9687,0 -3,0 -2.9688,0 z"
       style="font-size:medium;font-style:normal;font-variant:normal;font-weight:normal;font-stretch:normal;text-indent:0;text-align:start;text-decoration:none;line-height:normal;letter-spacing:normal;word-spacing:normal;text-transform:none;direction:ltr;block-progression:tb;writing-mode:lr-tb;text-anchor:start;baseline-shift:baseline;color:#000000;fill:#b3b3b3;fill-opacity:1;stroke:none;stroke-width:3;marker:none;visibility:visible;display:inline;overflow:visible;enable-background:accumulate;font-family:Sans;-inkscape-font-specification:Sans" />
    <path
       inkscape:connector-curvature="0"
       id="path4880"
       d="m 6.2736357,83.02232 0,90.2978 2.96875,0 0,-90.2978 -2.96875,0 z m 5.9375003,0 0,90.2978 2.96875,0 0,-90.2978 -2.96875,0 z m 11.90625,0 0,90.2978 2.96875,0 0,-90.2978 -2.96875,0 z m 5.96875,0 0,90.2978 2.96875,0 0,-90.2978 -2.96875,0 z m 29.75,0 0,90.2978 3,0 0,-90.2978 -3,0 z m 5.96875,0 0,90.2978 2.96875,0 0,-90.2978 -2.96875,0 z m 11.90625,0 0,90.2978 2.96875,0 0,-90.2978 -2.96875,0 z m 5.96875,0 0,90.2978 2.96875,0 0,-90.2978 -2.96875,0 z m 83.343754,0 0,90.2978 2.96875,0 0,-90.2978 -2.96875,0 z m 5.96875,0 0,90.2978 2.96875,0 0,-90.2978 -2.96875,0 z m 11.90625,0 0,90.2978 2.96875,0 0,-90.2978 -2.96875,0 z m 5.9375,0 0,90.2978 3,0 0,-90.2978 -3,0 z m 29.78125,0 0,90.2978 2.96875,0 0,-90.2978 -2.96875,0 z m 5.9375,0 0,90.2978 3,0 0,-90.2978 -3,0 z m 11.9375,0 0,90.2978 2.96875,0 0,-90.2978 -2.96875,0 z m 5.9375,0 0,90.2978 2.96875,0 0,-90.2978 -2.96875,0 z m 244.125,0 0,90.2978 2.96875,0 0,-90.2978 -2.96875,0 z m 5.96875,0 0,90.2978 2.96875,0 0,-90.2978 -2.96875,0 z m 11.90625,0 0,90.2978 2.96875,0 0,-90.2978 -2.96875,0 z m 5.9375,0 0,90.2978 3,0 0,-90.2978 -3,0 z m 29.78125,0 0,90.2978 2.9688,0 0,-90.2978 -2.9688,0 z m 5.9688,0 0,90.2978 2.9687,0 0,-90.2978 -2.9687,0 z m 11.9062,0 0,90.2978 2.9688,0 0,-90.2978 -2.9688,0 z m 5.9375,0 0,90.2978 2.9687,0 0,-90.2978 -2.9687,0 z m 83.375,0 0,90.2978 2.9687,0 0,-90.2978 -2.9687,0 z m 5.9375,0 0,90.2978 2.9688,0 0,-90.2978 -2.9688,0 z m 11.9062,0 0,90.2978 3,0 0,-90.2978 -3,0 z m 5.9688,0 0,90.2978 2.9688,0 0,-90.2978 -2.9688,0 z m 29.7812,0 0,90.2978 2.9688,0 0,-90.2978 -2.9688,0 z m 5.9376,0 0,90.2978 2.9687,0 0,-90.2978 -2.9687,0 z m 11.9062,0 0,90.2978 2.9688,0 0,-90.2978 -2.9688,0 z m 5.9688,0 0,90.2978 2.9687,0 0,-90.2978 -2.9687,0 z"
       style="font-size:medium;font-style:normal;font-variant:normal;font-weight:normal;font-stretch:normal;text-indent:0;text-align:start;text-decoration:none;line-height:normal;letter-spacing:normal;word-spacing:normal;text-transform:none;direction:ltr;block-progression:tb;writing-mode:lr-tb;text-anchor:start;baseline-shift:baseline;color:#000000;fill:#000000;fill-opacity:1;stroke:none;stroke-width:3;marker:none;visibility:visible;display:inline;overflow:visible;enable-background:accumulate;font-family:Sans;-inkscape-font-specification:Sans" />
    <text
       sodipodi:linespacing="125%"
       id="text3117"
       y="-206.71077"
       x="-484.80707"
       style="font-size:40px;font-style:normal;font-variant:normal;font-weight:500;font-stretch:normal;line-height:125%;letter-spacing:0px;word-spacing:0px;fill:#000000;fill-opacity:1;stroke:none;font-family:CMU Sans Serif;-inkscape-font-specification:CMU Sans Serif Medium"
       xml:space="preserve"><tspan
         y="-206.71077"
         x="-484.80707"
         id="tspan3119"
         sodipodi:role="line">Poussière de Cantor 2D</tspan><tspan
         id="tspan3125"
         y="-156.71077"
         x="-484.80707"
         sodipodi:role="line">Axiome : A++A++A++A++</tspan><tspan
         id="tspan3123"
         y="-106.71077"
         x="-484.80707"
         sodipodi:role="line">Règle : A=A++A++A++A++LLL;L=LLL</tspan><tspan
         id="tspan3121"
         y="-56.71077"
         x="-484.80707"
         sodipodi:role="line" /></text>
    <rect
       y="5.8095703"
       x="-19.38505"
       height="195.96231"
       width="775.91296"
       id="rect5802"
       style="fill:#ffffff;fill-opacity:1;stroke:none" />
    <path
       style="font-size:medium;font-style:normal;font-variant:normal;font-weight:normal;font-stretch:normal;text-indent:0;text-align:start;text-decoration:none;line-height:normal;letter-spacing:normal;word-spacing:normal;text-transform:none;direction:ltr;block-progression:tb;writing-mode:lr-tb;text-anchor:start;baseline-shift:baseline;color:#000000;fill:#000000;fill-opacity:1;stroke:none;stroke-width:3;marker:none;visibility:visible;display:inline;overflow:visible;enable-background:accumulate;font-family:Sans;-inkscape-font-specification:Sans"
       d="m 7.125,50.466991 0,107.408739 0.125,0 0,-107.408739 -0.125,0 z m 0.21875,0 0,107.408739 0.125,0 0,-107.408739 -0.125,0 z m 0.4375,0 0,107.408739 0.125,0 0,-107.408739 -0.125,0 z m 0.25,0 0,107.408739 0.09375,0 0,-107.408739 -0.09375,0 z m 1.09375,0 0,107.408739 0.09375,0 0,-107.408739 -0.09375,0 z m 0.21875,0 0,107.408739 0.125,0 0,-107.408739 -0.125,0 z m 0.4375,0 0,107.408739 0.125,0 0,-107.408739 -0.125,0 z m 0.21875,0 0,107.408739 0.125,0 0,-107.408739 -0.125,0 z m 3.125,0 0,107.408739 0.09375,0 0,-107.408739 -0.09375,0 z m 0.21875,0 0,107.408739 0.09375,0 0,-107.408739 -0.09375,0 z m 0.4375,0 0,107.408739 0.09375,0 0,-107.408739 -0.09375,0 z m 0.21875,0 0,107.408739 0.09375,0 0,-107.408739 -0.09375,0 z m 1.09375,0 0,107.408739 0.125,0 0,-107.408739 -0.125,0 z m 0.21875,0 0,107.408739 0.125,0 0,-107.408739 -0.125,0 z m 0.46875,0 0,107.408739 0.09375,0 0,-107.408739 -0.09375,0 z m 0.21875,0 0,107.408739 0.09375,0 0,-107.408739 -0.09375,0 z m 9.0625,0 0,107.408739 0.125,0 0,-107.408739 -0.125,0 z m 0.21875,0 0,107.408739 0.125,0 0,-107.408739 -0.125,0 z m 0.46875,0 0,107.408739 0.09375,0 0,-107.408739 -0.09375,0 z m 0.21875,0 0,107.408739 0.09375,0 0,-107.408739 -0.09375,0 z m 1.09375,0 0,107.408739 0.125,0 0,-107.408739 -0.125,0 z m 0.21875,0 0,107.408739 0.125,0 0,-107.408739 -0.125,0 z m 0.4375,0 0,107.408739 0.125,0 0,-107.408739 -0.125,0 z m 0.21875,0 0,107.408739 0.125,0 0,-107.408739 -0.125,0 z m 3.125,0 0,107.408739 0.09375,0 0,-107.408739 -0.09375,0 z m 0.21875,0 0,107.408739 0.09375,0 0,-107.408739 -0.09375,0 z m 0.4375,0 0,107.408739 0.09375,0 0,-107.408739 -0.09375,0 z m 0.21875,0 0,107.408739 0.125,0 0,-107.408739 -0.125,0 z m 1.09375,0 0,107.408739 0.125,0 0,-107.408739 -0.125,0 z m 0.25,0 0,107.408739 0.09375,0 0,-107.408739 -0.09375,0 z m 0.4375,0 0,107.408739 0.09375,0 0,-107.408739 -0.09375,0 z m 0.21875,0 0,107.408739 0.09375,0 0,-107.408739 -0.09375,0 z m 27.03125,0 0,107.408739 0.09375,0 0,-107.408739 -0.09375,0 z m 0.21875,0 0,107.408739 0.09375,0 0,-107.408739 -0.09375,0 z m 0.4375,0 0,107.408739 0.09375,0 0,-107.408739 -0.09375,0 z m 0.21875,0 0,107.408739 0.09375,0 0,-107.408739 -0.09375,0 z m 1.09375,0 0,107.408739 0.125,0 0,-107.408739 -0.125,0 z m 0.21875,0 0,107.408739 0.125,0 0,-107.408739 -0.125,0 z m 0.46875,0 0,107.408739 0.09375,0 0,-107.408739 -0.09375,0 z m 0.21875,0 0,107.408739 0.09375,0 0,-107.408739 -0.09375,0 z m 3.09375,0 0,107.408739 0.09375,0 0,-107.408739 -0.09375,0 z m 0.21875,0 0,107.408739 0.125,0 0,-107.408739 -0.125,0 z m 0.4375,0 0,107.408739 0.125,0 0,-107.408739 -0.125,0 z m 0.21875,0 0,107.408739 0.125,0 0,-107.408739 -0.125,0 z m 1.125,0 0,107.408739 0.09375,0 0,-107.408739 -0.09375,0 z m 0.21875,0 0,107.408739 0.09375,0 0,-107.408739 -0.09375,0 z m 0.4375,0 0,107.408739 0.125,0 0,-107.408739 -0.125,0 z m 0.21875,0 0,107.408739 0.125,0 0,-107.408739 -0.125,0 z m 9.09375,0 0,107.408739 0.09375,0 0,-107.408739 -0.09375,0 z m 0.21875,0 0,107.408739 0.09375,0 0,-107.408739 -0.09375,0 z m 0.4375,0 0,107.408739 0.09375,0 0,-107.408739 -0.09375,0 z m 0.21875,0 0,107.408739 0.125,0 0,-107.408739 -0.125,0 z m 1.09375,0 0,107.408739 0.125,0 0,-107.408739 -0.125,0 z m 0.25,0 0,107.408739 0.09375,0 0,-107.408739 -0.09375,0 z m 0.4375,0 0,107.408739 0.09375,0 0,-107.408739 -0.09375,0 z m 0.21875,0 0,107.408739 0.09375,0 0,-107.408739 -0.09375,0 z m 3.09375,0 0,107.408739 0.125,0 0,-107.408739 -0.125,0 z m 0.21875,0 0,107.408739 0.125,0 0,-107.408739 -0.125,0 z m 0.4375,0 0,107.408739 0.125,0 0,-107.408739 -0.125,0 z m 0.21875,0 0,107.408739 0.125,0 0,-107.408739 -0.125,0 z m 1.125,0 0,107.408739 0.09375,0 0,-107.408739 -0.09375,0 z m 0.21875,0 0,107.408739 0.09375,0 0,-107.408739 -0.09375,0 z m 0.4375,0 0,107.408739 0.125,0 0,-107.408739 -0.125,0 z m 0.21875,0 0,107.408739 0.125,0 0,-107.408739 -0.125,0 z m 80.84375,0 0,107.408739 0.125,0 0,-107.408739 -0.125,0 z m 0.21875,0 0,107.408739 0.125,0 0,-107.408739 -0.125,0 z m 0.46875,0 0,107.408739 0.0937,0 0,-107.408739 -0.0937,0 z m 0.21875,0 0,107.408739 0.0937,0 0,-107.408739 -0.0937,0 z m 1.09375,0 0,107.408739 0.125,0 0,-107.408739 -0.125,0 z m 0.21875,0 0,107.408739 0.125,0 0,-107.408739 -0.125,0 z m 0.4375,0 0,107.408739 0.125,0 0,-107.408739 -0.125,0 z m 0.21875,0 0,107.408739 0.125,0 0,-107.408739 -0.125,0 z m 3.125,0 0,107.408739 0.0937,0 0,-107.408739 -0.0937,0 z m 0.21875,0 0,107.408739 0.0937,0 0,-107.408739 -0.0937,0 z m 0.4375,0 0,107.408739 0.0937,0 0,-107.408739 -0.0937,0 z m 0.21875,0 0,107.408739 0.125,0 0,-107.408739 -0.125,0 z m 1.09375,0 0,107.408739 0.125,0 0,-107.408739 -0.125,0 z m 0.25,0 0,107.408739 0.0937,0 0,-107.408739 -0.0937,0 z m 0.4375,0 0,107.408739 0.0937,0 0,-107.408739 -0.0937,0 z m 0.21875,0 0,107.408739 0.0937,0 0,-107.408739 -0.0937,0 z m 9.0625,0 0,107.408739 0.125,0 0,-107.408739 -0.125,0 z m 0.21875,0 0,107.408739 0.125,0 0,-107.408739 -0.125,0 z m 0.46875,0 0,107.408739 0.0937,0 0,-107.408739 -0.0937,0 z m 0.21875,0 0,107.408739 0.0937,0 0,-107.408739 -0.0937,0 z m 1.09375,0 0,107.408739 0.125,0 0,-107.408739 -0.125,0 z m 0.21875,0 0,107.408739 0.125,0 0,-107.408739 -0.125,0 z m 0.4375,0 0,107.408739 0.125,0 0,-107.408739 -0.125,0 z m 0.25,0 0,107.408739 0.0937,0 0,-107.408739 -0.0937,0 z m 3.09375,0 0,107.408739 0.0937,0 0,-107.408739 -0.0937,0 z m 0.21875,0 0,107.408739 0.0937,0 0,-107.408739 -0.0937,0 z m 0.4375,0 0,107.408739 0.125,0 0,-107.408739 -0.125,0 z m 0.21875,0 0,107.408739 0.125,0 0,-107.408739 -0.125,0 z m 1.125,0 0,107.408739 0.0937,0 0,-107.408739 -0.0937,0 z m 0.21875,0 0,107.408739 0.0937,0 0,-107.408739 -0.0937,0 z m 0.4375,0 0,107.408739 0.0937,0 0,-107.408739 -0.0937,0 z m 0.21875,0 0,107.408739 0.0937,0 0,-107.408739 -0.0937,0 z m 27.03125,0 0,107.408739 0.0937,0 0,-107.408739 -0.0937,0 z m 0.21875,0 0,107.408739 0.0937,0 0,-107.408739 -0.0937,0 z m 0.4375,0 0,107.408739 0.0937,0 0,-107.408739 -0.0937,0 z m 0.21875,0 0,107.408739 0.125,0 0,-107.408739 -0.125,0 z m 1.09375,0 0,107.408739 0.125,0 0,-107.408739 -0.125,0 z m 0.25,0 0,107.408739 0.0937,0 0,-107.408739 -0.0937,0 z m 0.4375,0 0,107.408739 0.0937,0 0,-107.408739 -0.0937,0 z m 0.21875,0 0,107.408739 0.0937,0 0,-107.408739 -0.0937,0 z m 3.09375,0 0,107.408739 0.125,0 0,-107.408739 -0.125,0 z m 0.21875,0 0,107.408739 0.125,0 0,-107.408739 -0.125,0 z m 0.4375,0 0,107.408739 0.125,0 0,-107.408739 -0.125,0 z m 0.21875,0 0,107.408739 0.125,0 0,-107.408739 -0.125,0 z m 1.125,0 0,107.408739 0.0937,0 0,-107.408739 -0.0937,0 z m 0.21875,0 0,107.408739 0.0937,0 0,-107.408739 -0.0937,0 z m 0.4375,0 0,107.408739 0.125,0 0,-107.408739 -0.125,0 z m 0.21875,0 0,107.408739 0.125,0 0,-107.408739 -0.125,0 z m 9.09375,0 0,107.408739 0.0937,0 0,-107.408739 -0.0937,0 z m 0.21875,0 0,107.408739 0.0937,0 0,-107.408739 -0.0937,0 z m 0.4375,0 0,107.408739 0.125,0 0,-107.408739 -0.125,0 z m 0.21875,0 0,107.408739 0.125,0 0,-107.408739 -0.125,0 z m 1.125,0 0,107.408739 0.0937,0 0,-107.408739 -0.0937,0 z m 0.21875,0 0,107.408739 0.0937,0 0,-107.408739 -0.0937,0 z m 0.4375,0 0,107.408739 0.0937,0 0,-107.408739 -0.0937,0 z m 0.21875,0 0,107.408739 0.0937,0 0,-107.408739 -0.0937,0 z m 3.09375,0 0,107.408739 0.125,0 0,-107.408739 -0.125,0 z m 0.21875,0 0,107.408739 0.125,0 0,-107.408739 -0.125,0 z m 0.4375,0 0,107.408739 0.125,0 0,-107.408739 -0.125,0 z m 0.25,0 0,107.408739 0.0937,0 0,-107.408739 -0.0937,0 z m 1.09375,0 0,107.408739 0.125,0 0,-107.408739 -0.125,0 z m 0.21875,0 0,107.408739 0.125,0 0,-107.408739 -0.125,0 z m 0.4375,0 0,107.408739 0.125,0 0,-107.408739 -0.125,0 z m 0.21875,0 0,107.408739 0.125,0 0,-107.408739 -0.125,0 z m 242.34375,0 0,107.408739 0.0937,0 0,-107.408739 -0.0937,0 z m 0.21875,0 0,107.408739 0.0937,0 0,-107.408739 -0.0937,0 z m 0.4375,0 0,107.408739 0.0937,0 0,-107.408739 -0.0937,0 z m 0.21875,0 0,107.408739 0.0937,0 0,-107.408739 -0.0937,0 z m 1.09375,0 0,107.408739 0.125,0 0,-107.408739 -0.125,0 z m 0.21875,0 0,107.408739 0.125,0 0,-107.408739 -0.125,0 z m 0.46875,0 0,107.408739 0.0937,0 0,-107.408739 -0.0937,0 z m 0.21875,0 0,107.408739 0.0937,0 0,-107.408739 -0.0937,0 z m 3.09375,0 0,107.408739 0.0937,0 0,-107.408739 -0.0937,0 z m 0.21875,0 0,107.408739 0.125,0 0,-107.408739 -0.125,0 z m 0.4375,0 0,107.408739 0.125,0 0,-107.408739 -0.125,0 z m 0.21875,0 0,107.408739 0.125,0 0,-107.408739 -0.125,0 z m 1.125,0 0,107.408739 0.0937,0 0,-107.408739 -0.0937,0 z m 0.21875,0 0,107.408739 0.0937,0 0,-107.408739 -0.0937,0 z m 0.4375,0 0,107.408739 0.125,0 0,-107.408739 -0.125,0 z m 0.21875,0 0,107.408739 0.125,0 0,-107.408739 -0.125,0 z m 9.09375,0 0,107.408739 0.0937,0 0,-107.408739 -0.0937,0 z m 0.21875,0 0,107.408739 0.0937,0 0,-107.408739 -0.0937,0 z m 0.4375,0 0,107.408739 0.0937,0 0,-107.408739 -0.0937,0 z m 0.21875,0 0,107.408739 0.125,0 0,-107.408739 -0.125,0 z m 1.09375,0 0,107.408739 0.125,0 0,-107.408739 -0.125,0 z m 0.25,0 0,107.408739 0.0937,0 0,-107.408739 -0.0937,0 z m 0.4375,0 0,107.408739 0.0937,0 0,-107.408739 -0.0937,0 z m 0.21875,0 0,107.408739 0.0937,0 0,-107.408739 -0.0937,0 z m 3.09375,0 0,107.408739 0.125,0 0,-107.408739 -0.125,0 z m 0.21875,0 0,107.408739 0.125,0 0,-107.408739 -0.125,0 z m 0.4375,0 0,107.408739 0.125,0 0,-107.408739 -0.125,0 z m 0.21875,0 0,107.408739 0.125,0 0,-107.408739 -0.125,0 z m 1.125,0 0,107.408739 0.0937,0 0,-107.408739 -0.0937,0 z m 0.21875,0 0,107.408739 0.0937,0 0,-107.408739 -0.0937,0 z m 0.4375,0 0,107.408739 0.125,0 0,-107.408739 -0.125,0 z m 0.21875,0 0,107.408739 0.125,0 0,-107.408739 -0.125,0 z m 27.03125,0 0,107.408739 0.0937,0 0,-107.408739 -0.0937,0 z m 0.21875,0 0,107.408739 0.125,0 0,-107.408739 -0.125,0 z m 0.4375,0 0,107.408739 0.125,0 0,-107.408739 -0.125,0 z m 0.21875,0 0,107.408739 0.125,0 0,-107.408739 -0.125,0 z m 1.125,0 0,107.408739 0.0937,0 0,-107.408739 -0.0937,0 z m 0.21875,0 0,107.408739 0.0937,0 0,-107.408739 -0.0937,0 z m 0.4375,0 0,107.408739 0.125,0 0,-107.408739 -0.125,0 z m 0.21875,0 0,107.408739 0.125,0 0,-107.408739 -0.125,0 z m 3.09375,0 0,107.408739 0.125,0 0,-107.408739 -0.125,0 z m 0.21875,0 0,107.408739 0.125,0 0,-107.408739 -0.125,0 z m 0.46875,0 0,107.408739 0.0937,0 0,-107.408739 -0.0937,0 z m 0.21875,0 0,107.408739 0.0937,0 0,-107.408739 -0.0937,0 z m 1.09375,0 0,107.408739 0.125,0 0,-107.408739 -0.125,0 z m 0.21875,0 0,107.408739 0.125,0 0,-107.408739 -0.125,0 z m 0.4375,0 0,107.408739 0.125,0 0,-107.408739 -0.125,0 z m 0.21875,0 0,107.408739 0.125,0 0,-107.408739 -0.125,0 z m 9.09375,0 0,107.408739 0.125,0 0,-107.408739 -0.125,0 z m 0.21875,0 0,107.408739 0.125,0 0,-107.408739 -0.125,0 z m 0.4375,0 0,107.408739 0.125,0 0,-107.408739 -0.125,0 z m 0.21875,0 0,107.408739 0.125,0 0,-107.408739 -0.125,0 z m 1.125,0 0,107.408739 0.0937,0 0,-107.408739 -0.0937,0 z m 0.21875,0 0,107.408739 0.0937,0 0,-107.408739 -0.0937,0 z m 0.4375,0 0,107.408739 0.125,0 0,-107.408739 -0.125,0 z m 0.21875,0 0,107.408739 0.125,0 0,-107.408739 -0.125,0 z m 3.09375,0 0,107.408739 0.125,0 0,-107.408739 -0.125,0 z m 0.25,0 0,107.408739 0.0937,0 0,-107.408739 -0.0937,0 z m 0.4375,0 0,107.408739 0.0937,0 0,-107.408739 -0.0937,0 z m 0.21875,0 0,107.408739 0.0937,0 0,-107.408739 -0.0937,0 z m 1.09375,0 0,107.408739 0.125,0 0,-107.408739 -0.125,0 z m 0.21875,0 0,107.408739 0.125,0 0,-107.408739 -0.125,0 z m 0.4375,0 0,107.408739 0.125,0 0,-107.408739 -0.125,0 z m 0.25,0 0,107.408739 0.0937,0 0,-107.408739 -0.0937,0 z m 80.84375,0 0,107.408739 0.0937,0 0,-107.408739 -0.0937,0 z m 0.21875,0 0,107.408739 0.0937,0 0,-107.408739 -0.0937,0 z m 0.4375,0 0,107.408739 0.125,0 0,-107.408739 -0.125,0 z m 0.21875,0 0,107.408739 0.125,0 0,-107.408739 -0.125,0 z m 1.09375,0 0,107.408739 0.125,0 0,-107.408739 -0.125,0 z m 0.25,0 0,107.408739 0.0937,0 0,-107.408739 -0.0937,0 z m 0.4375,0 0,107.408739 0.0937,0 0,-107.408739 -0.0937,0 z m 0.21875,0 0,107.408739 0.0937,0 0,-107.408739 -0.0937,0 z m 3.09375,0 0,107.408739 0.125,0 0,-107.408739 -0.125,0 z m 0.21875,0 0,107.408739 0.125,0 0,-107.408739 -0.125,0 z m 0.4375,0 0,107.408739 0.125,0 0,-107.408739 -0.125,0 z m 0.21875,0 0,107.408739 0.125,0 0,-107.408739 -0.125,0 z m 1.125,0 0,107.408739 0.0937,0 0,-107.408739 -0.0937,0 z m 0.21875,0 0,107.408739 0.0937,0 0,-107.408739 -0.0937,0 z m 0.4375,0 0,107.408739 0.125,0 0,-107.408739 -0.125,0 z m 0.21875,0 0,107.408739 0.125,0 0,-107.408739 -0.125,0 z m 9.09375,0 0,107.408739 0.0937,0 0,-107.408739 -0.0937,0 z m 0.21875,0 0,107.408739 0.0937,0 0,-107.408739 -0.0937,0 z m 0.4375,0 0,107.408739 0.125,0 0,-107.408739 -0.125,0 z m 0.21875,0 0,107.408739 0.125,0 0,-107.408739 -0.125,0 z m 1.125,0 0,107.408739 0.0937,0 0,-107.408739 -0.0937,0 z m 0.21875,0 0,107.408739 0.0937,0 0,-107.408739 -0.0937,0 z m 0.4375,0 0,107.408739 0.0937,0 0,-107.408739 -0.0937,0 z m 0.21875,0 0,107.408739 0.125,0 0,-107.408739 -0.125,0 z m 3.09375,0 0,107.408739 0.125,0 0,-107.408739 -0.125,0 z m 0.21875,0 0,107.408739 0.125,0 0,-107.408739 -0.125,0 z m 0.4375,0 0,107.408739 0.125,0 0,-107.408739 -0.125,0 z m 0.25,0 0,107.408739 0.0937,0 0,-107.408739 -0.0937,0 z m 1.09375,0 0,107.408739 0.125,0 0,-107.408739 -0.125,0 z m 0.21875,0 0,107.408739 0.125,0 0,-107.408739 -0.125,0 z m 0.4375,0 0,107.408739 0.125,0 0,-107.408739 -0.125,0 z m 0.21875,0 0,107.408739 0.125,0 0,-107.408739 -0.125,0 z m 27.03125,0 0,107.408739 0.125,0 0,-107.408739 -0.125,0 z m 0.21875,0 0,107.408739 0.125,0 0,-107.408739 -0.125,0 z m 0.4375,0 0,107.408739 0.125,0 0,-107.408739 -0.125,0 z m 0.21875,0 0,107.408739 0.125,0 0,-107.408739 -0.125,0 z m 1.125,0 0,107.408739 0.0937,0 0,-107.408739 -0.0937,0 z m 0.21875,0 0,107.408739 0.0937,0 0,-107.408739 -0.0937,0 z m 0.4375,0 0,107.408739 0.125,0 0,-107.408739 -0.125,0 z m 0.21875,0 0,107.408739 0.125,0 0,-107.408739 -0.125,0 z m 3.09375,0 0,107.408739 0.125,0 0,-107.408739 -0.125,0 z m 0.25,0 0,107.408739 0.0937,0 0,-107.408739 -0.0937,0 z m 0.4375,0 0,107.408739 0.0937,0 0,-107.408739 -0.0937,0 z m 0.21875,0 0,107.408739 0.0937,0 0,-107.408739 -0.0937,0 z m 1.09375,0 0,107.408739 0.125,0 0,-107.408739 -0.125,0 z m 0.21875,0 0,107.408739 0.125,0 0,-107.408739 -0.125,0 z m 0.46875,0 0,107.408739 0.0937,0 0,-107.408739 -0.0937,0 z m 0.21875,0 0,107.408739 0.0937,0 0,-107.408739 -0.0937,0 z m 9.0625,0 0,107.408739 0.125,0 0,-107.408739 -0.125,0 z m 0.21875,0 0,107.408739 0.125,0 0,-107.408739 -0.125,0 z m 0.4375,0 0,107.408739 0.125,0 0,-107.408739 -0.125,0 z m 0.25,0 0,107.408739 0.0937,0 0,-107.408739 -0.0937,0 z m 1.09375,0 0,107.408739 0.125,0 0,-107.408739 -0.125,0 z m 0.21875,0 0,107.408739 0.125,0 0,-107.408739 -0.125,0 z m 0.4375,0 0,107.408739 0.125,0 0,-107.408739 -0.125,0 z m 0.21875,0 0,107.408739 0.125,0 0,-107.408739 -0.125,0 z m 3.125,0 0,107.408739 0.0937,0 0,-107.408739 -0.0937,0 z m 0.21875,0 0,107.408739 0.0937,0 0,-107.408739 -0.0937,0 z m 0.4375,0 0,107.408739 0.0937,0 0,-107.408739 -0.0937,0 z m 0.21875,0 0,107.408739 0.0937,0 0,-107.408739 -0.0937,0 z m 1.09375,0 0,107.408739 0.125,0 0,-107.408739 -0.125,0 z m 0.21875,0 0,107.408739 0.125,0 0,-107.408739 -0.125,0 z m 0.46875,0 0,107.408739 0.0937,0 0,-107.408739 -0.0937,0 z m 0.21875,0 0,107.408739 0.0937,0 0,-107.408739 -0.0937,0 z"
       id="path3305"
       inkscape:connector-curvature="0" />
    <path
       inkscape:connector-curvature="0"
       d="m 7.129708,-36.964685 0.1107548,0 m 0.11073,0 0.1107548,0 m 0.3322642,0 0.1107303,0 m 0.1107544,0 0.1107549,0 m 0.9967433,0 0.1107549,0 m 0.1107544,0 0.1107303,0 m 0.3322642,0 0.1107549,0 m 0.1107296,0 0.110755,0 m 2.990255,0 0.11073,0 m 0.110755,0 0.110755,0 m 0.332239,0 0.110754,0 m 0.110755,0 0.110755,0 m 0.996744,0 0.110754,0 m 0.110755,0 0.11073,0 m 0.332264,0 0.110731,0 m 0.110754,0 0.110755,0 m 8.970715,0 0.110755,0 m 0.110755,0 0.110754,0 m 0.332239,0 0.110755,0 m 0.110755,0 0.11073,0 m 0.996768,0 0.11073,0 m 0.110755,0 0.110754,0 m 0.33224,0 0.110755,0 m 0.110755,0 0.110754,0 m 2.99023,0 0.110755,0 m 0.110754,0 0.110755,0 m 0.332241,0 0.110754,0 m 0.11073,0 0.110755,0 m 0.996743,0 0.110755,0 m 0.110755,0 0.110754,0 m 0.33224,0 0.110755,0 m 0.110754,0 0.110755,0 m 26.912144,0 0.110755,0 m 0.110754,0 0.110755,0 m 0.332242,0 0.110755,0 m 0.110754,0 0.110729,0 m 0.99677,0 0.110729,0 m 0.110754,0 0.110755,0 m 0.332238,0 0.110755,0 m 0.110754,0 0.110754,0 m 2.990233,0 0.110754,0 m 0.110755,0 0.110754,0 m 0.332239,0 0.110754,0 m 0.110734,0 0.110755,0 m 0.996739,0 0.11076,0 m 0.110754,0 0.110754,0 m 0.332238,0 0.110754,0 m 0.110755,0 0.110754,0 m 8.970715,0 0.110754,0 m 0.11073,0 0.110759,0 m 0.332264,0 0.110728,0 m 0.110755,0 0.110754,0 m 0.996745,0 0.110754,0 m 0.110755,0 0.110729,0 m 0.332263,0 0.110754,0 m 0.110735,0 0.110754,0 m 2.990254,0 0.110728,0 m 0.110755,0 0.110754,0 m 0.332239,0 0.110759,0 m 0.110755,0 0.110754,0 m 0.996739,0 0.11076,0 m 0.110754,0 0.110729,0 m 0.332264,0 0.110728,0 m 0.110755,0 0.110754,0 m 80.736491,0 0.11074,0 m 0.11075,0 0.11076,0 m 0.33224,0 0.11075,0 m 0.11076,0 0.11075,0 m 0.99675,0 0.11073,0 m 0.11075,0 0.11076,0 m 0.33224,0 0.11075,0 m 0.11076,0 0.11075,0 m 2.99023,0 0.11076,0 m 0.11076,0 0.11075,0 m 0.33224,0 0.11075,0 m 0.11076,0 0.11073,0 m 0.99674,0 0.11076,0 m 0.11075,0 0.11076,0 m 0.33224,0 0.11076,0 m 0.11075,0 0.11075,0 m 8.97072,0 0.11075,0 m 0.11072,0 0.11077,0 m 0.33225,0 0.11073,0 m 0.11076,0 0.11075,0 m 0.99675,0 0.11075,0 m 0.11075,0 0.11076,0 m 0.33224,0 0.11076,0 m 0.11075,0 0.11073,0 m 2.99026,0 0.11075,0 m 0.11074,0 0.11075,0 m 0.33224,0 0.11075,0 m 0.11076,0 0.11075,0 m 0.99675,0 0.11075,0 m 0.11076,0 0.11073,0 m 0.33226,0 0.11076,0 m 0.11073,0 0.11075,0 m 26.91217,0 0.11076,0 m 0.11073,0 0.11075,0 m 0.33226,0 0.11074,0 m 0.11075,0 0.11076,0 m 0.99673,0 0.11076,0 m 0.11075,0 0.11076,0 m 0.33223,0 0.11076,0 m 0.11075,0 0.11073,0 m 2.99026,0 0.11076,0 m 0.11073,0 0.11075,0 m 0.33227,0 0.11073,0 m 0.11075,0 0.11076,0 m 0.99674,0 0.11076,0 m 0.11075,0 0.11073,0 m 0.33227,0 0.11075,0 m 0.11073,0 0.11076,0 m 8.97071,0 0.11076,0 m 0.11075,0 0.11075,0 m 0.33225,0 0.11075,0 m 0.11076,0 0.11075,0 m 0.99674,0 0.11073,0 m 0.11075,0 0.11075,0 m 0.33224,0 0.11076,0 m 0.11075,0 0.11076,0 m 2.99023,0 0.11076,0 m 0.11075,0 0.11076,0 m 0.33224,0 0.11075,0 m 0.11075,0 0.11073,0 m 0.99677,0 0.11073,0 m 0.11076,0 0.11075,0 m 0.33225,0 0.11075,0 m 0.11076,0 0.11075,0 m 242.20945,0 0.11075,0 m 0.11075,0 0.11075,0 m 0.33225,0 0.11075,0 m 0.11075,0 0.11075,0 m 0.99675,0 0.11075,0 m 0.11075,0 0.11075,0 m 0.33225,0 0.11075,0 m 0.11074,0 0.11075,0 m 2.99025,0 0.11075,0 m 0.11074,0 0.11076,0 m 0.33225,0 0.11075,0 m 0.11075,0 0.11074,0 m 0.99674,0 0.11075,0 m 0.11076,0 0.11075,0 m 0.33224,0 0.11075,0 m 0.11075,0 0.11075,0 m 8.9707,0 0.11079,0 m 0.11073,0 0.11074,0 m 0.33225,0 0.11078,0 m 0.11074,0 0.11073,0 m 0.99676,0 0.11074,0 m 0.11078,0 0.11074,0 m 0.33225,0 0.11073,0 m 0.11074,0 0.11078,0 m 2.99023,0 0.11074,0 m 0.11078,0 0.11074,0 m 0.33225,0 0.11074,0 m 0.11072,0 0.11079,0 m 0.99671,0 0.11078,0 m 0.11073,0 0.11074,0 m 0.33225,0 0.11079,0 m 0.11073,0 0.11074,0 m 26.91215,0 0.11078,0 m 0.11074,0 0.11073,0 m 0.33226,0 0.11073,0 m 0.11078,0 0.11074,0 m 0.99676,0 0.11073,0 m 0.11074,0 0.11078,0 m 0.33226,0 0.11073,0 m 0.11074,0 0.11078,0 m 2.99023,0 0.11074,0 m 0.11073,0 0.11079,0 m 0.33225,0 0.11073,0 m 0.11074,0 0.11078,0 m 0.9967,0 0.1108,0 m 0.11072,0 0.11074,0 m 0.33225,0 0.11073,0 m 0.11079,0 0.11073,0 m 8.97074,0 0.11073,0 m 0.11074,0 0.11078,0 m 0.33225,0 0.11074,0 m 0.11073,0 0.11079,0 m 0.99671,0 0.11078,0 m 0.11074,0 0.11073,0 m 0.33226,0 0.11073,0 m 0.11078,0 0.11074,0 m 2.99023,0 0.11078,0 m 0.11074,0 0.11073,0 m 0.33226,0 0.11073,0 m 0.11079,0 0.11073,0 m 0.99676,0 0.11074,0 m 0.11072,0 0.11079,0 m 0.33226,0 0.11072,0 m 0.11074,0 0.11078,0 m 80.73647,0 0.11079,0 m 0.11073,0 0.11078,0 m 0.33221,0 0.11078,0 m 0.11074,0 0.11073,0 m 0.99675,0 0.11074,0 m 0.11073,0 0.11079,0 m 0.33225,0 0.11073,0 m 0.11074,0 0.11078,0 m 2.99023,0 0.11074,0 m 0.11078,0 0.11074,0 m 0.33225,0 0.11074,0 m 0.11073,0 0.11078,0 m 0.99672,0 0.11078,0 m 0.11073,0 0.11074,0 m 0.33225,0 0.11079,0 m 0.11073,0 0.11074,0 m 8.97073,0 0.11073,0 m 0.11074,0 0.11078,0 m 0.33226,0 0.11073,0 m 0.11074,0 0.11078,0 m 0.9967,0 0.11078,0 m 0.11074,0 0.11073,0 m 0.33226,0 0.11078,0 m 0.11074,0 0.11073,0 m 2.99028,0 0.11069,0 m 0.11078,0 0.11074,0 m 0.33225,0 0.11073,0 m 0.11079,0 0.11073,0 m 0.99676,0 0.11074,0 m 0.11073,0 0.11079,0 m 0.33225,0 0.11074,0 m 0.11073,0 0.11078,0 m 26.91216,0 0.11073,0 m 0.11074,0 0.11078,0 m 0.33225,0 0.11074,0 m 0.11073,0 0.11079,0 m 0.99671,0 0.11078,0 m 0.11074,0 0.11072,0 m 0.33226,0 0.11079,0 m 0.11072,0 0.11074,0 m 2.99023,0 0.11074,0 m 0.11078,0 0.11073,0 m 0.33226,0 0.11073,0 m 0.11079,0 0.11073,0 m 0.99676,0 0.11074,0 m 0.11073,0 0.11078,0 m 0.33226,0 0.11073,0 m 0.11074,0 0.11078,0 m 8.97069,0 0.11078,0 m 0.11073,0 0.11074,0 m 0.33225,0 0.11074,0 m 0.11078,0 0.11074,0 m 0.99676,0 0.11073,0 m 0.11074,0 0.11078,0 m 0.33219,0 0.1108,0 m 0.11072,0 0.1108,0 m 2.99022,0 0.11073,0 m 0.11074,0 0.11078,0 m 0.33226,0 0.11073,0 m 0.11074,0 0.11073,0 m 0.99676,0 0.11073,0 m 0.11079,0 0.11073,0 m 0.33226,0 0.11073,0 m 0.11079,0 0.11073,0"
       style="fill:none;stroke:#000000;stroke-width:3;stroke-linecap:butt;stroke-linejoin:miter;stroke-opacity:1"
       id="path3322" />
  </g>
</svg>
