<?xml version="1.0" encoding="UTF-8" standalone="no"?>
<!-- Created with Inkscape (http://www.inkscape.org/) -->

<svg
   xmlns:dc="http://purl.org/dc/elements/1.1/"
   xmlns:cc="http://creativecommons.org/ns#"
   xmlns:rdf="http://www.w3.org/1999/02/22-rdf-syntax-ns#"
   xmlns:svg="http://www.w3.org/2000/svg"
   xmlns="http://www.w3.org/2000/svg"
   xmlns:sodipodi="http://sodipodi.sourceforge.net/DTD/sodipodi-0.dtd"
   xmlns:inkscape="http://www.inkscape.org/namespaces/inkscape"
   width="325.25381"
   height="325.25381"
   id="svg2"
   version="1.1"
   inkscape:version="0.48.4 r9939"
   sodipodi:docname="Cantor_poussiere_3D.svg">
  <sodipodi:namedview
     id="base"
     pagecolor="#ffffff"
     bordercolor="#666666"
     borderopacity="1.0"
     inkscape:pageopacity="0.0"
     inkscape:pageshadow="2"
     inkscape:zoom="0.98994949"
     inkscape:cx="355.44369"
     inkscape:cy="200.1309"
     inkscape:document-units="px"
     inkscape:current-layer="layer1"
     showgrid="false"
     inkscape:window-width="1615"
     inkscape:window-height="1026"
     inkscape:window-x="65"
     inkscape:window-y="24"
     inkscape:window-maximized="1"
     showguides="true"
     inkscape:guide-bbox="true"
     inkscape:snap-bbox="true"
     fit-margin-top="0"
     fit-margin-left="0"
     fit-margin-right="0"
     fit-margin-bottom="0">
    <sodipodi:guide
       orientation="1,0"
       position="12.626906,312.62691"
       id="guide3377" />
    <sodipodi:guide
       orientation="1,0"
       position="312.62691,312.62691"
       id="guide3379" />
    <sodipodi:guide
       orientation="0,1"
       position="12.626906,312.62691"
       id="guide3381" />
    <sodipodi:guide
       orientation="0,1"
       position="12.626906,12.626907"
       id="guide3383" />
  </sodipodi:namedview>
  <defs
     id="defs4" />
  <metadata
     id="metadata7">
    <rdf:RDF>
      <cc:Work
         rdf:about="">
        <dc:format>image/svg+xml</dc:format>
        <dc:type
           rdf:resource="http://purl.org/dc/dcmitype/StillImage" />
        <dc:title></dc:title>
      </cc:Work>
    </rdf:RDF>
  </metadata>
  <g
     id="layer1"
     inkscape:groupmode="layer"
     inkscape:label="Calque 1"
     transform="translate(12.626906,-39.735275)"
     style="display:inline">
    <path
       d="m 0,352.36218 0,-33.33333 33.333334,0 0,33.33333 -33.333334,0 m 0,-99.99999 33.333334,0 0,33.33333 -33.333334,0 0,-33.33333 m 99.999999,0 0,33.33333 -33.333331,0 0,-33.33333 33.333331,0 m 0,99.99999 -33.333331,0 0,-33.33333 33.333331,0 0,33.33333 M 0,52.362183 l 33.333334,0 0,33.33333 -33.333334,0 0,-33.33333 m 99.999999,0 0,33.33333 -33.333331,0 0,-33.33333 33.333331,0 m 0,99.999997 -33.333331,0 0,-33.33333 33.333331,0 0,33.33333 m -99.999999,0 0,-33.33333 33.333334,0 0,33.33333 -33.333334,0 m 300,-99.999997 0,33.33333 -33.33333,0 0,-33.33333 33.33333,0 m 0,99.999997 -33.33333,0 0,-33.33333 33.33333,0 0,33.33333 m -99.99999,0 0,-33.33333 33.33333,0 0,33.33333 -33.33333,0 m 0,-99.999997 33.33333,0 0,33.33333 -33.33333,0 0,-33.33333 M 300,352.36218 l -33.33333,0 0,-33.33333 33.33333,0 0,33.33333 m -99.99999,0 0,-33.33333 33.33333,0 0,33.33333 -33.33333,0 m 0,-99.99999 33.33333,0 0,33.33333 -33.33333,0 0,-33.33333 m 99.99999,0 0,33.33333 -33.33333,0 0,-33.33333 33.33333,0"
       style="fill:#b3b3b3;fill-opacity:1;stroke:none;display:inline"
       id="path3265"
       inkscape:connector-curvature="0" />
    <path
       d="m 0,352.36218 0,-299.999997 300,0 0,299.999997 -300,0"
       style="fill:#b3b3b3;fill-opacity:1;stroke:none;display:inline"
       id="path3239"
       inkscape:connector-curvature="0" />
    <path
       id="path3251"
       style="fill:#b3b3b3;fill-opacity:1;stroke:none;display:inline"
       d="m 0,352.36218 0,-100 99.999999,0 0,100 -99.999999,0 m 0,-299.999997 99.999999,0 0,99.999997 -99.999999,0 0,-99.999997 m 300,0 0,99.999997 -100,0 0,-99.999997 100,0 m 0,299.999997 -100,0 0,-100 100,0 0,100"
       inkscape:connector-curvature="0" />
    <path
       id="path3281"
       style="fill:#b3b3b3;fill-opacity:1;stroke:none;display:inline"
       d="m 0,352.36218 0,-11.11111 11.11111,0 0,11.11111 -11.11111,0 m 0,-33.33333 11.11111,0 0,11.11111 -11.11111,0 0,-11.11111 m 33.333334,0 0,11.11111 -11.111111,0 0,-11.11111 11.111111,0 m 0,33.33333 -11.111111,0 0,-11.11111 11.111111,0 0,11.11111 M 0,252.36219 l 11.11111,0 0,11.11111 -11.11111,0 0,-11.11111 m 33.333334,0 0,11.11111 -11.111111,0 0,-11.11111 11.111111,0 m 0,33.33333 -11.111111,0 0,-11.11111 11.111111,0 0,11.11111 m -33.333334,0 0,-11.11111 11.11111,0 0,11.11111 -11.11111,0 m 99.999998,-33.33333 0,11.11111 -11.111108,0 0,-11.11111 11.111108,0 m 0,33.33333 -11.111108,0 0,-11.11111 11.111108,0 0,11.11111 m -33.333331,0 0,-11.11111 11.111112,0 0,11.11111 -11.111112,0 m 0,-33.33333 11.111112,0 0,11.11111 -11.111112,0 0,-11.11111 m 33.333331,99.99999 -11.111108,0 0,-11.11111 11.111108,0 0,11.11111 m -33.333331,0 0,-11.11111 11.111112,0 0,11.11111 -11.111112,0 m 0,-33.33333 11.111112,0 0,11.11111 -11.111112,0 0,-11.11111 m 33.333331,0 0,11.11111 -11.111108,0 0,-11.11111 11.111108,0 M 0,52.362183 l 11.11111,0 0,11.111111 -11.11111,0 0,-11.111111 m 33.333334,0 0,11.111111 -11.111111,0 0,-11.111111 11.111111,0 m 0,33.333333 -11.111111,0 0,-11.111111 11.111111,0 0,11.111111 m -33.333334,0 0,-11.111111 11.11111,0 0,11.111111 -11.11111,0 m 99.999998,-33.333333 0,11.111111 -11.111108,0 0,-11.111111 11.111108,0 m 0,33.333333 -11.111108,0 0,-11.111111 11.111108,0 0,11.111111 m -33.333331,0 0,-11.111111 11.111112,0 0,11.111111 -11.111112,0 m 0,-33.333333 11.111112,0 0,11.111111 -11.111112,0 0,-11.111111 m 33.333331,99.999997 -11.111108,0 0,-11.11111 11.111108,0 0,11.11111 m -33.333331,0 0,-11.11111 11.111112,0 0,11.11111 -11.111112,0 m 0,-33.33333 11.111112,0 0,11.11111 -11.111112,0 0,-11.11111 m 33.333331,0 0,11.11111 -11.111108,0 0,-11.11111 11.111108,0 M 0,152.36218 l 0,-11.11111 11.11111,0 0,11.11111 -11.11111,0 m 0,-33.33333 11.11111,0 0,11.11111 -11.11111,0 0,-11.11111 m 33.333334,0 0,11.11111 -11.111111,0 0,-11.11111 11.111111,0 m 0,33.33333 -11.111111,0 0,-11.11111 11.111111,0 0,11.11111 M 300,52.362183 l 0,11.111111 -11.11111,0 0,-11.111111 11.11111,0 m 0,33.333333 -11.11111,0 0,-11.111111 11.11111,0 0,11.111111 m -33.33333,0 0,-11.111111 11.11111,0 0,11.111111 -11.11111,0 m 0,-33.333333 11.11111,0 0,11.111111 -11.11111,0 0,-11.111111 M 300,152.36218 l -11.11111,0 0,-11.11111 11.11111,0 0,11.11111 m -33.33333,0 0,-11.11111 11.11111,0 0,11.11111 -11.11111,0 m 0,-33.33333 11.11111,0 0,11.11111 -11.11111,0 0,-11.11111 m 33.33333,0 0,11.11111 -11.11111,0 0,-11.11111 11.11111,0 m -99.99999,33.33333 0,-11.11111 11.11111,0 0,11.11111 -11.11111,0 m 0,-33.33333 11.11111,0 0,11.11111 -11.11111,0 0,-11.11111 m 33.33333,0 0,11.11111 -11.11111,0 0,-11.11111 11.11111,0 m 0,33.33333 -11.11111,0 0,-11.11111 11.11111,0 0,11.11111 m -33.33333,-99.999997 11.11111,0 0,11.111111 -11.11111,0 0,-11.111111 m 33.33333,0 0,11.111111 -11.11111,0 0,-11.111111 11.11111,0 m 0,33.333333 -11.11111,0 0,-11.111111 11.11111,0 0,11.111111 m -33.33333,0 0,-11.111111 11.11111,0 0,11.111111 -11.11111,0 M 300,352.36218 l -11.11111,0 0,-11.11111 11.11111,0 0,11.11111 m -33.33333,0 0,-11.11111 11.11111,0 0,11.11111 -11.11111,0 m 0,-33.33333 11.11111,0 0,11.11111 -11.11111,0 0,-11.11111 m 33.33333,0 0,11.11111 -11.11111,0 0,-11.11111 11.11111,0 m -99.99999,33.33333 0,-11.11111 11.11111,0 0,11.11111 -11.11111,0 m 0,-33.33333 11.11111,0 0,11.11111 -11.11111,0 0,-11.11111 m 33.33333,0 0,11.11111 -11.11111,0 0,-11.11111 11.11111,0 m 0,33.33333 -11.11111,0 0,-11.11111 11.11111,0 0,11.11111 m -33.33333,-99.99999 11.11111,0 0,11.11111 -11.11111,0 0,-11.11111 m 33.33333,0 0,11.11111 -11.11111,0 0,-11.11111 11.11111,0 m 0,33.33333 -11.11111,0 0,-11.11111 11.11111,0 0,11.11111 m -33.33333,0 0,-11.11111 11.11111,0 0,11.11111 -11.11111,0 M 300,252.36219 l 0,11.11111 -11.11111,0 0,-11.11111 11.11111,0 m 0,33.33333 -11.11111,0 0,-11.11111 11.11111,0 0,11.11111 m -33.33333,0 0,-11.11111 11.11111,0 0,11.11111 -11.11111,0 m 0,-33.33333 11.11111,0 0,11.11111 -11.11111,0 0,-11.11111"
       inkscape:connector-curvature="0" />
    <path
       d="m 0,352.36218 0,-3.7037 3.7037037,0 0,3.7037 -3.7037037,0 m 0,-11.11111 3.7037037,0 0,3.70371 -3.7037037,0 0,-3.70371 m 11.111111,0 0,3.70371 -3.7037037,0 0,-3.70371 3.7037037,0 m 0,11.11111 -3.7037037,0 0,-3.7037 3.7037037,0 0,3.7037 M 0,319.02885 l 3.7037037,0 0,3.70371 -3.7037037,0 0,-3.70371 m 11.111111,0 0,3.70371 -3.7037037,0 0,-3.70371 3.7037037,0 m 0,11.11111 -3.7037037,0 0,-3.7037 3.7037037,0 0,3.7037 m -11.111111,0 0,-3.7037 3.7037037,0 0,3.7037 -3.7037037,0 m 33.333334,-11.11111 0,3.70371 -3.703705,0 0,-3.70371 3.703705,0 m 0,11.11111 -3.703705,0 0,-3.7037 3.703705,0 0,3.7037 m -11.111112,0 0,-3.7037 3.703703,0 0,3.7037 -3.703703,0 m 0,-11.11111 3.703703,0 0,3.70371 -3.703703,0 0,-3.70371 m 11.111112,33.33333 -3.703705,0 0,-3.7037 3.703705,0 0,3.7037 m -11.111112,0 0,-3.7037 3.703703,0 0,3.7037 -3.703703,0 m 0,-11.11111 3.703703,0 0,3.70371 -3.703703,0 0,-3.70371 m 11.111112,0 0,3.70371 -3.703705,0 0,-3.70371 3.703705,0 M 0,252.36218 l 3.7037037,0 0,3.7037 -3.7037037,0 0,-3.7037 m 11.111111,0 0,3.7037 -3.7037037,0 0,-3.7037 3.7037037,0 m 0,11.11111 -3.7037037,0 0,-3.7037 3.7037037,0 0,3.7037 m -11.111111,0 0,-3.7037 3.7037037,0 0,3.7037 -3.7037037,0 m 33.333334,-11.11111 0,3.7037 -3.703705,0 0,-3.7037 3.703705,0 m 0,11.11111 -3.703705,0 0,-3.7037 3.703705,0 0,3.7037 m -11.111112,0 0,-3.7037 3.703703,0 0,3.7037 -3.703703,0 m 0,-11.11111 3.703703,0 0,3.7037 -3.703703,0 0,-3.7037 m 11.111112,33.33333 -3.703705,0 0,-3.7037 3.703705,0 0,3.7037 m -11.111112,0 0,-3.7037 3.703703,0 0,3.7037 -3.703703,0 m 0,-11.11111 3.703703,0 0,3.7037 -3.703703,0 0,-3.7037 m 11.111112,0 0,3.7037 -3.703705,0 0,-3.7037 3.703705,0 M 0,285.69551 l 0,-3.7037 3.7037037,0 0,3.7037 -3.7037037,0 m 0,-11.11111 3.7037037,0 0,3.7037 -3.7037037,0 0,-3.7037 m 11.111111,0 0,3.7037 -3.7037037,0 0,-3.7037 3.7037037,0 m 0,11.11111 -3.7037037,0 0,-3.7037 3.7037037,0 0,3.7037 M 100,252.36218 l 0,3.7037 -3.703705,0 0,-3.7037 3.703705,0 m 0,11.11111 -3.703705,0 0,-3.7037 3.703705,0 0,3.7037 m -11.111113,0 0,-3.7037 3.703704,0 0,3.7037 -3.703704,0 m 0,-11.11111 3.703704,0 0,3.7037 -3.703704,0 0,-3.7037 M 100,285.69551 l -3.703705,0 0,-3.7037 3.703705,0 0,3.7037 m -11.111113,0 0,-3.7037 3.703704,0 0,3.7037 -3.703704,0 m 0,-11.11111 3.703704,0 0,3.7037 -3.703704,0 0,-3.7037 m 11.111113,0 0,3.7037 -3.703705,0 0,-3.7037 3.703705,0 m -33.333334,11.11111 0,-3.7037 3.703704,0 0,3.7037 -3.703704,0 m 0,-11.11111 3.703704,0 0,3.7037 -3.703704,0 0,-3.7037 m 11.111111,0 0,3.7037 -3.703704,0 0,-3.7037 3.703704,0 m 0,11.11111 -3.703704,0 0,-3.7037 3.703704,0 0,3.7037 m -11.111111,-33.33333 3.703704,0 0,3.7037 -3.703704,0 0,-3.7037 m 11.111111,0 0,3.7037 -3.703704,0 0,-3.7037 3.703704,0 m 0,11.11111 -3.703704,0 0,-3.7037 3.703704,0 0,3.7037 m -11.111111,0 0,-3.7037 3.703704,0 0,3.7037 -3.703704,0 M 100,352.36218 l -3.703705,0 0,-3.7037 3.703705,0 0,3.7037 m -11.111113,0 0,-3.7037 3.703704,0 0,3.7037 -3.703704,0 m 0,-11.11111 3.703704,0 0,3.70371 -3.703704,0 0,-3.70371 m 11.111113,0 0,3.70371 -3.703705,0 0,-3.70371 3.703705,0 m -33.333334,11.11111 0,-3.7037 3.703704,0 0,3.7037 -3.703704,0 m 0,-11.11111 3.703704,0 0,3.70371 -3.703704,0 0,-3.70371 m 11.111111,0 0,3.70371 -3.703704,0 0,-3.70371 3.703704,0 m 0,11.11111 -3.703704,0 0,-3.7037 3.703704,0 0,3.7037 m -11.111111,-33.33333 3.703704,0 0,3.70371 -3.703704,0 0,-3.70371 m 11.111111,0 0,3.70371 -3.703704,0 0,-3.70371 3.703704,0 m 0,11.11111 -3.703704,0 0,-3.7037 3.703704,0 0,3.7037 m -11.111111,0 0,-3.7037 3.703704,0 0,3.7037 -3.703704,0 M 100,319.02885 l 0,3.70371 -3.703705,0 0,-3.70371 3.703705,0 m 0,11.11111 -3.703705,0 0,-3.7037 3.703705,0 0,3.7037 m -11.111113,0 0,-3.7037 3.703704,0 0,3.7037 -3.703704,0 m 0,-11.11111 3.703704,0 0,3.70371 -3.703704,0 0,-3.70371 M 0,52.362183 l 3.7037037,0 0,3.703703 -3.7037037,0 0,-3.703703 m 11.111111,0 0,3.703703 -3.7037037,0 0,-3.703703 3.7037037,0 m 0,11.11111 -3.7037037,0 0,-3.703703 3.7037037,0 0,3.703703 m -11.111111,0 0,-3.703703 3.7037037,0 0,3.703703 -3.7037037,0 m 33.333334,-11.11111 0,3.703703 -3.703705,0 0,-3.703703 3.703705,0 m 0,11.11111 -3.703705,0 0,-3.703703 3.703705,0 0,3.703703 m -11.111112,0 0,-3.703703 3.703703,0 0,3.703703 -3.703703,0 m 0,-11.11111 3.703703,0 0,3.703703 -3.703703,0 0,-3.703703 m 11.111112,33.333333 -3.703705,0 0,-3.703704 3.703705,0 0,3.703704 m -11.111112,0 0,-3.703704 3.703703,0 0,3.703704 -3.703703,0 m 0,-11.111111 3.703703,0 0,3.703703 -3.703703,0 0,-3.703703 m 11.111112,0 0,3.703703 -3.703705,0 0,-3.703703 3.703705,0 M 0,85.695516 l 0,-3.703704 3.7037037,0 0,3.703704 -3.7037037,0 m 0,-11.111111 3.7037037,0 0,3.703703 -3.7037037,0 0,-3.703703 m 11.111111,0 0,3.703703 -3.7037037,0 0,-3.703703 3.7037037,0 m 0,11.111111 -3.7037037,0 0,-3.703704 3.7037037,0 0,3.703704 M 100,52.362183 l 0,3.703703 -3.703705,0 0,-3.703703 3.703705,0 m 0,11.11111 -3.703705,0 0,-3.703703 3.703705,0 0,3.703703 m -11.111113,0 0,-3.703703 3.703704,0 0,3.703703 -3.703704,0 m 0,-11.11111 3.703704,0 0,3.703703 -3.703704,0 0,-3.703703 M 100,85.695516 l -3.703705,0 0,-3.703704 3.703705,0 0,3.703704 m -11.111113,0 0,-3.703704 3.703704,0 0,3.703704 -3.703704,0 m 0,-11.111111 3.703704,0 0,3.703703 -3.703704,0 0,-3.703703 m 11.111113,0 0,3.703703 -3.703705,0 0,-3.703703 3.703705,0 m -33.333334,11.111111 0,-3.703704 3.703704,0 0,3.703704 -3.703704,0 m 0,-11.111111 3.703704,0 0,3.703703 -3.703704,0 0,-3.703703 m 11.111111,0 0,3.703703 -3.703704,0 0,-3.703703 3.703704,0 m 0,11.111111 -3.703704,0 0,-3.703704 3.703704,0 0,3.703704 m -11.111111,-33.333333 3.703704,0 0,3.703703 -3.703704,0 0,-3.703703 m 11.111111,0 0,3.703703 -3.703704,0 0,-3.703703 3.703704,0 m 0,11.11111 -3.703704,0 0,-3.703703 3.703704,0 0,3.703703 m -11.111111,0 0,-3.703703 3.703704,0 0,3.703703 -3.703704,0 M 100,152.36218 l -3.703705,0 0,-3.7037 3.703705,0 0,3.7037 m -11.111113,0 0,-3.7037 3.703704,0 0,3.7037 -3.703704,0 m 0,-11.11111 3.703704,0 0,3.7037 -3.703704,0 0,-3.7037 m 11.111113,0 0,3.7037 -3.703705,0 0,-3.7037 3.703705,0 m -33.333334,11.11111 0,-3.7037 3.703704,0 0,3.7037 -3.703704,0 m 0,-11.11111 3.703704,0 0,3.7037 -3.703704,0 0,-3.7037 m 11.111111,0 0,3.7037 -3.703704,0 0,-3.7037 3.703704,0 m 0,11.11111 -3.703704,0 0,-3.7037 3.703704,0 0,3.7037 m -11.111111,-33.33333 3.703704,0 0,3.7037 -3.703704,0 0,-3.7037 m 11.111111,0 0,3.7037 -3.703704,0 0,-3.7037 3.703704,0 m 0,11.11111 -3.703704,0 0,-3.7037 3.703704,0 0,3.7037 m -11.111111,0 0,-3.7037 3.703704,0 0,3.7037 -3.703704,0 M 100,119.02885 l 0,3.7037 -3.703705,0 0,-3.7037 3.703705,0 m 0,11.11111 -3.703705,0 0,-3.7037 3.703705,0 0,3.7037 m -11.111113,0 0,-3.7037 3.703704,0 0,3.7037 -3.703704,0 m 0,-11.11111 3.703704,0 0,3.7037 -3.703704,0 0,-3.7037 M 0,152.36218 l 0,-3.7037 3.7037037,0 0,3.7037 -3.7037037,0 m 0,-11.11111 3.7037037,0 0,3.7037 -3.7037037,0 0,-3.7037 m 11.111111,0 0,3.7037 -3.7037037,0 0,-3.7037 3.7037037,0 m 0,11.11111 -3.7037037,0 0,-3.7037 3.7037037,0 0,3.7037 M 0,119.02885 l 3.7037037,0 0,3.7037 -3.7037037,0 0,-3.7037 m 11.111111,0 0,3.7037 -3.7037037,0 0,-3.7037 3.7037037,0 m 0,11.11111 -3.7037037,0 0,-3.7037 3.7037037,0 0,3.7037 m -11.111111,0 0,-3.7037 3.7037037,0 0,3.7037 -3.7037037,0 m 33.333334,-11.11111 0,3.7037 -3.703705,0 0,-3.7037 3.703705,0 m 0,11.11111 -3.703705,0 0,-3.7037 3.703705,0 0,3.7037 m -11.111112,0 0,-3.7037 3.703703,0 0,3.7037 -3.703703,0 m 0,-11.11111 3.703703,0 0,3.7037 -3.703703,0 0,-3.7037 m 11.111112,33.33333 -3.703705,0 0,-3.7037 3.703705,0 0,3.7037 m -11.111112,0 0,-3.7037 3.703703,0 0,3.7037 -3.703703,0 m 0,-11.11111 3.703703,0 0,3.7037 -3.703703,0 0,-3.7037 m 11.111112,0 0,3.7037 -3.703705,0 0,-3.7037 3.703705,0 M 300,52.362183 l 0,3.703703 -3.7037,0 0,-3.703703 3.7037,0 m 0,11.11111 -3.7037,0 0,-3.703703 3.7037,0 0,3.703703 m -11.11112,0 0,-3.703703 3.70372,0 0,3.703703 -3.70372,0 m 0,-11.11111 3.70372,0 0,3.703703 -3.70372,0 0,-3.703703 M 300,85.695516 l -3.7037,0 0,-3.703704 3.7037,0 0,3.703704 m -11.11112,0 0,-3.703704 3.70372,0 0,3.703704 -3.70372,0 m 0,-11.111111 3.70372,0 0,3.703703 -3.70372,0 0,-3.703703 m 11.11112,0 0,3.703703 -3.7037,0 0,-3.703703 3.7037,0 m -33.33334,11.111111 0,-3.703704 3.70372,0 0,3.703704 -3.70372,0 m 0,-11.111111 3.70372,0 0,3.703703 -3.70372,0 0,-3.703703 m 11.11112,0 0,3.703703 -3.7037,0 0,-3.703703 3.7037,0 m 0,11.111111 -3.7037,0 0,-3.703704 3.7037,0 0,3.703704 m -11.11112,-33.333333 3.70372,0 0,3.703703 -3.70372,0 0,-3.703703 m 11.11112,0 0,3.703703 -3.7037,0 0,-3.703703 3.7037,0 m 0,11.11111 -3.7037,0 0,-3.703703 3.7037,0 0,3.703703 m -11.11112,0 0,-3.703703 3.70372,0 0,3.703703 -3.70372,0 M 300,152.36218 l -3.7037,0 0,-3.7037 3.7037,0 0,3.7037 m -11.11112,0 0,-3.7037 3.70372,0 0,3.7037 -3.70372,0 m 0,-11.11111 3.70372,0 0,3.7037 -3.70372,0 0,-3.7037 m 11.11112,0 0,3.7037 -3.7037,0 0,-3.7037 3.7037,0 m -33.33334,11.11111 0,-3.7037 3.70372,0 0,3.7037 -3.70372,0 m 0,-11.11111 3.70372,0 0,3.7037 -3.70372,0 0,-3.7037 m 11.11112,0 0,3.7037 -3.7037,0 0,-3.7037 3.7037,0 m 0,11.11111 -3.7037,0 0,-3.7037 3.7037,0 0,3.7037 m -11.11112,-33.33333 3.70372,0 0,3.7037 -3.70372,0 0,-3.7037 m 11.11112,0 0,3.7037 -3.7037,0 0,-3.7037 3.7037,0 m 0,11.11111 -3.7037,0 0,-3.7037 3.7037,0 0,3.7037 m -11.11112,0 0,-3.7037 3.70372,0 0,3.7037 -3.70372,0 M 300,119.02885 l 0,3.7037 -3.7037,0 0,-3.7037 3.7037,0 m 0,11.11111 -3.7037,0 0,-3.7037 3.7037,0 0,3.7037 m -11.11112,0 0,-3.7037 3.70372,0 0,3.7037 -3.70372,0 m 0,-11.11111 3.70372,0 0,3.7037 -3.70372,0 0,-3.7037 m -88.88889,33.33333 0,-3.7037 3.70371,0 0,3.7037 -3.70371,0 m 0,-11.11111 3.70371,0 0,3.7037 -3.70371,0 0,-3.7037 m 11.11112,0 0,3.7037 -3.7037,0 0,-3.7037 3.7037,0 m 0,11.11111 -3.7037,0 0,-3.7037 3.7037,0 0,3.7037 m -11.11112,-33.33333 3.70371,0 0,3.7037 -3.70371,0 0,-3.7037 m 11.11112,0 0,3.7037 -3.7037,0 0,-3.7037 3.7037,0 m 0,11.11111 -3.7037,0 0,-3.7037 3.7037,0 0,3.7037 m -11.11112,0 0,-3.7037 3.70371,0 0,3.7037 -3.70371,0 m 33.33334,-11.11111 0,3.7037 -3.7037,0 0,-3.7037 3.7037,0 m 0,11.11111 -3.7037,0 0,-3.7037 3.7037,0 0,3.7037 m -11.11112,0 0,-3.7037 3.70371,0 0,3.7037 -3.70371,0 m 0,-11.11111 3.70371,0 0,3.7037 -3.70371,0 0,-3.7037 m 11.11112,33.33333 -3.7037,0 0,-3.7037 3.7037,0 0,3.7037 m -11.11112,0 0,-3.7037 3.70371,0 0,3.7037 -3.70371,0 m 0,-11.11111 3.70371,0 0,3.7037 -3.70371,0 0,-3.7037 m 11.11112,0 0,3.7037 -3.7037,0 0,-3.7037 3.7037,0 m -33.33334,-88.888887 3.70371,0 0,3.703703 -3.70371,0 0,-3.703703 m 11.11112,0 0,3.703703 -3.7037,0 0,-3.703703 3.7037,0 m 0,11.11111 -3.7037,0 0,-3.703703 3.7037,0 0,3.703703 m -11.11112,0 0,-3.703703 3.70371,0 0,3.703703 -3.70371,0 m 33.33334,-11.11111 0,3.703703 -3.7037,0 0,-3.703703 3.7037,0 m 0,11.11111 -3.7037,0 0,-3.703703 3.7037,0 0,3.703703 m -11.11112,0 0,-3.703703 3.70371,0 0,3.703703 -3.70371,0 m 0,-11.11111 3.70371,0 0,3.703703 -3.70371,0 0,-3.703703 m 11.11112,33.333333 -3.7037,0 0,-3.703704 3.7037,0 0,3.703704 m -11.11112,0 0,-3.703704 3.70371,0 0,3.703704 -3.70371,0 m 0,-11.111111 3.70371,0 0,3.703703 -3.70371,0 0,-3.703703 m 11.11112,0 0,3.703703 -3.7037,0 0,-3.703703 3.7037,0 m -33.33334,11.111111 0,-3.703704 3.70371,0 0,3.703704 -3.70371,0 m 0,-11.111111 3.70371,0 0,3.703703 -3.70371,0 0,-3.703703 m 11.11112,0 0,3.703703 -3.7037,0 0,-3.703703 3.7037,0 m 0,11.111111 -3.7037,0 0,-3.703704 3.7037,0 0,3.703704 M 300,352.36218 l -3.7037,0 0,-3.7037 3.7037,0 0,3.7037 m -11.11112,0 0,-3.7037 3.70372,0 0,3.7037 -3.70372,0 m 0,-11.11111 3.70372,0 0,3.70371 -3.70372,0 0,-3.70371 m 11.11112,0 0,3.70371 -3.7037,0 0,-3.70371 3.7037,0 m -33.33334,11.11111 0,-3.7037 3.70372,0 0,3.7037 -3.70372,0 m 0,-11.11111 3.70372,0 0,3.70371 -3.70372,0 0,-3.70371 m 11.11112,0 0,3.70371 -3.7037,0 0,-3.70371 3.7037,0 m 0,11.11111 -3.7037,0 0,-3.7037 3.7037,0 0,3.7037 m -11.11112,-33.33333 3.70372,0 0,3.70371 -3.70372,0 0,-3.70371 m 11.11112,0 0,3.70371 -3.7037,0 0,-3.70371 3.7037,0 m 0,11.11111 -3.7037,0 0,-3.7037 3.7037,0 0,3.7037 m -11.11112,0 0,-3.7037 3.70372,0 0,3.7037 -3.70372,0 M 300,319.02885 l 0,3.70371 -3.7037,0 0,-3.70371 3.7037,0 m 0,11.11111 -3.7037,0 0,-3.7037 3.7037,0 0,3.7037 m -11.11112,0 0,-3.7037 3.70372,0 0,3.7037 -3.70372,0 m 0,-11.11111 3.70372,0 0,3.70371 -3.70372,0 0,-3.70371 m -88.88889,33.33333 0,-3.7037 3.70371,0 0,3.7037 -3.70371,0 m 0,-11.11111 3.70371,0 0,3.70371 -3.70371,0 0,-3.70371 m 11.11112,0 0,3.70371 -3.7037,0 0,-3.70371 3.7037,0 m 0,11.11111 -3.7037,0 0,-3.7037 3.7037,0 0,3.7037 m -11.11112,-33.33333 3.70371,0 0,3.70371 -3.70371,0 0,-3.70371 m 11.11112,0 0,3.70371 -3.7037,0 0,-3.70371 3.7037,0 m 0,11.11111 -3.7037,0 0,-3.7037 3.7037,0 0,3.7037 m -11.11112,0 0,-3.7037 3.70371,0 0,3.7037 -3.70371,0 m 33.33334,-11.11111 0,3.70371 -3.7037,0 0,-3.70371 3.7037,0 m 0,11.11111 -3.7037,0 0,-3.7037 3.7037,0 0,3.7037 m -11.11112,0 0,-3.7037 3.70371,0 0,3.7037 -3.70371,0 m 0,-11.11111 3.70371,0 0,3.70371 -3.70371,0 0,-3.70371 m 11.11112,33.33333 -3.7037,0 0,-3.7037 3.7037,0 0,3.7037 m -11.11112,0 0,-3.7037 3.70371,0 0,3.7037 -3.70371,0 m 0,-11.11111 3.70371,0 0,3.70371 -3.70371,0 0,-3.70371 m 11.11112,0 0,3.70371 -3.7037,0 0,-3.70371 3.7037,0 m -33.33334,-88.88889 3.70371,0 0,3.7037 -3.70371,0 0,-3.7037 m 11.11112,0 0,3.7037 -3.7037,0 0,-3.7037 3.7037,0 m 0,11.11111 -3.7037,0 0,-3.7037 3.7037,0 0,3.7037 m -11.11112,0 0,-3.7037 3.70371,0 0,3.7037 -3.70371,0 m 33.33334,-11.11111 0,3.7037 -3.7037,0 0,-3.7037 3.7037,0 m 0,11.11111 -3.7037,0 0,-3.7037 3.7037,0 0,3.7037 m -11.11112,0 0,-3.7037 3.70371,0 0,3.7037 -3.70371,0 m 0,-11.11111 3.70371,0 0,3.7037 -3.70371,0 0,-3.7037 m 11.11112,33.33333 -3.7037,0 0,-3.7037 3.7037,0 0,3.7037 m -11.11112,0 0,-3.7037 3.70371,0 0,3.7037 -3.70371,0 m 0,-11.11111 3.70371,0 0,3.7037 -3.70371,0 0,-3.7037 m 11.11112,0 0,3.7037 -3.7037,0 0,-3.7037 3.7037,0 m -33.33334,11.11111 0,-3.7037 3.70371,0 0,3.7037 -3.70371,0 m 0,-11.11111 3.70371,0 0,3.7037 -3.70371,0 0,-3.7037 m 11.11112,0 0,3.7037 -3.7037,0 0,-3.7037 3.7037,0 m 0,11.11111 -3.7037,0 0,-3.7037 3.7037,0 0,3.7037 M 300,252.36218 l 0,3.7037 -3.7037,0 0,-3.7037 3.7037,0 m 0,11.11111 -3.7037,0 0,-3.7037 3.7037,0 0,3.7037 m -11.11112,0 0,-3.7037 3.70372,0 0,3.7037 -3.70372,0 m 0,-11.11111 3.70372,0 0,3.7037 -3.70372,0 0,-3.7037 M 300,285.69551 l -3.7037,0 0,-3.7037 3.7037,0 0,3.7037 m -11.11112,0 0,-3.7037 3.70372,0 0,3.7037 -3.70372,0 m 0,-11.11111 3.70372,0 0,3.7037 -3.70372,0 0,-3.7037 m 11.11112,0 0,3.7037 -3.7037,0 0,-3.7037 3.7037,0 m -33.33334,11.11111 0,-3.7037 3.70372,0 0,3.7037 -3.70372,0 m 0,-11.11111 3.70372,0 0,3.7037 -3.70372,0 0,-3.7037 m 11.11112,0 0,3.7037 -3.7037,0 0,-3.7037 3.7037,0 m 0,11.11111 -3.7037,0 0,-3.7037 3.7037,0 0,3.7037 m -11.11112,-33.33333 3.70372,0 0,3.7037 -3.70372,0 0,-3.7037 m 11.11112,0 0,3.7037 -3.7037,0 0,-3.7037 3.7037,0 m 0,11.11111 -3.7037,0 0,-3.7037 3.7037,0 0,3.7037 m -11.11112,0 0,-3.7037 3.70372,0 0,3.7037 -3.70372,0"
       style="fill:#b3b3b3;stroke:none;display:inline"
       id="path3299"
       inkscape:connector-curvature="0" />
  </g>
  <g
     inkscape:groupmode="layer"
     id="layer2"
     inkscape:label="vis"
     style="display:inline">
    <path
       transform="translate(12.626906,-39.735275)"
       id="path3319"
       style="fill:#000000;stroke:none;display:inline"
       d="m 0,352.36218 0,-1.23456 1.234568,0 0,1.23456 -1.234568,0 m 0,-3.7037 1.234568,0 0,1.23456 -1.234568,0 0,-1.23456 m 3.7037037,0 0,1.23456 -1.2345679,0 0,-1.23456 1.2345679,0 m 0,3.7037 -1.2345679,0 0,-1.23456 1.2345679,0 0,1.23456 M 0,341.25107 l 1.234568,0 0,1.23457 -1.234568,0 0,-1.23457 m 3.7037037,0 0,1.23457 -1.2345679,0 0,-1.23457 1.2345679,0 m 0,3.7037 -1.2345679,0 0,-1.23456 1.2345679,0 0,1.23456 m -3.7037037,0 0,-1.23456 1.234568,0 0,1.23456 -1.234568,0 m 11.111111,-3.7037 0,1.23457 -1.2345679,0 0,-1.23457 1.2345679,0 m 0,3.7037 -1.2345679,0 0,-1.23456 1.2345679,0 0,1.23456 m -3.7037036,0 0,-1.23456 1.2345678,0 0,1.23456 -1.2345678,0 m 0,-3.7037 1.2345678,0 0,1.23457 -1.2345678,0 0,-1.23457 m 3.7037036,11.11111 -1.2345679,0 0,-1.23456 1.2345679,0 0,1.23456 m -3.7037036,0 0,-1.23456 1.2345678,0 0,1.23456 -1.2345678,0 m 0,-3.7037 1.2345678,0 0,1.23456 -1.2345678,0 0,-1.23456 m 3.7037036,0 0,1.23456 -1.2345679,0 0,-1.23456 1.2345679,0 M 0,319.02885 l 1.234568,0 0,1.23456 -1.234568,0 0,-1.23456 m 3.7037037,0 0,1.23456 -1.2345679,0 0,-1.23456 1.2345679,0 m 0,3.7037 -1.2345679,0 0,-1.23457 1.2345679,0 0,1.23457 m -3.7037037,0 0,-1.23457 1.234568,0 0,1.23457 -1.234568,0 m 11.111111,-3.7037 0,1.23456 -1.2345679,0 0,-1.23456 1.2345679,0 m 0,3.7037 -1.2345679,0 0,-1.23457 1.2345679,0 0,1.23457 m -3.7037036,0 0,-1.23457 1.2345678,0 0,1.23457 -1.2345678,0 m 0,-3.7037 1.2345678,0 0,1.23456 -1.2345678,0 0,-1.23456 m 3.7037036,11.11111 -1.2345679,0 0,-1.23458 1.2345679,0 0,1.23458 m -3.7037036,0 0,-1.23458 1.2345678,0 0,1.23458 -1.2345678,0 m 0,-3.70371 1.2345678,0 0,1.23458 -1.2345678,0 0,-1.23458 m 3.7037036,0 0,1.23458 -1.2345679,0 0,-1.23458 1.2345679,0 M 0,330.13996 l 0,-1.23458 1.234568,0 0,1.23458 -1.234568,0 m 0,-3.70371 1.234568,0 0,1.23458 -1.234568,0 0,-1.23458 m 3.7037037,0 0,1.23458 -1.2345679,0 0,-1.23458 1.2345679,0 m 0,3.70371 -1.2345679,0 0,-1.23458 1.2345679,0 0,1.23458 m 29.6296303,-11.11111 0,1.23456 -1.234569,0 0,-1.23456 1.234569,0 m 0,3.7037 -1.234569,0 0,-1.23457 1.234569,0 0,1.23457 m -3.703704,0 0,-1.23457 1.234567,0 0,1.23457 -1.234567,0 m 0,-3.7037 1.234567,0 0,1.23456 -1.234567,0 0,-1.23456 m 3.703704,11.11111 -1.234569,0 0,-1.23458 1.234569,0 0,1.23458 m -3.703704,0 0,-1.23458 1.234567,0 0,1.23458 -1.234567,0 m 0,-3.70371 1.234567,0 0,1.23458 -1.234567,0 0,-1.23458 m 3.703704,0 0,1.23458 -1.234569,0 0,-1.23458 1.234569,0 m -11.111111,3.70371 0,-1.23458 1.234566,0 0,1.23458 -1.234566,0 m 0,-3.70371 1.234566,0 0,1.23458 -1.234566,0 0,-1.23458 m 3.703703,0 0,1.23458 -1.234568,0 0,-1.23458 1.234568,0 m 0,3.70371 -1.234568,0 0,-1.23458 1.234568,0 0,1.23458 m -3.703703,-11.11111 1.234566,0 0,1.23456 -1.234566,0 0,-1.23456 m 3.703703,0 0,1.23456 -1.234568,0 0,-1.23456 1.234568,0 m 0,3.7037 -1.234568,0 0,-1.23457 1.234568,0 0,1.23457 m -3.703703,0 0,-1.23457 1.234566,0 0,1.23457 -1.234566,0 m 11.111111,29.62963 -1.234569,0 0,-1.23456 1.234569,0 0,1.23456 m -3.703704,0 0,-1.23456 1.234567,0 0,1.23456 -1.234567,0 m 0,-3.7037 1.234567,0 0,1.23456 -1.234567,0 0,-1.23456 m 3.703704,0 0,1.23456 -1.234569,0 0,-1.23456 1.234569,0 m -11.111111,3.7037 0,-1.23456 1.234566,0 0,1.23456 -1.234566,0 m 0,-3.7037 1.234566,0 0,1.23456 -1.234566,0 0,-1.23456 m 3.703703,0 0,1.23456 -1.234568,0 0,-1.23456 1.234568,0 m 0,3.7037 -1.234568,0 0,-1.23456 1.234568,0 0,1.23456 m -3.703703,-11.11111 1.234566,0 0,1.23457 -1.234566,0 0,-1.23457 m 3.703703,0 0,1.23457 -1.234568,0 0,-1.23457 1.234568,0 m 0,3.7037 -1.234568,0 0,-1.23456 1.234568,0 0,1.23456 m -3.703703,0 0,-1.23456 1.234566,0 0,1.23456 -1.234566,0 m 11.111111,-3.7037 0,1.23457 -1.234569,0 0,-1.23457 1.234569,0 m 0,3.7037 -1.234569,0 0,-1.23456 1.234569,0 0,1.23456 m -3.703704,0 0,-1.23456 1.234567,0 0,1.23456 -1.234567,0 m 0,-3.7037 1.234567,0 0,1.23457 -1.234567,0 0,-1.23457 M 0,252.36218 l 1.234568,0 0,1.23457 -1.234568,0 0,-1.23457 m 3.7037037,0 0,1.23457 -1.2345679,0 0,-1.23457 1.2345679,0 m 0,3.70371 -1.2345679,0 0,-1.23458 1.2345679,0 0,1.23458 m -3.7037037,0 0,-1.23458 1.234568,0 0,1.23458 -1.234568,0 m 11.111111,-3.70371 0,1.23457 -1.2345679,0 0,-1.23457 1.2345679,0 m 0,3.70371 -1.2345679,0 0,-1.23458 1.2345679,0 0,1.23458 m -3.7037036,0 0,-1.23458 1.2345678,0 0,1.23458 -1.2345678,0 m 0,-3.70371 1.2345678,0 0,1.23457 -1.2345678,0 0,-1.23457 m 3.7037036,11.11111 -1.2345679,0 0,-1.23457 1.2345679,0 0,1.23457 m -3.7037036,0 0,-1.23457 1.2345678,0 0,1.23457 -1.2345678,0 m 0,-3.7037 1.2345678,0 0,1.23456 -1.2345678,0 0,-1.23456 m 3.7037036,0 0,1.23456 -1.2345679,0 0,-1.23456 1.2345679,0 M 0,263.47329 l 0,-1.23457 1.234568,0 0,1.23457 -1.234568,0 m 0,-3.7037 1.234568,0 0,1.23456 -1.234568,0 0,-1.23456 m 3.7037037,0 0,1.23456 -1.2345679,0 0,-1.23456 1.2345679,0 m 0,3.7037 -1.2345679,0 0,-1.23457 1.2345679,0 0,1.23457 m 29.6296303,-11.11111 0,1.23457 -1.234569,0 0,-1.23457 1.234569,0 m 0,3.70371 -1.234569,0 0,-1.23458 1.234569,0 0,1.23458 m -3.703704,0 0,-1.23458 1.234567,0 0,1.23458 -1.234567,0 m 0,-3.70371 1.234567,0 0,1.23457 -1.234567,0 0,-1.23457 m 3.703704,11.11111 -1.234569,0 0,-1.23457 1.234569,0 0,1.23457 m -3.703704,0 0,-1.23457 1.234567,0 0,1.23457 -1.234567,0 m 0,-3.7037 1.234567,0 0,1.23456 -1.234567,0 0,-1.23456 m 3.703704,0 0,1.23456 -1.234569,0 0,-1.23456 1.234569,0 m -11.111111,3.7037 0,-1.23457 1.234566,0 0,1.23457 -1.234566,0 m 0,-3.7037 1.234566,0 0,1.23456 -1.234566,0 0,-1.23456 m 3.703703,0 0,1.23456 -1.234568,0 0,-1.23456 1.234568,0 m 0,3.7037 -1.234568,0 0,-1.23457 1.234568,0 0,1.23457 m -3.703703,-11.11111 1.234566,0 0,1.23457 -1.234566,0 0,-1.23457 m 3.703703,0 0,1.23457 -1.234568,0 0,-1.23457 1.234568,0 m 0,3.70371 -1.234568,0 0,-1.23458 1.234568,0 0,1.23458 m -3.703703,0 0,-1.23458 1.234566,0 0,1.23458 -1.234566,0 m 11.111111,29.62962 -1.234569,0 0,-1.23456 1.234569,0 0,1.23456 m -3.703704,0 0,-1.23456 1.234567,0 0,1.23456 -1.234567,0 m 0,-3.7037 1.234567,0 0,1.23457 -1.234567,0 0,-1.23457 m 3.703704,0 0,1.23457 -1.234569,0 0,-1.23457 1.234569,0 m -11.111111,3.7037 0,-1.23456 1.234566,0 0,1.23456 -1.234566,0 m 0,-3.7037 1.234566,0 0,1.23457 -1.234566,0 0,-1.23457 m 3.703703,0 0,1.23457 -1.234568,0 0,-1.23457 1.234568,0 m 0,3.7037 -1.234568,0 0,-1.23456 1.234568,0 0,1.23456 m -3.703703,-11.1111 1.234566,0 0,1.23456 -1.234566,0 0,-1.23456 m 3.703703,0 0,1.23456 -1.234568,0 0,-1.23456 1.234568,0 m 0,3.70369 -1.234568,0 0,-1.23456 1.234568,0 0,1.23456 m -3.703703,0 0,-1.23456 1.234566,0 0,1.23456 -1.234566,0 m 11.111111,-3.70369 0,1.23456 -1.234569,0 0,-1.23456 1.234569,0 m 0,3.70369 -1.234569,0 0,-1.23456 1.234569,0 0,1.23456 m -3.703704,0 0,-1.23456 1.234567,0 0,1.23456 -1.234567,0 m 0,-3.70369 1.234567,0 0,1.23456 -1.234567,0 0,-1.23456 M 0,285.69551 l 0,-1.23456 1.234568,0 0,1.23456 -1.234568,0 m 0,-3.7037 1.234568,0 0,1.23457 -1.234568,0 0,-1.23457 m 3.7037037,0 0,1.23457 -1.2345679,0 0,-1.23457 1.2345679,0 m 0,3.7037 -1.2345679,0 0,-1.23456 1.2345679,0 0,1.23456 M 0,274.58441 l 1.234568,0 0,1.23456 -1.234568,0 0,-1.23456 m 3.7037037,0 0,1.23456 -1.2345679,0 0,-1.23456 1.2345679,0 m 0,3.70369 -1.2345679,0 0,-1.23456 1.2345679,0 0,1.23456 m -3.7037037,0 0,-1.23456 1.234568,0 0,1.23456 -1.234568,0 m 11.111111,-3.70369 0,1.23456 -1.2345679,0 0,-1.23456 1.2345679,0 m 0,3.70369 -1.2345679,0 0,-1.23456 1.2345679,0 0,1.23456 m -3.7037036,0 0,-1.23456 1.2345678,0 0,1.23456 -1.2345678,0 m 0,-3.70369 1.2345678,0 0,1.23456 -1.2345678,0 0,-1.23456 m 3.7037036,11.1111 -1.2345679,0 0,-1.23456 1.2345679,0 0,1.23456 m -3.7037036,0 0,-1.23456 1.2345678,0 0,1.23456 -1.2345678,0 m 0,-3.7037 1.2345678,0 0,1.23457 -1.2345678,0 0,-1.23457 m 3.7037036,0 0,1.23457 -1.2345679,0 0,-1.23457 1.2345679,0 M 100,252.36218 l 0,1.23457 -1.234569,0 0,-1.23457 1.234569,0 m 0,3.70371 -1.234569,0 0,-1.23458 1.234569,0 0,1.23458 m -3.703705,0 0,-1.23458 1.234568,0 0,1.23458 -1.234568,0 m 0,-3.70371 1.234568,0 0,1.23457 -1.234568,0 0,-1.23457 M 100,263.47329 l -1.234569,0 0,-1.23457 1.234569,0 0,1.23457 m -3.703705,0 0,-1.23457 1.234568,0 0,1.23457 -1.234568,0 m 0,-3.7037 1.234568,0 0,1.23456 -1.234568,0 0,-1.23456 m 3.703705,0 0,1.23456 -1.234569,0 0,-1.23456 1.234569,0 m -11.111112,3.7037 0,-1.23457 1.234567,0 0,1.23457 -1.234567,0 m 0,-3.7037 1.234567,0 0,1.23456 -1.234567,0 0,-1.23456 m 3.703703,0 0,1.23456 -1.234567,0 0,-1.23456 1.234567,0 m 0,3.7037 -1.234567,0 0,-1.23457 1.234567,0 0,1.23457 m -3.703703,-11.11111 1.234567,0 0,1.23457 -1.234567,0 0,-1.23457 m 3.703703,0 0,1.23457 -1.234567,0 0,-1.23457 1.234567,0 m 0,3.70371 -1.234567,0 0,-1.23458 1.234567,0 0,1.23458 m -3.703703,0 0,-1.23458 1.234567,0 0,1.23458 -1.234567,0 M 100,285.69551 l -1.234569,0 0,-1.23456 1.234569,0 0,1.23456 m -3.703705,0 0,-1.23456 1.234568,0 0,1.23456 -1.234568,0 m 0,-3.7037 1.234568,0 0,1.23457 -1.234568,0 0,-1.23457 m 3.703705,0 0,1.23457 -1.234569,0 0,-1.23457 1.234569,0 m -11.111112,3.7037 0,-1.23456 1.234567,0 0,1.23456 -1.234567,0 m 0,-3.7037 1.234567,0 0,1.23457 -1.234567,0 0,-1.23457 m 3.703703,0 0,1.23457 -1.234567,0 0,-1.23457 1.234567,0 m 0,3.7037 -1.234567,0 0,-1.23456 1.234567,0 0,1.23456 m -3.703703,-11.1111 1.234567,0 0,1.23456 -1.234567,0 0,-1.23456 m 3.703703,0 0,1.23456 -1.234567,0 0,-1.23456 1.234567,0 m 0,3.70369 -1.234567,0 0,-1.23456 1.234567,0 0,1.23456 m -3.703703,0 0,-1.23456 1.234567,0 0,1.23456 -1.234567,0 M 100,274.58441 l 0,1.23456 -1.234569,0 0,-1.23456 1.234569,0 m 0,3.70369 -1.234569,0 0,-1.23456 1.234569,0 0,1.23456 m -3.703705,0 0,-1.23456 1.234568,0 0,1.23456 -1.234568,0 m 0,-3.70369 1.234568,0 0,1.23456 -1.234568,0 0,-1.23456 m -29.629629,11.1111 0,-1.23456 1.234568,0 0,1.23456 -1.234568,0 m 0,-3.7037 1.234568,0 0,1.23457 -1.234568,0 0,-1.23457 m 3.703704,0 0,1.23457 -1.234569,0 0,-1.23457 1.234569,0 m 0,3.7037 -1.234569,0 0,-1.23456 1.234569,0 0,1.23456 m -3.703704,-11.1111 1.234568,0 0,1.23456 -1.234568,0 0,-1.23456 m 3.703704,0 0,1.23456 -1.234569,0 0,-1.23456 1.234569,0 m 0,3.70369 -1.234569,0 0,-1.23456 1.234569,0 0,1.23456 m -3.703704,0 0,-1.23456 1.234568,0 0,1.23456 -1.234568,0 m 11.111111,-3.70369 0,1.23456 -1.234568,0 0,-1.23456 1.234568,0 m 0,3.70369 -1.234568,0 0,-1.23456 1.234568,0 0,1.23456 m -3.703703,0 0,-1.23456 1.234567,0 0,1.23456 -1.234567,0 m 0,-3.70369 1.234567,0 0,1.23456 -1.234567,0 0,-1.23456 m 3.703703,11.1111 -1.234568,0 0,-1.23456 1.234568,0 0,1.23456 m -3.703703,0 0,-1.23456 1.234567,0 0,1.23456 -1.234567,0 m 0,-3.7037 1.234567,0 0,1.23457 -1.234567,0 0,-1.23457 m 3.703703,0 0,1.23457 -1.234568,0 0,-1.23457 1.234568,0 m -11.111111,-29.62963 1.234568,0 0,1.23457 -1.234568,0 0,-1.23457 m 3.703704,0 0,1.23457 -1.234569,0 0,-1.23457 1.234569,0 m 0,3.70371 -1.234569,0 0,-1.23458 1.234569,0 0,1.23458 m -3.703704,0 0,-1.23458 1.234568,0 0,1.23458 -1.234568,0 m 11.111111,-3.70371 0,1.23457 -1.234568,0 0,-1.23457 1.234568,0 m 0,3.70371 -1.234568,0 0,-1.23458 1.234568,0 0,1.23458 m -3.703703,0 0,-1.23458 1.234567,0 0,1.23458 -1.234567,0 m 0,-3.70371 1.234567,0 0,1.23457 -1.234567,0 0,-1.23457 m 3.703703,11.11111 -1.234568,0 0,-1.23457 1.234568,0 0,1.23457 m -3.703703,0 0,-1.23457 1.234567,0 0,1.23457 -1.234567,0 m 0,-3.7037 1.234567,0 0,1.23456 -1.234567,0 0,-1.23456 m 3.703703,0 0,1.23456 -1.234568,0 0,-1.23456 1.234568,0 m -11.111111,3.7037 0,-1.23457 1.234568,0 0,1.23457 -1.234568,0 m 0,-3.7037 1.234568,0 0,1.23456 -1.234568,0 0,-1.23456 m 3.703704,0 0,1.23456 -1.234569,0 0,-1.23456 1.234569,0 m 0,3.7037 -1.234569,0 0,-1.23457 1.234569,0 0,1.23457 M 100,352.36218 l -1.234569,0 0,-1.23456 1.234569,0 0,1.23456 m -3.703705,0 0,-1.23456 1.234568,0 0,1.23456 -1.234568,0 m 0,-3.7037 1.234568,0 0,1.23456 -1.234568,0 0,-1.23456 m 3.703705,0 0,1.23456 -1.234569,0 0,-1.23456 1.234569,0 m -11.111112,3.7037 0,-1.23456 1.234567,0 0,1.23456 -1.234567,0 m 0,-3.7037 1.234567,0 0,1.23456 -1.234567,0 0,-1.23456 m 3.703703,0 0,1.23456 -1.234567,0 0,-1.23456 1.234567,0 m 0,3.7037 -1.234567,0 0,-1.23456 1.234567,0 0,1.23456 m -3.703703,-11.11111 1.234567,0 0,1.23457 -1.234567,0 0,-1.23457 m 3.703703,0 0,1.23457 -1.234567,0 0,-1.23457 1.234567,0 m 0,3.7037 -1.234567,0 0,-1.23456 1.234567,0 0,1.23456 m -3.703703,0 0,-1.23456 1.234567,0 0,1.23456 -1.234567,0 M 100,341.25107 l 0,1.23457 -1.234569,0 0,-1.23457 1.234569,0 m 0,3.7037 -1.234569,0 0,-1.23456 1.234569,0 0,1.23456 m -3.703705,0 0,-1.23456 1.234568,0 0,1.23456 -1.234568,0 m 0,-3.7037 1.234568,0 0,1.23457 -1.234568,0 0,-1.23457 m -29.629629,11.11111 0,-1.23456 1.234568,0 0,1.23456 -1.234568,0 m 0,-3.7037 1.234568,0 0,1.23456 -1.234568,0 0,-1.23456 m 3.703704,0 0,1.23456 -1.234569,0 0,-1.23456 1.234569,0 m 0,3.7037 -1.234569,0 0,-1.23456 1.234569,0 0,1.23456 m -3.703704,-11.11111 1.234568,0 0,1.23457 -1.234568,0 0,-1.23457 m 3.703704,0 0,1.23457 -1.234569,0 0,-1.23457 1.234569,0 m 0,3.7037 -1.234569,0 0,-1.23456 1.234569,0 0,1.23456 m -3.703704,0 0,-1.23456 1.234568,0 0,1.23456 -1.234568,0 m 11.111111,-3.7037 0,1.23457 -1.234568,0 0,-1.23457 1.234568,0 m 0,3.7037 -1.234568,0 0,-1.23456 1.234568,0 0,1.23456 m -3.703703,0 0,-1.23456 1.234567,0 0,1.23456 -1.234567,0 m 0,-3.7037 1.234567,0 0,1.23457 -1.234567,0 0,-1.23457 m 3.703703,11.11111 -1.234568,0 0,-1.23456 1.234568,0 0,1.23456 m -3.703703,0 0,-1.23456 1.234567,0 0,1.23456 -1.234567,0 m 0,-3.7037 1.234567,0 0,1.23456 -1.234567,0 0,-1.23456 m 3.703703,0 0,1.23456 -1.234568,0 0,-1.23456 1.234568,0 m -11.111111,-29.62963 1.234568,0 0,1.23456 -1.234568,0 0,-1.23456 m 3.703704,0 0,1.23456 -1.234569,0 0,-1.23456 1.234569,0 m 0,3.7037 -1.234569,0 0,-1.23457 1.234569,0 0,1.23457 m -3.703704,0 0,-1.23457 1.234568,0 0,1.23457 -1.234568,0 m 11.111111,-3.7037 0,1.23456 -1.234568,0 0,-1.23456 1.234568,0 m 0,3.7037 -1.234568,0 0,-1.23457 1.234568,0 0,1.23457 m -3.703703,0 0,-1.23457 1.234567,0 0,1.23457 -1.234567,0 m 0,-3.7037 1.234567,0 0,1.23456 -1.234567,0 0,-1.23456 m 3.703703,11.11111 -1.234568,0 0,-1.23458 1.234568,0 0,1.23458 m -3.703703,0 0,-1.23458 1.234567,0 0,1.23458 -1.234567,0 m 0,-3.70371 1.234567,0 0,1.23458 -1.234567,0 0,-1.23458 m 3.703703,0 0,1.23458 -1.234568,0 0,-1.23458 1.234568,0 m -11.111111,3.70371 0,-1.23458 1.234568,0 0,1.23458 -1.234568,0 m 0,-3.70371 1.234568,0 0,1.23458 -1.234568,0 0,-1.23458 m 3.703704,0 0,1.23458 -1.234569,0 0,-1.23458 1.234569,0 m 0,3.70371 -1.234569,0 0,-1.23458 1.234569,0 0,1.23458 M 100,319.02885 l 0,1.23456 -1.234569,0 0,-1.23456 1.234569,0 m 0,3.7037 -1.234569,0 0,-1.23457 1.234569,0 0,1.23457 m -3.703705,0 0,-1.23457 1.234568,0 0,1.23457 -1.234568,0 m 0,-3.7037 1.234568,0 0,1.23456 -1.234568,0 0,-1.23456 M 100,330.13996 l -1.234569,0 0,-1.23458 1.234569,0 0,1.23458 m -3.703705,0 0,-1.23458 1.234568,0 0,1.23458 -1.234568,0 m 0,-3.70371 1.234568,0 0,1.23458 -1.234568,0 0,-1.23458 m 3.703705,0 0,1.23458 -1.234569,0 0,-1.23458 1.234569,0 m -11.111112,3.70371 0,-1.23458 1.234567,0 0,1.23458 -1.234567,0 m 0,-3.70371 1.234567,0 0,1.23458 -1.234567,0 0,-1.23458 m 3.703703,0 0,1.23458 -1.234567,0 0,-1.23458 1.234567,0 m 0,3.70371 -1.234567,0 0,-1.23458 1.234567,0 0,1.23458 m -3.703703,-11.11111 1.234567,0 0,1.23456 -1.234567,0 0,-1.23456 m 3.703703,0 0,1.23456 -1.234567,0 0,-1.23456 1.234567,0 m 0,3.7037 -1.234567,0 0,-1.23457 1.234567,0 0,1.23457 m -3.703703,0 0,-1.23457 1.234567,0 0,1.23457 -1.234567,0 M 0,52.362183 l 1.234568,0 0,1.234567 -1.234568,0 0,-1.234567 m 3.7037037,0 0,1.234567 -1.2345679,0 0,-1.234567 1.2345679,0 m 0,3.703704 -1.2345679,0 0,-1.234569 1.2345679,0 0,1.234569 m -3.7037037,0 0,-1.234569 1.234568,0 0,1.234569 -1.234568,0 m 11.111111,-3.703704 0,1.234567 -1.2345679,0 0,-1.234567 1.2345679,0 m 0,3.703704 -1.2345679,0 0,-1.234569 1.2345679,0 0,1.234569 m -3.7037036,0 0,-1.234569 1.2345678,0 0,1.234569 -1.2345678,0 m 0,-3.703704 1.2345678,0 0,1.234567 -1.2345678,0 0,-1.234567 m 3.7037036,11.111111 -1.2345679,0 0,-1.234569 1.2345679,0 0,1.234569 m -3.7037036,0 0,-1.234569 1.2345678,0 0,1.234569 -1.2345678,0 m 0,-3.703704 1.2345678,0 0,1.234568 -1.2345678,0 0,-1.234568 m 3.7037036,0 0,1.234568 -1.2345679,0 0,-1.234568 1.2345679,0 M 0,63.473294 l 0,-1.234569 1.234568,0 0,1.234569 -1.234568,0 m 0,-3.703704 1.234568,0 0,1.234568 -1.234568,0 0,-1.234568 m 3.7037037,0 0,1.234568 -1.2345679,0 0,-1.234568 1.2345679,0 m 0,3.703704 -1.2345679,0 0,-1.234569 1.2345679,0 0,1.234569 m 29.6296303,-11.111111 0,1.234567 -1.234569,0 0,-1.234567 1.234569,0 m 0,3.703704 -1.234569,0 0,-1.234569 1.234569,0 0,1.234569 m -3.703704,0 0,-1.234569 1.234567,0 0,1.234569 -1.234567,0 m 0,-3.703704 1.234567,0 0,1.234567 -1.234567,0 0,-1.234567 m 3.703704,11.111111 -1.234569,0 0,-1.234569 1.234569,0 0,1.234569 m -3.703704,0 0,-1.234569 1.234567,0 0,1.234569 -1.234567,0 m 0,-3.703704 1.234567,0 0,1.234568 -1.234567,0 0,-1.234568 m 3.703704,0 0,1.234568 -1.234569,0 0,-1.234568 1.234569,0 m -11.111111,3.703704 0,-1.234569 1.234566,0 0,1.234569 -1.234566,0 m 0,-3.703704 1.234566,0 0,1.234568 -1.234566,0 0,-1.234568 m 3.703703,0 0,1.234568 -1.234568,0 0,-1.234568 1.234568,0 m 0,3.703704 -1.234568,0 0,-1.234569 1.234568,0 0,1.234569 m -3.703703,-11.111111 1.234566,0 0,1.234567 -1.234566,0 0,-1.234567 m 3.703703,0 0,1.234567 -1.234568,0 0,-1.234567 1.234568,0 m 0,3.703704 -1.234568,0 0,-1.234569 1.234568,0 0,1.234569 m -3.703703,0 0,-1.234569 1.234566,0 0,1.234569 -1.234566,0 m 11.111111,29.629629 -1.234569,0 0,-1.234568 1.234569,0 0,1.234568 m -3.703704,0 0,-1.234568 1.234567,0 0,1.234568 -1.234567,0 m 0,-3.703703 1.234567,0 0,1.234567 -1.234567,0 0,-1.234567 m 3.703704,0 0,1.234567 -1.234569,0 0,-1.234567 1.234569,0 m -11.111111,3.703703 0,-1.234568 1.234566,0 0,1.234568 -1.234566,0 m 0,-3.703703 1.234566,0 0,1.234567 -1.234566,0 0,-1.234567 m 3.703703,0 0,1.234567 -1.234568,0 0,-1.234567 1.234568,0 m 0,3.703703 -1.234568,0 0,-1.234568 1.234568,0 0,1.234568 m -3.703703,-11.111111 1.234566,0 0,1.234568 -1.234566,0 0,-1.234568 m 3.703703,0 0,1.234568 -1.234568,0 0,-1.234568 1.234568,0 m 0,3.703704 -1.234568,0 0,-1.234569 1.234568,0 0,1.234569 m -3.703703,0 0,-1.234569 1.234566,0 0,1.234569 -1.234566,0 m 11.111111,-3.703704 0,1.234568 -1.234569,0 0,-1.234568 1.234569,0 m 0,3.703704 -1.234569,0 0,-1.234569 1.234569,0 0,1.234569 m -3.703704,0 0,-1.234569 1.234567,0 0,1.234569 -1.234567,0 m 0,-3.703704 1.234567,0 0,1.234568 -1.234567,0 0,-1.234568 M 0,85.695516 l 0,-1.234568 1.234568,0 0,1.234568 -1.234568,0 m 0,-3.703703 1.234568,0 0,1.234567 -1.234568,0 0,-1.234567 m 3.7037037,0 0,1.234567 -1.2345679,0 0,-1.234567 1.2345679,0 m 0,3.703703 -1.2345679,0 0,-1.234568 1.2345679,0 0,1.234568 M 0,74.584405 l 1.234568,0 0,1.234568 -1.234568,0 0,-1.234568 m 3.7037037,0 0,1.234568 -1.2345679,0 0,-1.234568 1.2345679,0 m 0,3.703704 -1.2345679,0 0,-1.234569 1.2345679,0 0,1.234569 m -3.7037037,0 0,-1.234569 1.234568,0 0,1.234569 -1.234568,0 m 11.111111,-3.703704 0,1.234568 -1.2345679,0 0,-1.234568 1.2345679,0 m 0,3.703704 -1.2345679,0 0,-1.234569 1.2345679,0 0,1.234569 m -3.7037036,0 0,-1.234569 1.2345678,0 0,1.234569 -1.2345678,0 m 0,-3.703704 1.2345678,0 0,1.234568 -1.2345678,0 0,-1.234568 m 3.7037036,11.111111 -1.2345679,0 0,-1.234568 1.2345679,0 0,1.234568 m -3.7037036,0 0,-1.234568 1.2345678,0 0,1.234568 -1.2345678,0 m 0,-3.703703 1.2345678,0 0,1.234567 -1.2345678,0 0,-1.234567 m 3.7037036,0 0,1.234567 -1.2345679,0 0,-1.234567 1.2345679,0 M 100,52.362183 l 0,1.234567 -1.234569,0 0,-1.234567 1.234569,0 m 0,3.703704 -1.234569,0 0,-1.234569 1.234569,0 0,1.234569 m -3.703705,0 0,-1.234569 1.234568,0 0,1.234569 -1.234568,0 m 0,-3.703704 1.234568,0 0,1.234567 -1.234568,0 0,-1.234567 M 100,63.473294 l -1.234569,0 0,-1.234569 1.234569,0 0,1.234569 m -3.703705,0 0,-1.234569 1.234568,0 0,1.234569 -1.234568,0 m 0,-3.703704 1.234568,0 0,1.234568 -1.234568,0 0,-1.234568 m 3.703705,0 0,1.234568 -1.234569,0 0,-1.234568 1.234569,0 m -11.111112,3.703704 0,-1.234569 1.234567,0 0,1.234569 -1.234567,0 m 0,-3.703704 1.234567,0 0,1.234568 -1.234567,0 0,-1.234568 m 3.703703,0 0,1.234568 -1.234567,0 0,-1.234568 1.234567,0 m 0,3.703704 -1.234567,0 0,-1.234569 1.234567,0 0,1.234569 m -3.703703,-11.111111 1.234567,0 0,1.234567 -1.234567,0 0,-1.234567 m 3.703703,0 0,1.234567 -1.234567,0 0,-1.234567 1.234567,0 m 0,3.703704 -1.234567,0 0,-1.234569 1.234567,0 0,1.234569 m -3.703703,0 0,-1.234569 1.234567,0 0,1.234569 -1.234567,0 M 100,85.695516 l -1.234569,0 0,-1.234568 1.234569,0 0,1.234568 m -3.703705,0 0,-1.234568 1.234568,0 0,1.234568 -1.234568,0 m 0,-3.703703 1.234568,0 0,1.234567 -1.234568,0 0,-1.234567 m 3.703705,0 0,1.234567 -1.234569,0 0,-1.234567 1.234569,0 m -11.111112,3.703703 0,-1.234568 1.234567,0 0,1.234568 -1.234567,0 m 0,-3.703703 1.234567,0 0,1.234567 -1.234567,0 0,-1.234567 m 3.703703,0 0,1.234567 -1.234567,0 0,-1.234567 1.234567,0 m 0,3.703703 -1.234567,0 0,-1.234568 1.234567,0 0,1.234568 m -3.703703,-11.111111 1.234567,0 0,1.234568 -1.234567,0 0,-1.234568 m 3.703703,0 0,1.234568 -1.234567,0 0,-1.234568 1.234567,0 m 0,3.703704 -1.234567,0 0,-1.234569 1.234567,0 0,1.234569 m -3.703703,0 0,-1.234569 1.234567,0 0,1.234569 -1.234567,0 M 100,74.584405 l 0,1.234568 -1.234569,0 0,-1.234568 1.234569,0 m 0,3.703704 -1.234569,0 0,-1.234569 1.234569,0 0,1.234569 m -3.703705,0 0,-1.234569 1.234568,0 0,1.234569 -1.234568,0 m 0,-3.703704 1.234568,0 0,1.234568 -1.234568,0 0,-1.234568 m -29.629629,11.111111 0,-1.234568 1.234568,0 0,1.234568 -1.234568,0 m 0,-3.703703 1.234568,0 0,1.234567 -1.234568,0 0,-1.234567 m 3.703704,0 0,1.234567 -1.234569,0 0,-1.234567 1.234569,0 m 0,3.703703 -1.234569,0 0,-1.234568 1.234569,0 0,1.234568 m -3.703704,-11.111111 1.234568,0 0,1.234568 -1.234568,0 0,-1.234568 m 3.703704,0 0,1.234568 -1.234569,0 0,-1.234568 1.234569,0 m 0,3.703704 -1.234569,0 0,-1.234569 1.234569,0 0,1.234569 m -3.703704,0 0,-1.234569 1.234568,0 0,1.234569 -1.234568,0 m 11.111111,-3.703704 0,1.234568 -1.234568,0 0,-1.234568 1.234568,0 m 0,3.703704 -1.234568,0 0,-1.234569 1.234568,0 0,1.234569 m -3.703703,0 0,-1.234569 1.234567,0 0,1.234569 -1.234567,0 m 0,-3.703704 1.234567,0 0,1.234568 -1.234567,0 0,-1.234568 m 3.703703,11.111111 -1.234568,0 0,-1.234568 1.234568,0 0,1.234568 m -3.703703,0 0,-1.234568 1.234567,0 0,1.234568 -1.234567,0 m 0,-3.703703 1.234567,0 0,1.234567 -1.234567,0 0,-1.234567 m 3.703703,0 0,1.234567 -1.234568,0 0,-1.234567 1.234568,0 m -11.111111,-29.62963 1.234568,0 0,1.234567 -1.234568,0 0,-1.234567 m 3.703704,0 0,1.234567 -1.234569,0 0,-1.234567 1.234569,0 m 0,3.703704 -1.234569,0 0,-1.234569 1.234569,0 0,1.234569 m -3.703704,0 0,-1.234569 1.234568,0 0,1.234569 -1.234568,0 m 11.111111,-3.703704 0,1.234567 -1.234568,0 0,-1.234567 1.234568,0 m 0,3.703704 -1.234568,0 0,-1.234569 1.234568,0 0,1.234569 m -3.703703,0 0,-1.234569 1.234567,0 0,1.234569 -1.234567,0 m 0,-3.703704 1.234567,0 0,1.234567 -1.234567,0 0,-1.234567 m 3.703703,11.111111 -1.234568,0 0,-1.234569 1.234568,0 0,1.234569 m -3.703703,0 0,-1.234569 1.234567,0 0,1.234569 -1.234567,0 m 0,-3.703704 1.234567,0 0,1.234568 -1.234567,0 0,-1.234568 m 3.703703,0 0,1.234568 -1.234568,0 0,-1.234568 1.234568,0 m -11.111111,3.703704 0,-1.234569 1.234568,0 0,1.234569 -1.234568,0 m 0,-3.703704 1.234568,0 0,1.234568 -1.234568,0 0,-1.234568 m 3.703704,0 0,1.234568 -1.234569,0 0,-1.234568 1.234569,0 m 0,3.703704 -1.234569,0 0,-1.234569 1.234569,0 0,1.234569 M 100,152.36218 l -1.234569,0 0,-1.23457 1.234569,0 0,1.23457 m -3.703705,0 0,-1.23457 1.234568,0 0,1.23457 -1.234568,0 m 0,-3.70371 1.234568,0 0,1.23458 -1.234568,0 0,-1.23458 m 3.703705,0 0,1.23458 -1.234569,0 0,-1.23458 1.234569,0 m -11.111112,3.70371 0,-1.23457 1.234567,0 0,1.23457 -1.234567,0 m 0,-3.70371 1.234567,0 0,1.23458 -1.234567,0 0,-1.23458 m 3.703703,0 0,1.23458 -1.234567,0 0,-1.23458 1.234567,0 m 0,3.70371 -1.234567,0 0,-1.23457 1.234567,0 0,1.23457 m -3.703703,-11.11111 1.234567,0 0,1.23457 -1.234567,0 0,-1.23457 m 3.703703,0 0,1.23457 -1.234567,0 0,-1.23457 1.234567,0 m 0,3.70371 -1.234567,0 0,-1.23458 1.234567,0 0,1.23458 m -3.703703,0 0,-1.23458 1.234567,0 0,1.23458 -1.234567,0 M 100,141.25107 l 0,1.23457 -1.234569,0 0,-1.23457 1.234569,0 m 0,3.70371 -1.234569,0 0,-1.23458 1.234569,0 0,1.23458 m -3.703705,0 0,-1.23458 1.234568,0 0,1.23458 -1.234568,0 m 0,-3.70371 1.234568,0 0,1.23457 -1.234568,0 0,-1.23457 m -29.629629,11.11111 0,-1.23457 1.234568,0 0,1.23457 -1.234568,0 m 0,-3.70371 1.234568,0 0,1.23458 -1.234568,0 0,-1.23458 m 3.703704,0 0,1.23458 -1.234569,0 0,-1.23458 1.234569,0 m 0,3.70371 -1.234569,0 0,-1.23457 1.234569,0 0,1.23457 m -3.703704,-11.11111 1.234568,0 0,1.23457 -1.234568,0 0,-1.23457 m 3.703704,0 0,1.23457 -1.234569,0 0,-1.23457 1.234569,0 m 0,3.70371 -1.234569,0 0,-1.23458 1.234569,0 0,1.23458 m -3.703704,0 0,-1.23458 1.234568,0 0,1.23458 -1.234568,0 m 11.111111,-3.70371 0,1.23457 -1.234568,0 0,-1.23457 1.234568,0 m 0,3.70371 -1.234568,0 0,-1.23458 1.234568,0 0,1.23458 m -3.703703,0 0,-1.23458 1.234567,0 0,1.23458 -1.234567,0 m 0,-3.70371 1.234567,0 0,1.23457 -1.234567,0 0,-1.23457 m 3.703703,11.11111 -1.234568,0 0,-1.23457 1.234568,0 0,1.23457 m -3.703703,0 0,-1.23457 1.234567,0 0,1.23457 -1.234567,0 m 0,-3.70371 1.234567,0 0,1.23458 -1.234567,0 0,-1.23458 m 3.703703,0 0,1.23458 -1.234568,0 0,-1.23458 1.234568,0 m -11.111111,-29.62962 1.234568,0 0,1.23457 -1.234568,0 0,-1.23457 m 3.703704,0 0,1.23457 -1.234569,0 0,-1.23457 1.234569,0 m 0,3.7037 -1.234569,0 0,-1.23456 1.234569,0 0,1.23456 m -3.703704,0 0,-1.23456 1.234568,0 0,1.23456 -1.234568,0 m 11.111111,-3.7037 0,1.23457 -1.234568,0 0,-1.23457 1.234568,0 m 0,3.7037 -1.234568,0 0,-1.23456 1.234568,0 0,1.23456 m -3.703703,0 0,-1.23456 1.234567,0 0,1.23456 -1.234567,0 m 0,-3.7037 1.234567,0 0,1.23457 -1.234567,0 0,-1.23457 m 3.703703,11.11111 -1.234568,0 0,-1.23456 1.234568,0 0,1.23456 m -3.703703,0 0,-1.23456 1.234567,0 0,1.23456 -1.234567,0 m 0,-3.7037 1.234567,0 0,1.23456 -1.234567,0 0,-1.23456 m 3.703703,0 0,1.23456 -1.234568,0 0,-1.23456 1.234568,0 m -11.111111,3.7037 0,-1.23456 1.234568,0 0,1.23456 -1.234568,0 m 0,-3.7037 1.234568,0 0,1.23456 -1.234568,0 0,-1.23456 m 3.703704,0 0,1.23456 -1.234569,0 0,-1.23456 1.234569,0 m 0,3.7037 -1.234569,0 0,-1.23456 1.234569,0 0,1.23456 M 100,119.02885 l 0,1.23457 -1.234569,0 0,-1.23457 1.234569,0 m 0,3.7037 -1.234569,0 0,-1.23456 1.234569,0 0,1.23456 m -3.703705,0 0,-1.23456 1.234568,0 0,1.23456 -1.234568,0 m 0,-3.7037 1.234568,0 0,1.23457 -1.234568,0 0,-1.23457 M 100,130.13996 l -1.234569,0 0,-1.23456 1.234569,0 0,1.23456 m -3.703705,0 0,-1.23456 1.234568,0 0,1.23456 -1.234568,0 m 0,-3.7037 1.234568,0 0,1.23456 -1.234568,0 0,-1.23456 m 3.703705,0 0,1.23456 -1.234569,0 0,-1.23456 1.234569,0 m -11.111112,3.7037 0,-1.23456 1.234567,0 0,1.23456 -1.234567,0 m 0,-3.7037 1.234567,0 0,1.23456 -1.234567,0 0,-1.23456 m 3.703703,0 0,1.23456 -1.234567,0 0,-1.23456 1.234567,0 m 0,3.7037 -1.234567,0 0,-1.23456 1.234567,0 0,1.23456 m -3.703703,-11.11111 1.234567,0 0,1.23457 -1.234567,0 0,-1.23457 m 3.703703,0 0,1.23457 -1.234567,0 0,-1.23457 1.234567,0 m 0,3.7037 -1.234567,0 0,-1.23456 1.234567,0 0,1.23456 m -3.703703,0 0,-1.23456 1.234567,0 0,1.23456 -1.234567,0 M 0,152.36218 l 0,-1.23457 1.234568,0 0,1.23457 -1.234568,0 m 0,-3.70371 1.234568,0 0,1.23458 -1.234568,0 0,-1.23458 m 3.7037037,0 0,1.23458 -1.2345679,0 0,-1.23458 1.2345679,0 m 0,3.70371 -1.2345679,0 0,-1.23457 1.2345679,0 0,1.23457 M 0,141.25107 l 1.234568,0 0,1.23457 -1.234568,0 0,-1.23457 m 3.7037037,0 0,1.23457 -1.2345679,0 0,-1.23457 1.2345679,0 m 0,3.70371 -1.2345679,0 0,-1.23458 1.2345679,0 0,1.23458 m -3.7037037,0 0,-1.23458 1.234568,0 0,1.23458 -1.234568,0 m 11.111111,-3.70371 0,1.23457 -1.2345679,0 0,-1.23457 1.2345679,0 m 0,3.70371 -1.2345679,0 0,-1.23458 1.2345679,0 0,1.23458 m -3.7037036,0 0,-1.23458 1.2345678,0 0,1.23458 -1.2345678,0 m 0,-3.70371 1.2345678,0 0,1.23457 -1.2345678,0 0,-1.23457 m 3.7037036,11.11111 -1.2345679,0 0,-1.23457 1.2345679,0 0,1.23457 m -3.7037036,0 0,-1.23457 1.2345678,0 0,1.23457 -1.2345678,0 m 0,-3.70371 1.2345678,0 0,1.23458 -1.2345678,0 0,-1.23458 m 3.7037036,0 0,1.23458 -1.2345679,0 0,-1.23458 1.2345679,0 M 0,119.02885 l 1.234568,0 0,1.23457 -1.234568,0 0,-1.23457 m 3.7037037,0 0,1.23457 -1.2345679,0 0,-1.23457 1.2345679,0 m 0,3.7037 -1.2345679,0 0,-1.23456 1.2345679,0 0,1.23456 m -3.7037037,0 0,-1.23456 1.234568,0 0,1.23456 -1.234568,0 m 11.111111,-3.7037 0,1.23457 -1.2345679,0 0,-1.23457 1.2345679,0 m 0,3.7037 -1.2345679,0 0,-1.23456 1.2345679,0 0,1.23456 m -3.7037036,0 0,-1.23456 1.2345678,0 0,1.23456 -1.2345678,0 m 0,-3.7037 1.2345678,0 0,1.23457 -1.2345678,0 0,-1.23457 m 3.7037036,11.11111 -1.2345679,0 0,-1.23456 1.2345679,0 0,1.23456 m -3.7037036,0 0,-1.23456 1.2345678,0 0,1.23456 -1.2345678,0 m 0,-3.7037 1.2345678,0 0,1.23456 -1.2345678,0 0,-1.23456 m 3.7037036,0 0,1.23456 -1.2345679,0 0,-1.23456 1.2345679,0 M 0,130.13996 l 0,-1.23456 1.234568,0 0,1.23456 -1.234568,0 m 0,-3.7037 1.234568,0 0,1.23456 -1.234568,0 0,-1.23456 m 3.7037037,0 0,1.23456 -1.2345679,0 0,-1.23456 1.2345679,0 m 0,3.7037 -1.2345679,0 0,-1.23456 1.2345679,0 0,1.23456 m 29.6296303,-11.11111 0,1.23457 -1.234569,0 0,-1.23457 1.234569,0 m 0,3.7037 -1.234569,0 0,-1.23456 1.234569,0 0,1.23456 m -3.703704,0 0,-1.23456 1.234567,0 0,1.23456 -1.234567,0 m 0,-3.7037 1.234567,0 0,1.23457 -1.234567,0 0,-1.23457 m 3.703704,11.11111 -1.234569,0 0,-1.23456 1.234569,0 0,1.23456 m -3.703704,0 0,-1.23456 1.234567,0 0,1.23456 -1.234567,0 m 0,-3.7037 1.234567,0 0,1.23456 -1.234567,0 0,-1.23456 m 3.703704,0 0,1.23456 -1.234569,0 0,-1.23456 1.234569,0 m -11.111111,3.7037 0,-1.23456 1.234566,0 0,1.23456 -1.234566,0 m 0,-3.7037 1.234566,0 0,1.23456 -1.234566,0 0,-1.23456 m 3.703703,0 0,1.23456 -1.234568,0 0,-1.23456 1.234568,0 m 0,3.7037 -1.234568,0 0,-1.23456 1.234568,0 0,1.23456 m -3.703703,-11.11111 1.234566,0 0,1.23457 -1.234566,0 0,-1.23457 m 3.703703,0 0,1.23457 -1.234568,0 0,-1.23457 1.234568,0 m 0,3.7037 -1.234568,0 0,-1.23456 1.234568,0 0,1.23456 m -3.703703,0 0,-1.23456 1.234566,0 0,1.23456 -1.234566,0 m 11.111111,29.62963 -1.234569,0 0,-1.23457 1.234569,0 0,1.23457 m -3.703704,0 0,-1.23457 1.234567,0 0,1.23457 -1.234567,0 m 0,-3.70371 1.234567,0 0,1.23458 -1.234567,0 0,-1.23458 m 3.703704,0 0,1.23458 -1.234569,0 0,-1.23458 1.234569,0 m -11.111111,3.70371 0,-1.23457 1.234566,0 0,1.23457 -1.234566,0 m 0,-3.70371 1.234566,0 0,1.23458 -1.234566,0 0,-1.23458 m 3.703703,0 0,1.23458 -1.234568,0 0,-1.23458 1.234568,0 m 0,3.70371 -1.234568,0 0,-1.23457 1.234568,0 0,1.23457 m -3.703703,-11.11111 1.234566,0 0,1.23457 -1.234566,0 0,-1.23457 m 3.703703,0 0,1.23457 -1.234568,0 0,-1.23457 1.234568,0 m 0,3.70371 -1.234568,0 0,-1.23458 1.234568,0 0,1.23458 m -3.703703,0 0,-1.23458 1.234566,0 0,1.23458 -1.234566,0 m 11.111111,-3.70371 0,1.23457 -1.234569,0 0,-1.23457 1.234569,0 m 0,3.70371 -1.234569,0 0,-1.23458 1.234569,0 0,1.23458 m -3.703704,0 0,-1.23458 1.234567,0 0,1.23458 -1.234567,0 m 0,-3.70371 1.234567,0 0,1.23457 -1.234567,0 0,-1.23457 M 300,52.362183 l 0,1.234567 -1.23456,0 0,-1.234567 1.23456,0 m 0,3.703704 -1.23456,0 0,-1.234569 1.23456,0 0,1.234569 m -3.7037,0 0,-1.234569 1.23456,0 0,1.234569 -1.23456,0 m 0,-3.703704 1.23456,0 0,1.234567 -1.23456,0 0,-1.234567 M 300,63.473294 l -1.23456,0 0,-1.234569 1.23456,0 0,1.234569 m -3.7037,0 0,-1.234569 1.23456,0 0,1.234569 -1.23456,0 m 0,-3.703704 1.23456,0 0,1.234568 -1.23456,0 0,-1.234568 m 3.7037,0 0,1.234568 -1.23456,0 0,-1.234568 1.23456,0 m -11.11111,3.703704 0,-1.234569 1.23456,0 0,1.234569 -1.23456,0 m 0,-3.703704 1.23456,0 0,1.234568 -1.23456,0 0,-1.234568 m 3.7037,0 0,1.234568 -1.23456,0 0,-1.234568 1.23456,0 m 0,3.703704 -1.23456,0 0,-1.234569 1.23456,0 0,1.234569 m -3.7037,-11.111111 1.23456,0 0,1.234567 -1.23456,0 0,-1.234567 m 3.7037,0 0,1.234567 -1.23456,0 0,-1.234567 1.23456,0 m 0,3.703704 -1.23456,0 0,-1.234569 1.23456,0 0,1.234569 m -3.7037,0 0,-1.234569 1.23456,0 0,1.234569 -1.23456,0 M 300,85.695516 l -1.23456,0 0,-1.234568 1.23456,0 0,1.234568 m -3.7037,0 0,-1.234568 1.23456,0 0,1.234568 -1.23456,0 m 0,-3.703703 1.23456,0 0,1.234567 -1.23456,0 0,-1.234567 m 3.7037,0 0,1.234567 -1.23456,0 0,-1.234567 1.23456,0 m -11.11111,3.703703 0,-1.234568 1.23456,0 0,1.234568 -1.23456,0 m 0,-3.703703 1.23456,0 0,1.234567 -1.23456,0 0,-1.234567 m 3.7037,0 0,1.234567 -1.23456,0 0,-1.234567 1.23456,0 m 0,3.703703 -1.23456,0 0,-1.234568 1.23456,0 0,1.234568 m -3.7037,-11.111111 1.23456,0 0,1.234568 -1.23456,0 0,-1.234568 m 3.7037,0 0,1.234568 -1.23456,0 0,-1.234568 1.23456,0 m 0,3.703704 -1.23456,0 0,-1.234569 1.23456,0 0,1.234569 m -3.7037,0 0,-1.234569 1.23456,0 0,1.234569 -1.23456,0 M 300,74.584405 l 0,1.234568 -1.23456,0 0,-1.234568 1.23456,0 m 0,3.703704 -1.23456,0 0,-1.234569 1.23456,0 0,1.234569 m -3.7037,0 0,-1.234569 1.23456,0 0,1.234569 -1.23456,0 m 0,-3.703704 1.23456,0 0,1.234568 -1.23456,0 0,-1.234568 m -29.62964,11.111111 0,-1.234568 1.23457,0 0,1.234568 -1.23457,0 m 0,-3.703703 1.23457,0 0,1.234567 -1.23457,0 0,-1.234567 m 3.70371,0 0,1.234567 -1.23458,0 0,-1.234567 1.23458,0 m 0,3.703703 -1.23458,0 0,-1.234568 1.23458,0 0,1.234568 m -3.70371,-11.111111 1.23457,0 0,1.234568 -1.23457,0 0,-1.234568 m 3.70371,0 0,1.234568 -1.23458,0 0,-1.234568 1.23458,0 m 0,3.703704 -1.23458,0 0,-1.234569 1.23458,0 0,1.234569 m -3.70371,0 0,-1.234569 1.23457,0 0,1.234569 -1.23457,0 m 11.11112,-3.703704 0,1.234568 -1.23458,0 0,-1.234568 1.23458,0 m 0,3.703704 -1.23458,0 0,-1.234569 1.23458,0 0,1.234569 m -3.70371,0 0,-1.234569 1.23458,0 0,1.234569 -1.23458,0 m 0,-3.703704 1.23458,0 0,1.234568 -1.23458,0 0,-1.234568 m 3.70371,11.111111 -1.23458,0 0,-1.234568 1.23458,0 0,1.234568 m -3.70371,0 0,-1.234568 1.23458,0 0,1.234568 -1.23458,0 m 0,-3.703703 1.23458,0 0,1.234567 -1.23458,0 0,-1.234567 m 3.70371,0 0,1.234567 -1.23458,0 0,-1.234567 1.23458,0 m -11.11112,-29.62963 1.23457,0 0,1.234567 -1.23457,0 0,-1.234567 m 3.70371,0 0,1.234567 -1.23458,0 0,-1.234567 1.23458,0 m 0,3.703704 -1.23458,0 0,-1.234569 1.23458,0 0,1.234569 m -3.70371,0 0,-1.234569 1.23457,0 0,1.234569 -1.23457,0 m 11.11112,-3.703704 0,1.234567 -1.23458,0 0,-1.234567 1.23458,0 m 0,3.703704 -1.23458,0 0,-1.234569 1.23458,0 0,1.234569 m -3.70371,0 0,-1.234569 1.23458,0 0,1.234569 -1.23458,0 m 0,-3.703704 1.23458,0 0,1.234567 -1.23458,0 0,-1.234567 m 3.70371,11.111111 -1.23458,0 0,-1.234569 1.23458,0 0,1.234569 m -3.70371,0 0,-1.234569 1.23458,0 0,1.234569 -1.23458,0 m 0,-3.703704 1.23458,0 0,1.234568 -1.23458,0 0,-1.234568 m 3.70371,0 0,1.234568 -1.23458,0 0,-1.234568 1.23458,0 m -11.11112,3.703704 0,-1.234569 1.23457,0 0,1.234569 -1.23457,0 m 0,-3.703704 1.23457,0 0,1.234568 -1.23457,0 0,-1.234568 m 3.70371,0 0,1.234568 -1.23458,0 0,-1.234568 1.23458,0 m 0,3.703704 -1.23458,0 0,-1.234569 1.23458,0 0,1.234569 M 300,152.36218 l -1.23456,0 0,-1.23457 1.23456,0 0,1.23457 m -3.7037,0 0,-1.23457 1.23456,0 0,1.23457 -1.23456,0 m 0,-3.70371 1.23456,0 0,1.23458 -1.23456,0 0,-1.23458 m 3.7037,0 0,1.23458 -1.23456,0 0,-1.23458 1.23456,0 m -11.11111,3.70371 0,-1.23457 1.23456,0 0,1.23457 -1.23456,0 m 0,-3.70371 1.23456,0 0,1.23458 -1.23456,0 0,-1.23458 m 3.7037,0 0,1.23458 -1.23456,0 0,-1.23458 1.23456,0 m 0,3.70371 -1.23456,0 0,-1.23457 1.23456,0 0,1.23457 m -3.7037,-11.11111 1.23456,0 0,1.23457 -1.23456,0 0,-1.23457 m 3.7037,0 0,1.23457 -1.23456,0 0,-1.23457 1.23456,0 m 0,3.70371 -1.23456,0 0,-1.23458 1.23456,0 0,1.23458 m -3.7037,0 0,-1.23458 1.23456,0 0,1.23458 -1.23456,0 M 300,141.25107 l 0,1.23457 -1.23456,0 0,-1.23457 1.23456,0 m 0,3.70371 -1.23456,0 0,-1.23458 1.23456,0 0,1.23458 m -3.7037,0 0,-1.23458 1.23456,0 0,1.23458 -1.23456,0 m 0,-3.70371 1.23456,0 0,1.23457 -1.23456,0 0,-1.23457 m -29.62964,11.11111 0,-1.23457 1.23457,0 0,1.23457 -1.23457,0 m 0,-3.70371 1.23457,0 0,1.23458 -1.23457,0 0,-1.23458 m 3.70371,0 0,1.23458 -1.23458,0 0,-1.23458 1.23458,0 m 0,3.70371 -1.23458,0 0,-1.23457 1.23458,0 0,1.23457 m -3.70371,-11.11111 1.23457,0 0,1.23457 -1.23457,0 0,-1.23457 m 3.70371,0 0,1.23457 -1.23458,0 0,-1.23457 1.23458,0 m 0,3.70371 -1.23458,0 0,-1.23458 1.23458,0 0,1.23458 m -3.70371,0 0,-1.23458 1.23457,0 0,1.23458 -1.23457,0 m 11.11112,-3.70371 0,1.23457 -1.23458,0 0,-1.23457 1.23458,0 m 0,3.70371 -1.23458,0 0,-1.23458 1.23458,0 0,1.23458 m -3.70371,0 0,-1.23458 1.23458,0 0,1.23458 -1.23458,0 m 0,-3.70371 1.23458,0 0,1.23457 -1.23458,0 0,-1.23457 m 3.70371,11.11111 -1.23458,0 0,-1.23457 1.23458,0 0,1.23457 m -3.70371,0 0,-1.23457 1.23458,0 0,1.23457 -1.23458,0 m 0,-3.70371 1.23458,0 0,1.23458 -1.23458,0 0,-1.23458 m 3.70371,0 0,1.23458 -1.23458,0 0,-1.23458 1.23458,0 m -11.11112,-29.62962 1.23457,0 0,1.23457 -1.23457,0 0,-1.23457 m 3.70371,0 0,1.23457 -1.23458,0 0,-1.23457 1.23458,0 m 0,3.7037 -1.23458,0 0,-1.23456 1.23458,0 0,1.23456 m -3.70371,0 0,-1.23456 1.23457,0 0,1.23456 -1.23457,0 m 11.11112,-3.7037 0,1.23457 -1.23458,0 0,-1.23457 1.23458,0 m 0,3.7037 -1.23458,0 0,-1.23456 1.23458,0 0,1.23456 m -3.70371,0 0,-1.23456 1.23458,0 0,1.23456 -1.23458,0 m 0,-3.7037 1.23458,0 0,1.23457 -1.23458,0 0,-1.23457 m 3.70371,11.11111 -1.23458,0 0,-1.23456 1.23458,0 0,1.23456 m -3.70371,0 0,-1.23456 1.23458,0 0,1.23456 -1.23458,0 m 0,-3.7037 1.23458,0 0,1.23456 -1.23458,0 0,-1.23456 m 3.70371,0 0,1.23456 -1.23458,0 0,-1.23456 1.23458,0 m -11.11112,3.7037 0,-1.23456 1.23457,0 0,1.23456 -1.23457,0 m 0,-3.7037 1.23457,0 0,1.23456 -1.23457,0 0,-1.23456 m 3.70371,0 0,1.23456 -1.23458,0 0,-1.23456 1.23458,0 m 0,3.7037 -1.23458,0 0,-1.23456 1.23458,0 0,1.23456 M 300,119.02885 l 0,1.23457 -1.23456,0 0,-1.23457 1.23456,0 m 0,3.7037 -1.23456,0 0,-1.23456 1.23456,0 0,1.23456 m -3.7037,0 0,-1.23456 1.23456,0 0,1.23456 -1.23456,0 m 0,-3.7037 1.23456,0 0,1.23457 -1.23456,0 0,-1.23457 m 3.7037,11.11111 -1.23456,0 0,-1.23456 1.23456,0 0,1.23456 m -3.7037,0 0,-1.23456 1.23456,0 0,1.23456 -1.23456,0 m 0,-3.7037 1.23456,0 0,1.23456 -1.23456,0 0,-1.23456 m 3.7037,0 0,1.23456 -1.23456,0 0,-1.23456 1.23456,0 m -11.11111,3.7037 0,-1.23456 1.23456,0 0,1.23456 -1.23456,0 m 0,-3.7037 1.23456,0 0,1.23456 -1.23456,0 0,-1.23456 m 3.7037,0 0,1.23456 -1.23456,0 0,-1.23456 1.23456,0 m 0,3.7037 -1.23456,0 0,-1.23456 1.23456,0 0,1.23456 m -3.7037,-11.11111 1.23456,0 0,1.23457 -1.23456,0 0,-1.23457 m 3.7037,0 0,1.23457 -1.23456,0 0,-1.23457 1.23456,0 m 0,3.7037 -1.23456,0 0,-1.23456 1.23456,0 0,1.23456 m -3.7037,0 0,-1.23456 1.23456,0 0,1.23456 -1.23456,0 m -88.8889,29.62963 0,-1.23457 1.23458,0 0,1.23457 -1.23458,0 m 0,-3.70371 1.23458,0 0,1.23458 -1.23458,0 0,-1.23458 m 3.70372,0 0,1.23458 -1.23458,0 0,-1.23458 1.23458,0 m 0,3.70371 -1.23458,0 0,-1.23457 1.23458,0 0,1.23457 m -3.70372,-11.11111 1.23458,0 0,1.23457 -1.23458,0 0,-1.23457 m 3.70372,0 0,1.23457 -1.23458,0 0,-1.23457 1.23458,0 m 0,3.70371 -1.23458,0 0,-1.23458 1.23458,0 0,1.23458 m -3.70372,0 0,-1.23458 1.23458,0 0,1.23458 -1.23458,0 m 11.11112,-3.70371 0,1.23457 -1.23457,0 0,-1.23457 1.23457,0 m 0,3.70371 -1.23457,0 0,-1.23458 1.23457,0 0,1.23458 m -3.70371,0 0,-1.23458 1.23457,0 0,1.23458 -1.23457,0 m 0,-3.70371 1.23457,0 0,1.23457 -1.23457,0 0,-1.23457 m 3.70371,11.11111 -1.23457,0 0,-1.23457 1.23457,0 0,1.23457 m -3.70371,0 0,-1.23457 1.23457,0 0,1.23457 -1.23457,0 m 0,-3.70371 1.23457,0 0,1.23458 -1.23457,0 0,-1.23458 m 3.70371,0 0,1.23458 -1.23457,0 0,-1.23458 1.23457,0 m -11.11112,-29.62962 1.23458,0 0,1.23457 -1.23458,0 0,-1.23457 m 3.70372,0 0,1.23457 -1.23458,0 0,-1.23457 1.23458,0 m 0,3.7037 -1.23458,0 0,-1.23456 1.23458,0 0,1.23456 m -3.70372,0 0,-1.23456 1.23458,0 0,1.23456 -1.23458,0 m 11.11112,-3.7037 0,1.23457 -1.23457,0 0,-1.23457 1.23457,0 m 0,3.7037 -1.23457,0 0,-1.23456 1.23457,0 0,1.23456 m -3.70371,0 0,-1.23456 1.23457,0 0,1.23456 -1.23457,0 m 0,-3.7037 1.23457,0 0,1.23457 -1.23457,0 0,-1.23457 m 3.70371,11.11111 -1.23457,0 0,-1.23456 1.23457,0 0,1.23456 m -3.70371,0 0,-1.23456 1.23457,0 0,1.23456 -1.23457,0 m 0,-3.7037 1.23457,0 0,1.23456 -1.23457,0 0,-1.23456 m 3.70371,0 0,1.23456 -1.23457,0 0,-1.23456 1.23457,0 m -11.11112,3.7037 0,-1.23456 1.23458,0 0,1.23456 -1.23458,0 m 0,-3.7037 1.23458,0 0,1.23456 -1.23458,0 0,-1.23456 m 3.70372,0 0,1.23456 -1.23458,0 0,-1.23456 1.23458,0 m 0,3.7037 -1.23458,0 0,-1.23456 1.23458,0 0,1.23456 m 29.62962,-11.11111 0,1.23457 -1.23457,0 0,-1.23457 1.23457,0 m 0,3.7037 -1.23457,0 0,-1.23456 1.23457,0 0,1.23456 m -3.70371,0 0,-1.23456 1.23458,0 0,1.23456 -1.23458,0 m 0,-3.7037 1.23458,0 0,1.23457 -1.23458,0 0,-1.23457 m 3.70371,11.11111 -1.23457,0 0,-1.23456 1.23457,0 0,1.23456 m -3.70371,0 0,-1.23456 1.23458,0 0,1.23456 -1.23458,0 m 0,-3.7037 1.23458,0 0,1.23456 -1.23458,0 0,-1.23456 m 3.70371,0 0,1.23456 -1.23457,0 0,-1.23456 1.23457,0 m -11.1111,3.7037 0,-1.23456 1.23456,0 0,1.23456 -1.23456,0 m 0,-3.7037 1.23456,0 0,1.23456 -1.23456,0 0,-1.23456 m 3.70369,0 0,1.23456 -1.23456,0 0,-1.23456 1.23456,0 m 0,3.7037 -1.23456,0 0,-1.23456 1.23456,0 0,1.23456 m -3.70369,-11.11111 1.23456,0 0,1.23457 -1.23456,0 0,-1.23457 m 3.70369,0 0,1.23457 -1.23456,0 0,-1.23457 1.23456,0 m 0,3.7037 -1.23456,0 0,-1.23456 1.23456,0 0,1.23456 m -3.70369,0 0,-1.23456 1.23456,0 0,1.23456 -1.23456,0 m 11.1111,29.62963 -1.23457,0 0,-1.23457 1.23457,0 0,1.23457 m -3.70371,0 0,-1.23457 1.23458,0 0,1.23457 -1.23458,0 m 0,-3.70371 1.23458,0 0,1.23458 -1.23458,0 0,-1.23458 m 3.70371,0 0,1.23458 -1.23457,0 0,-1.23458 1.23457,0 m -11.1111,3.70371 0,-1.23457 1.23456,0 0,1.23457 -1.23456,0 m 0,-3.70371 1.23456,0 0,1.23458 -1.23456,0 0,-1.23458 m 3.70369,0 0,1.23458 -1.23456,0 0,-1.23458 1.23456,0 m 0,3.70371 -1.23456,0 0,-1.23457 1.23456,0 0,1.23457 m -3.70369,-11.11111 1.23456,0 0,1.23457 -1.23456,0 0,-1.23457 m 3.70369,0 0,1.23457 -1.23456,0 0,-1.23457 1.23456,0 m 0,3.70371 -1.23456,0 0,-1.23458 1.23456,0 0,1.23458 m -3.70369,0 0,-1.23458 1.23456,0 0,1.23458 -1.23456,0 m 11.1111,-3.70371 0,1.23457 -1.23457,0 0,-1.23457 1.23457,0 m 0,3.70371 -1.23457,0 0,-1.23458 1.23457,0 0,1.23458 m -3.70371,0 0,-1.23458 1.23458,0 0,1.23458 -1.23458,0 m 0,-3.70371 1.23458,0 0,1.23457 -1.23458,0 0,-1.23457 m -29.62963,-88.888887 1.23458,0 0,1.234567 -1.23458,0 0,-1.234567 m 3.70372,0 0,1.234567 -1.23458,0 0,-1.234567 1.23458,0 m 0,3.703704 -1.23458,0 0,-1.234569 1.23458,0 0,1.234569 m -3.70372,0 0,-1.234569 1.23458,0 0,1.234569 -1.23458,0 m 11.11112,-3.703704 0,1.234567 -1.23457,0 0,-1.234567 1.23457,0 m 0,3.703704 -1.23457,0 0,-1.234569 1.23457,0 0,1.234569 m -3.70371,0 0,-1.234569 1.23457,0 0,1.234569 -1.23457,0 m 0,-3.703704 1.23457,0 0,1.234567 -1.23457,0 0,-1.234567 m 3.70371,11.111111 -1.23457,0 0,-1.234569 1.23457,0 0,1.234569 m -3.70371,0 0,-1.234569 1.23457,0 0,1.234569 -1.23457,0 m 0,-3.703704 1.23457,0 0,1.234568 -1.23457,0 0,-1.234568 m 3.70371,0 0,1.234568 -1.23457,0 0,-1.234568 1.23457,0 m -11.11112,3.703704 0,-1.234569 1.23458,0 0,1.234569 -1.23458,0 m 0,-3.703704 1.23458,0 0,1.234568 -1.23458,0 0,-1.234568 m 3.70372,0 0,1.234568 -1.23458,0 0,-1.234568 1.23458,0 m 0,3.703704 -1.23458,0 0,-1.234569 1.23458,0 0,1.234569 m 29.62962,-11.111111 0,1.234567 -1.23457,0 0,-1.234567 1.23457,0 m 0,3.703704 -1.23457,0 0,-1.234569 1.23457,0 0,1.234569 m -3.70371,0 0,-1.234569 1.23458,0 0,1.234569 -1.23458,0 m 0,-3.703704 1.23458,0 0,1.234567 -1.23458,0 0,-1.234567 m 3.70371,11.111111 -1.23457,0 0,-1.234569 1.23457,0 0,1.234569 m -3.70371,0 0,-1.234569 1.23458,0 0,1.234569 -1.23458,0 m 0,-3.703704 1.23458,0 0,1.234568 -1.23458,0 0,-1.234568 m 3.70371,0 0,1.234568 -1.23457,0 0,-1.234568 1.23457,0 m -11.1111,3.703704 0,-1.234569 1.23456,0 0,1.234569 -1.23456,0 m 0,-3.703704 1.23456,0 0,1.234568 -1.23456,0 0,-1.234568 m 3.70369,0 0,1.234568 -1.23456,0 0,-1.234568 1.23456,0 m 0,3.703704 -1.23456,0 0,-1.234569 1.23456,0 0,1.234569 m -3.70369,-11.111111 1.23456,0 0,1.234567 -1.23456,0 0,-1.234567 m 3.70369,0 0,1.234567 -1.23456,0 0,-1.234567 1.23456,0 m 0,3.703704 -1.23456,0 0,-1.234569 1.23456,0 0,1.234569 m -3.70369,0 0,-1.234569 1.23456,0 0,1.234569 -1.23456,0 m 11.1111,29.629629 -1.23457,0 0,-1.234568 1.23457,0 0,1.234568 m -3.70371,0 0,-1.234568 1.23458,0 0,1.234568 -1.23458,0 m 0,-3.703703 1.23458,0 0,1.234567 -1.23458,0 0,-1.234567 m 3.70371,0 0,1.234567 -1.23457,0 0,-1.234567 1.23457,0 m -11.1111,3.703703 0,-1.234568 1.23456,0 0,1.234568 -1.23456,0 m 0,-3.703703 1.23456,0 0,1.234567 -1.23456,0 0,-1.234567 m 3.70369,0 0,1.234567 -1.23456,0 0,-1.234567 1.23456,0 m 0,3.703703 -1.23456,0 0,-1.234568 1.23456,0 0,1.234568 m -3.70369,-11.111111 1.23456,0 0,1.234568 -1.23456,0 0,-1.234568 m 3.70369,0 0,1.234568 -1.23456,0 0,-1.234568 1.23456,0 m 0,3.703704 -1.23456,0 0,-1.234569 1.23456,0 0,1.234569 m -3.70369,0 0,-1.234569 1.23456,0 0,1.234569 -1.23456,0 m 11.1111,-3.703704 0,1.234568 -1.23457,0 0,-1.234568 1.23457,0 m 0,3.703704 -1.23457,0 0,-1.234569 1.23457,0 0,1.234569 m -3.70371,0 0,-1.234569 1.23458,0 0,1.234569 -1.23458,0 m 0,-3.703704 1.23458,0 0,1.234568 -1.23458,0 0,-1.234568 m -29.62963,11.111111 0,-1.234568 1.23458,0 0,1.234568 -1.23458,0 m 0,-3.703703 1.23458,0 0,1.234567 -1.23458,0 0,-1.234567 m 3.70372,0 0,1.234567 -1.23458,0 0,-1.234567 1.23458,0 m 0,3.703703 -1.23458,0 0,-1.234568 1.23458,0 0,1.234568 m -3.70372,-11.111111 1.23458,0 0,1.234568 -1.23458,0 0,-1.234568 m 3.70372,0 0,1.234568 -1.23458,0 0,-1.234568 1.23458,0 m 0,3.703704 -1.23458,0 0,-1.234569 1.23458,0 0,1.234569 m -3.70372,0 0,-1.234569 1.23458,0 0,1.234569 -1.23458,0 m 11.11112,-3.703704 0,1.234568 -1.23457,0 0,-1.234568 1.23457,0 m 0,3.703704 -1.23457,0 0,-1.234569 1.23457,0 0,1.234569 m -3.70371,0 0,-1.234569 1.23457,0 0,1.234569 -1.23457,0 m 0,-3.703704 1.23457,0 0,1.234568 -1.23457,0 0,-1.234568 m 3.70371,11.111111 -1.23457,0 0,-1.234568 1.23457,0 0,1.234568 m -3.70371,0 0,-1.234568 1.23457,0 0,1.234568 -1.23457,0 m 0,-3.703703 1.23457,0 0,1.234567 -1.23457,0 0,-1.234567 m 3.70371,0 0,1.234567 -1.23457,0 0,-1.234567 1.23457,0 M 300,352.36218 l -1.23456,0 0,-1.23456 1.23456,0 0,1.23456 m -3.7037,0 0,-1.23456 1.23456,0 0,1.23456 -1.23456,0 m 0,-3.7037 1.23456,0 0,1.23456 -1.23456,0 0,-1.23456 m 3.7037,0 0,1.23456 -1.23456,0 0,-1.23456 1.23456,0 m -11.11111,3.7037 0,-1.23456 1.23456,0 0,1.23456 -1.23456,0 m 0,-3.7037 1.23456,0 0,1.23456 -1.23456,0 0,-1.23456 m 3.7037,0 0,1.23456 -1.23456,0 0,-1.23456 1.23456,0 m 0,3.7037 -1.23456,0 0,-1.23456 1.23456,0 0,1.23456 m -3.7037,-11.11111 1.23456,0 0,1.23457 -1.23456,0 0,-1.23457 m 3.7037,0 0,1.23457 -1.23456,0 0,-1.23457 1.23456,0 m 0,3.7037 -1.23456,0 0,-1.23456 1.23456,0 0,1.23456 m -3.7037,0 0,-1.23456 1.23456,0 0,1.23456 -1.23456,0 M 300,341.25107 l 0,1.23457 -1.23456,0 0,-1.23457 1.23456,0 m 0,3.7037 -1.23456,0 0,-1.23456 1.23456,0 0,1.23456 m -3.7037,0 0,-1.23456 1.23456,0 0,1.23456 -1.23456,0 m 0,-3.7037 1.23456,0 0,1.23457 -1.23456,0 0,-1.23457 m -29.62964,11.11111 0,-1.23456 1.23457,0 0,1.23456 -1.23457,0 m 0,-3.7037 1.23457,0 0,1.23456 -1.23457,0 0,-1.23456 m 3.70371,0 0,1.23456 -1.23458,0 0,-1.23456 1.23458,0 m 0,3.7037 -1.23458,0 0,-1.23456 1.23458,0 0,1.23456 m -3.70371,-11.11111 1.23457,0 0,1.23457 -1.23457,0 0,-1.23457 m 3.70371,0 0,1.23457 -1.23458,0 0,-1.23457 1.23458,0 m 0,3.7037 -1.23458,0 0,-1.23456 1.23458,0 0,1.23456 m -3.70371,0 0,-1.23456 1.23457,0 0,1.23456 -1.23457,0 m 11.11112,-3.7037 0,1.23457 -1.23458,0 0,-1.23457 1.23458,0 m 0,3.7037 -1.23458,0 0,-1.23456 1.23458,0 0,1.23456 m -3.70371,0 0,-1.23456 1.23458,0 0,1.23456 -1.23458,0 m 0,-3.7037 1.23458,0 0,1.23457 -1.23458,0 0,-1.23457 m 3.70371,11.11111 -1.23458,0 0,-1.23456 1.23458,0 0,1.23456 m -3.70371,0 0,-1.23456 1.23458,0 0,1.23456 -1.23458,0 m 0,-3.7037 1.23458,0 0,1.23456 -1.23458,0 0,-1.23456 m 3.70371,0 0,1.23456 -1.23458,0 0,-1.23456 1.23458,0 m -11.11112,-29.62963 1.23457,0 0,1.23456 -1.23457,0 0,-1.23456 m 3.70371,0 0,1.23456 -1.23458,0 0,-1.23456 1.23458,0 m 0,3.7037 -1.23458,0 0,-1.23457 1.23458,0 0,1.23457 m -3.70371,0 0,-1.23457 1.23457,0 0,1.23457 -1.23457,0 m 11.11112,-3.7037 0,1.23456 -1.23458,0 0,-1.23456 1.23458,0 m 0,3.7037 -1.23458,0 0,-1.23457 1.23458,0 0,1.23457 m -3.70371,0 0,-1.23457 1.23458,0 0,1.23457 -1.23458,0 m 0,-3.7037 1.23458,0 0,1.23456 -1.23458,0 0,-1.23456 m 3.70371,11.11111 -1.23458,0 0,-1.23458 1.23458,0 0,1.23458 m -3.70371,0 0,-1.23458 1.23458,0 0,1.23458 -1.23458,0 m 0,-3.70371 1.23458,0 0,1.23458 -1.23458,0 0,-1.23458 m 3.70371,0 0,1.23458 -1.23458,0 0,-1.23458 1.23458,0 m -11.11112,3.70371 0,-1.23458 1.23457,0 0,1.23458 -1.23457,0 m 0,-3.70371 1.23457,0 0,1.23458 -1.23457,0 0,-1.23458 m 3.70371,0 0,1.23458 -1.23458,0 0,-1.23458 1.23458,0 m 0,3.70371 -1.23458,0 0,-1.23458 1.23458,0 0,1.23458 M 300,319.02885 l 0,1.23456 -1.23456,0 0,-1.23456 1.23456,0 m 0,3.7037 -1.23456,0 0,-1.23457 1.23456,0 0,1.23457 m -3.7037,0 0,-1.23457 1.23456,0 0,1.23457 -1.23456,0 m 0,-3.7037 1.23456,0 0,1.23456 -1.23456,0 0,-1.23456 m 3.7037,11.11111 -1.23456,0 0,-1.23458 1.23456,0 0,1.23458 m -3.7037,0 0,-1.23458 1.23456,0 0,1.23458 -1.23456,0 m 0,-3.70371 1.23456,0 0,1.23458 -1.23456,0 0,-1.23458 m 3.7037,0 0,1.23458 -1.23456,0 0,-1.23458 1.23456,0 m -11.11111,3.70371 0,-1.23458 1.23456,0 0,1.23458 -1.23456,0 m 0,-3.70371 1.23456,0 0,1.23458 -1.23456,0 0,-1.23458 m 3.7037,0 0,1.23458 -1.23456,0 0,-1.23458 1.23456,0 m 0,3.70371 -1.23456,0 0,-1.23458 1.23456,0 0,1.23458 m -3.7037,-11.11111 1.23456,0 0,1.23456 -1.23456,0 0,-1.23456 m 3.7037,0 0,1.23456 -1.23456,0 0,-1.23456 1.23456,0 m 0,3.7037 -1.23456,0 0,-1.23457 1.23456,0 0,1.23457 m -3.7037,0 0,-1.23457 1.23456,0 0,1.23457 -1.23456,0 m -88.8889,29.62963 0,-1.23456 1.23458,0 0,1.23456 -1.23458,0 m 0,-3.7037 1.23458,0 0,1.23456 -1.23458,0 0,-1.23456 m 3.70372,0 0,1.23456 -1.23458,0 0,-1.23456 1.23458,0 m 0,3.7037 -1.23458,0 0,-1.23456 1.23458,0 0,1.23456 m -3.70372,-11.11111 1.23458,0 0,1.23457 -1.23458,0 0,-1.23457 m 3.70372,0 0,1.23457 -1.23458,0 0,-1.23457 1.23458,0 m 0,3.7037 -1.23458,0 0,-1.23456 1.23458,0 0,1.23456 m -3.70372,0 0,-1.23456 1.23458,0 0,1.23456 -1.23458,0 m 11.11112,-3.7037 0,1.23457 -1.23457,0 0,-1.23457 1.23457,0 m 0,3.7037 -1.23457,0 0,-1.23456 1.23457,0 0,1.23456 m -3.70371,0 0,-1.23456 1.23457,0 0,1.23456 -1.23457,0 m 0,-3.7037 1.23457,0 0,1.23457 -1.23457,0 0,-1.23457 m 3.70371,11.11111 -1.23457,0 0,-1.23456 1.23457,0 0,1.23456 m -3.70371,0 0,-1.23456 1.23457,0 0,1.23456 -1.23457,0 m 0,-3.7037 1.23457,0 0,1.23456 -1.23457,0 0,-1.23456 m 3.70371,0 0,1.23456 -1.23457,0 0,-1.23456 1.23457,0 m -11.11112,-29.62963 1.23458,0 0,1.23456 -1.23458,0 0,-1.23456 m 3.70372,0 0,1.23456 -1.23458,0 0,-1.23456 1.23458,0 m 0,3.7037 -1.23458,0 0,-1.23457 1.23458,0 0,1.23457 m -3.70372,0 0,-1.23457 1.23458,0 0,1.23457 -1.23458,0 m 11.11112,-3.7037 0,1.23456 -1.23457,0 0,-1.23456 1.23457,0 m 0,3.7037 -1.23457,0 0,-1.23457 1.23457,0 0,1.23457 m -3.70371,0 0,-1.23457 1.23457,0 0,1.23457 -1.23457,0 m 0,-3.7037 1.23457,0 0,1.23456 -1.23457,0 0,-1.23456 m 3.70371,11.11111 -1.23457,0 0,-1.23458 1.23457,0 0,1.23458 m -3.70371,0 0,-1.23458 1.23457,0 0,1.23458 -1.23457,0 m 0,-3.70371 1.23457,0 0,1.23458 -1.23457,0 0,-1.23458 m 3.70371,0 0,1.23458 -1.23457,0 0,-1.23458 1.23457,0 m -11.11112,3.70371 0,-1.23458 1.23458,0 0,1.23458 -1.23458,0 m 0,-3.70371 1.23458,0 0,1.23458 -1.23458,0 0,-1.23458 m 3.70372,0 0,1.23458 -1.23458,0 0,-1.23458 1.23458,0 m 0,3.70371 -1.23458,0 0,-1.23458 1.23458,0 0,1.23458 m 29.62962,-11.11111 0,1.23456 -1.23457,0 0,-1.23456 1.23457,0 m 0,3.7037 -1.23457,0 0,-1.23457 1.23457,0 0,1.23457 m -3.70371,0 0,-1.23457 1.23458,0 0,1.23457 -1.23458,0 m 0,-3.7037 1.23458,0 0,1.23456 -1.23458,0 0,-1.23456 m 3.70371,11.11111 -1.23457,0 0,-1.23458 1.23457,0 0,1.23458 m -3.70371,0 0,-1.23458 1.23458,0 0,1.23458 -1.23458,0 m 0,-3.70371 1.23458,0 0,1.23458 -1.23458,0 0,-1.23458 m 3.70371,0 0,1.23458 -1.23457,0 0,-1.23458 1.23457,0 m -11.1111,3.70371 0,-1.23458 1.23456,0 0,1.23458 -1.23456,0 m 0,-3.70371 1.23456,0 0,1.23458 -1.23456,0 0,-1.23458 m 3.70369,0 0,1.23458 -1.23456,0 0,-1.23458 1.23456,0 m 0,3.70371 -1.23456,0 0,-1.23458 1.23456,0 0,1.23458 m -3.70369,-11.11111 1.23456,0 0,1.23456 -1.23456,0 0,-1.23456 m 3.70369,0 0,1.23456 -1.23456,0 0,-1.23456 1.23456,0 m 0,3.7037 -1.23456,0 0,-1.23457 1.23456,0 0,1.23457 m -3.70369,0 0,-1.23457 1.23456,0 0,1.23457 -1.23456,0 m 11.1111,29.62963 -1.23457,0 0,-1.23456 1.23457,0 0,1.23456 m -3.70371,0 0,-1.23456 1.23458,0 0,1.23456 -1.23458,0 m 0,-3.7037 1.23458,0 0,1.23456 -1.23458,0 0,-1.23456 m 3.70371,0 0,1.23456 -1.23457,0 0,-1.23456 1.23457,0 m -11.1111,3.7037 0,-1.23456 1.23456,0 0,1.23456 -1.23456,0 m 0,-3.7037 1.23456,0 0,1.23456 -1.23456,0 0,-1.23456 m 3.70369,0 0,1.23456 -1.23456,0 0,-1.23456 1.23456,0 m 0,3.7037 -1.23456,0 0,-1.23456 1.23456,0 0,1.23456 m -3.70369,-11.11111 1.23456,0 0,1.23457 -1.23456,0 0,-1.23457 m 3.70369,0 0,1.23457 -1.23456,0 0,-1.23457 1.23456,0 m 0,3.7037 -1.23456,0 0,-1.23456 1.23456,0 0,1.23456 m -3.70369,0 0,-1.23456 1.23456,0 0,1.23456 -1.23456,0 m 11.1111,-3.7037 0,1.23457 -1.23457,0 0,-1.23457 1.23457,0 m 0,3.7037 -1.23457,0 0,-1.23456 1.23457,0 0,1.23456 m -3.70371,0 0,-1.23456 1.23458,0 0,1.23456 -1.23458,0 m 0,-3.7037 1.23458,0 0,1.23457 -1.23458,0 0,-1.23457 m -29.62963,-88.88889 1.23458,0 0,1.23457 -1.23458,0 0,-1.23457 m 3.70372,0 0,1.23457 -1.23458,0 0,-1.23457 1.23458,0 m 0,3.70371 -1.23458,0 0,-1.23458 1.23458,0 0,1.23458 m -3.70372,0 0,-1.23458 1.23458,0 0,1.23458 -1.23458,0 m 11.11112,-3.70371 0,1.23457 -1.23457,0 0,-1.23457 1.23457,0 m 0,3.70371 -1.23457,0 0,-1.23458 1.23457,0 0,1.23458 m -3.70371,0 0,-1.23458 1.23457,0 0,1.23458 -1.23457,0 m 0,-3.70371 1.23457,0 0,1.23457 -1.23457,0 0,-1.23457 m 3.70371,11.11111 -1.23457,0 0,-1.23457 1.23457,0 0,1.23457 m -3.70371,0 0,-1.23457 1.23457,0 0,1.23457 -1.23457,0 m 0,-3.7037 1.23457,0 0,1.23456 -1.23457,0 0,-1.23456 m 3.70371,0 0,1.23456 -1.23457,0 0,-1.23456 1.23457,0 m -11.11112,3.7037 0,-1.23457 1.23458,0 0,1.23457 -1.23458,0 m 0,-3.7037 1.23458,0 0,1.23456 -1.23458,0 0,-1.23456 m 3.70372,0 0,1.23456 -1.23458,0 0,-1.23456 1.23458,0 m 0,3.7037 -1.23458,0 0,-1.23457 1.23458,0 0,1.23457 m 29.62962,-11.11111 0,1.23457 -1.23457,0 0,-1.23457 1.23457,0 m 0,3.70371 -1.23457,0 0,-1.23458 1.23457,0 0,1.23458 m -3.70371,0 0,-1.23458 1.23458,0 0,1.23458 -1.23458,0 m 0,-3.70371 1.23458,0 0,1.23457 -1.23458,0 0,-1.23457 m 3.70371,11.11111 -1.23457,0 0,-1.23457 1.23457,0 0,1.23457 m -3.70371,0 0,-1.23457 1.23458,0 0,1.23457 -1.23458,0 m 0,-3.7037 1.23458,0 0,1.23456 -1.23458,0 0,-1.23456 m 3.70371,0 0,1.23456 -1.23457,0 0,-1.23456 1.23457,0 m -11.1111,3.7037 0,-1.23457 1.23456,0 0,1.23457 -1.23456,0 m 0,-3.7037 1.23456,0 0,1.23456 -1.23456,0 0,-1.23456 m 3.70369,0 0,1.23456 -1.23456,0 0,-1.23456 1.23456,0 m 0,3.7037 -1.23456,0 0,-1.23457 1.23456,0 0,1.23457 m -3.70369,-11.11111 1.23456,0 0,1.23457 -1.23456,0 0,-1.23457 m 3.70369,0 0,1.23457 -1.23456,0 0,-1.23457 1.23456,0 m 0,3.70371 -1.23456,0 0,-1.23458 1.23456,0 0,1.23458 m -3.70369,0 0,-1.23458 1.23456,0 0,1.23458 -1.23456,0 m 11.1111,29.62962 -1.23457,0 0,-1.23456 1.23457,0 0,1.23456 m -3.70371,0 0,-1.23456 1.23458,0 0,1.23456 -1.23458,0 m 0,-3.7037 1.23458,0 0,1.23457 -1.23458,0 0,-1.23457 m 3.70371,0 0,1.23457 -1.23457,0 0,-1.23457 1.23457,0 m -11.1111,3.7037 0,-1.23456 1.23456,0 0,1.23456 -1.23456,0 m 0,-3.7037 1.23456,0 0,1.23457 -1.23456,0 0,-1.23457 m 3.70369,0 0,1.23457 -1.23456,0 0,-1.23457 1.23456,0 m 0,3.7037 -1.23456,0 0,-1.23456 1.23456,0 0,1.23456 m -3.70369,-11.1111 1.23456,0 0,1.23456 -1.23456,0 0,-1.23456 m 3.70369,0 0,1.23456 -1.23456,0 0,-1.23456 1.23456,0 m 0,3.70369 -1.23456,0 0,-1.23456 1.23456,0 0,1.23456 m -3.70369,0 0,-1.23456 1.23456,0 0,1.23456 -1.23456,0 m 11.1111,-3.70369 0,1.23456 -1.23457,0 0,-1.23456 1.23457,0 m 0,3.70369 -1.23457,0 0,-1.23456 1.23457,0 0,1.23456 m -3.70371,0 0,-1.23456 1.23458,0 0,1.23456 -1.23458,0 m 0,-3.70369 1.23458,0 0,1.23456 -1.23458,0 0,-1.23456 m -29.62963,11.1111 0,-1.23456 1.23458,0 0,1.23456 -1.23458,0 m 0,-3.7037 1.23458,0 0,1.23457 -1.23458,0 0,-1.23457 m 3.70372,0 0,1.23457 -1.23458,0 0,-1.23457 1.23458,0 m 0,3.7037 -1.23458,0 0,-1.23456 1.23458,0 0,1.23456 m -3.70372,-11.1111 1.23458,0 0,1.23456 -1.23458,0 0,-1.23456 m 3.70372,0 0,1.23456 -1.23458,0 0,-1.23456 1.23458,0 m 0,3.70369 -1.23458,0 0,-1.23456 1.23458,0 0,1.23456 m -3.70372,0 0,-1.23456 1.23458,0 0,1.23456 -1.23458,0 m 11.11112,-3.70369 0,1.23456 -1.23457,0 0,-1.23456 1.23457,0 m 0,3.70369 -1.23457,0 0,-1.23456 1.23457,0 0,1.23456 m -3.70371,0 0,-1.23456 1.23457,0 0,1.23456 -1.23457,0 m 0,-3.70369 1.23457,0 0,1.23456 -1.23457,0 0,-1.23456 m 3.70371,11.1111 -1.23457,0 0,-1.23456 1.23457,0 0,1.23456 m -3.70371,0 0,-1.23456 1.23457,0 0,1.23456 -1.23457,0 m 0,-3.7037 1.23457,0 0,1.23457 -1.23457,0 0,-1.23457 m 3.70371,0 0,1.23457 -1.23457,0 0,-1.23457 1.23457,0 M 300,252.36218 l 0,1.23457 -1.23456,0 0,-1.23457 1.23456,0 m 0,3.70371 -1.23456,0 0,-1.23458 1.23456,0 0,1.23458 m -3.7037,0 0,-1.23458 1.23456,0 0,1.23458 -1.23456,0 m 0,-3.70371 1.23456,0 0,1.23457 -1.23456,0 0,-1.23457 m 3.7037,11.11111 -1.23456,0 0,-1.23457 1.23456,0 0,1.23457 m -3.7037,0 0,-1.23457 1.23456,0 0,1.23457 -1.23456,0 m 0,-3.7037 1.23456,0 0,1.23456 -1.23456,0 0,-1.23456 m 3.7037,0 0,1.23456 -1.23456,0 0,-1.23456 1.23456,0 m -11.11111,3.7037 0,-1.23457 1.23456,0 0,1.23457 -1.23456,0 m 0,-3.7037 1.23456,0 0,1.23456 -1.23456,0 0,-1.23456 m 3.7037,0 0,1.23456 -1.23456,0 0,-1.23456 1.23456,0 m 0,3.7037 -1.23456,0 0,-1.23457 1.23456,0 0,1.23457 m -3.7037,-11.11111 1.23456,0 0,1.23457 -1.23456,0 0,-1.23457 m 3.7037,0 0,1.23457 -1.23456,0 0,-1.23457 1.23456,0 m 0,3.70371 -1.23456,0 0,-1.23458 1.23456,0 0,1.23458 m -3.7037,0 0,-1.23458 1.23456,0 0,1.23458 -1.23456,0 M 300,285.69551 l -1.23456,0 0,-1.23456 1.23456,0 0,1.23456 m -3.7037,0 0,-1.23456 1.23456,0 0,1.23456 -1.23456,0 m 0,-3.7037 1.23456,0 0,1.23457 -1.23456,0 0,-1.23457 m 3.7037,0 0,1.23457 -1.23456,0 0,-1.23457 1.23456,0 m -11.11111,3.7037 0,-1.23456 1.23456,0 0,1.23456 -1.23456,0 m 0,-3.7037 1.23456,0 0,1.23457 -1.23456,0 0,-1.23457 m 3.7037,0 0,1.23457 -1.23456,0 0,-1.23457 1.23456,0 m 0,3.7037 -1.23456,0 0,-1.23456 1.23456,0 0,1.23456 m -3.7037,-11.1111 1.23456,0 0,1.23456 -1.23456,0 0,-1.23456 m 3.7037,0 0,1.23456 -1.23456,0 0,-1.23456 1.23456,0 m 0,3.70369 -1.23456,0 0,-1.23456 1.23456,0 0,1.23456 m -3.7037,0 0,-1.23456 1.23456,0 0,1.23456 -1.23456,0 M 300,274.58441 l 0,1.23456 -1.23456,0 0,-1.23456 1.23456,0 m 0,3.70369 -1.23456,0 0,-1.23456 1.23456,0 0,1.23456 m -3.7037,0 0,-1.23456 1.23456,0 0,1.23456 -1.23456,0 m 0,-3.70369 1.23456,0 0,1.23456 -1.23456,0 0,-1.23456 m -29.62964,11.1111 0,-1.23456 1.23457,0 0,1.23456 -1.23457,0 m 0,-3.7037 1.23457,0 0,1.23457 -1.23457,0 0,-1.23457 m 3.70371,0 0,1.23457 -1.23458,0 0,-1.23457 1.23458,0 m 0,3.7037 -1.23458,0 0,-1.23456 1.23458,0 0,1.23456 m -3.70371,-11.1111 1.23457,0 0,1.23456 -1.23457,0 0,-1.23456 m 3.70371,0 0,1.23456 -1.23458,0 0,-1.23456 1.23458,0 m 0,3.70369 -1.23458,0 0,-1.23456 1.23458,0 0,1.23456 m -3.70371,0 0,-1.23456 1.23457,0 0,1.23456 -1.23457,0 m 11.11112,-3.70369 0,1.23456 -1.23458,0 0,-1.23456 1.23458,0 m 0,3.70369 -1.23458,0 0,-1.23456 1.23458,0 0,1.23456 m -3.70371,0 0,-1.23456 1.23458,0 0,1.23456 -1.23458,0 m 0,-3.70369 1.23458,0 0,1.23456 -1.23458,0 0,-1.23456 m 3.70371,11.1111 -1.23458,0 0,-1.23456 1.23458,0 0,1.23456 m -3.70371,0 0,-1.23456 1.23458,0 0,1.23456 -1.23458,0 m 0,-3.7037 1.23458,0 0,1.23457 -1.23458,0 0,-1.23457 m 3.70371,0 0,1.23457 -1.23458,0 0,-1.23457 1.23458,0 m -11.11112,-29.62963 1.23457,0 0,1.23457 -1.23457,0 0,-1.23457 m 3.70371,0 0,1.23457 -1.23458,0 0,-1.23457 1.23458,0 m 0,3.70371 -1.23458,0 0,-1.23458 1.23458,0 0,1.23458 m -3.70371,0 0,-1.23458 1.23457,0 0,1.23458 -1.23457,0 m 11.11112,-3.70371 0,1.23457 -1.23458,0 0,-1.23457 1.23458,0 m 0,3.70371 -1.23458,0 0,-1.23458 1.23458,0 0,1.23458 m -3.70371,0 0,-1.23458 1.23458,0 0,1.23458 -1.23458,0 m 0,-3.70371 1.23458,0 0,1.23457 -1.23458,0 0,-1.23457 m 3.70371,11.11111 -1.23458,0 0,-1.23457 1.23458,0 0,1.23457 m -3.70371,0 0,-1.23457 1.23458,0 0,1.23457 -1.23458,0 m 0,-3.7037 1.23458,0 0,1.23456 -1.23458,0 0,-1.23456 m 3.70371,0 0,1.23456 -1.23458,0 0,-1.23456 1.23458,0 m -11.11112,3.7037 0,-1.23457 1.23457,0 0,1.23457 -1.23457,0 m 0,-3.7037 1.23457,0 0,1.23456 -1.23457,0 0,-1.23456 m 3.70371,0 0,1.23456 -1.23458,0 0,-1.23456 1.23458,0 m 0,3.7037 -1.23458,0 0,-1.23457 1.23458,0 0,1.23457"
       inkscape:connector-curvature="0" />
  </g>
</svg>
