<?xml version="1.0" encoding="UTF-8" standalone="no"?>
<!-- Created with Inkscape (http://www.inkscape.org/) -->

<svg
   xmlns:dc="http://purl.org/dc/elements/1.1/"
   xmlns:cc="http://creativecommons.org/ns#"
   xmlns:rdf="http://www.w3.org/1999/02/22-rdf-syntax-ns#"
   xmlns:svg="http://www.w3.org/2000/svg"
   xmlns="http://www.w3.org/2000/svg"
   xmlns:xlink="http://www.w3.org/1999/xlink"
   xmlns:sodipodi="http://sodipodi.sourceforge.net/DTD/sodipodi-0.dtd"
   xmlns:inkscape="http://www.inkscape.org/namespaces/inkscape"
   width="743.84375"
   height="438.15625"
   id="svg3017"
   version="1.1"
   inkscape:version="0.48.4 r9939"
   sodipodi:docname="DistanceObservateur.svg">
  <defs
     id="defs3019">
    <linearGradient
       id="linearGradient3964">
      <stop
         style="stop-color:#000000;stop-opacity:0.92198581;"
         offset="0"
         id="stop3966" />
      <stop
         style="stop-color:#e9afaf;stop-opacity:0;"
         offset="1"
         id="stop3968" />
    </linearGradient>
    <linearGradient
       inkscape:collect="always"
       xlink:href="#linearGradient3964"
       id="linearGradient3970"
       x1="356.42856"
       y1="201.0134"
       x2="293.57144"
       y2="261.0134"
       gradientUnits="userSpaceOnUse" />
    <linearGradient
       inkscape:collect="always"
       xlink:href="#linearGradient3964"
       id="linearGradient3974"
       gradientUnits="userSpaceOnUse"
       x1="354.81494"
       y1="200.56187"
       x2="293.57144"
       y2="261.0134"
       gradientTransform="matrix(1.8037383,0,0,1.8037383,-22.531599,-167.95828)" />
  </defs>
  <sodipodi:namedview
     id="base"
     pagecolor="#ffffff"
     bordercolor="#666666"
     borderopacity="1.0"
     inkscape:pageopacity="0.0"
     inkscape:pageshadow="2"
     inkscape:zoom="0.7"
     inkscape:cx="404.27793"
     inkscape:cy="207.7564"
     inkscape:document-units="px"
     inkscape:current-layer="layer1"
     showgrid="false"
     fit-margin-top="0"
     fit-margin-left="0"
     fit-margin-right="0"
     fit-margin-bottom="0"
     inkscape:window-width="1615"
     inkscape:window-height="1026"
     inkscape:window-x="65"
     inkscape:window-y="24"
     inkscape:window-maximized="1" />
  <metadata
     id="metadata3022">
    <rdf:RDF>
      <cc:Work
         rdf:about="">
        <dc:format>image/svg+xml</dc:format>
        <dc:type
           rdf:resource="http://purl.org/dc/dcmitype/StillImage" />
        <dc:title></dc:title>
      </cc:Work>
    </rdf:RDF>
  </metadata>
  <g
     inkscape:label="Calque 1"
     inkscape:groupmode="layer"
     id="layer1"
     transform="translate(-35.21875,-7.5625)">
    <rect
       style="fill:#ffffff;fill-opacity:1;stroke:none;stroke-width:1;stroke-linecap:round;stroke-linejoin:round;stroke-miterlimit:4;stroke-opacity:1;stroke-dasharray:4, 8;stroke-dashoffset:0"
       id="rect3957"
       width="742.85712"
       height="437.14285"
       x="35.714283"
       y="8.0764675" />
    <path
       style="fill:none;stroke:#000000;stroke-width:1;stroke-linecap:butt;stroke-linejoin:miter;stroke-opacity:1"
       d="M 653.46481,79.548903 93.126631,229.69108 707.52889,394.31967"
       id="path3027"
       inkscape:connector-curvature="0"
       inkscape:transform-center-x="-307.97061"
       inkscape:transform-center-y="8.7941722" />
    <g
       id="g3108"
       transform="matrix(-0.69382918,0,0,0.69382918,2530.4006,166.26069)">
      <g
         style="fill:#4d4d4d;fill-opacity:1"
         id="g3110"
         transform="translate(1476.5397,-304.51639)">
        <path
           sodipodi:nodetypes="ccccccccccc"
           inkscape:connector-curvature="0"
           d="m 1555.7562,458.68439 -291.9064,-268.14432 -86.0351,31.11914 -80.9855,363.18336 c 44.7131,18.72038 92.0226,24.45834 140.5331,24.19144 l 47.5218,-224.30656 0.1718,-0.28711 0,0 0,0 166.0087,166.11629 c 49.0058,-28.27265 78.2317,-59.84194 104.6916,-91.87224 z"
           style="fill:#ffccaa;fill-opacity:1;fill-rule:evenodd;stroke:#000000;stroke-width:1.44127694"
           id="path3112" />
      </g>
      <path
         sodipodi:nodetypes="cccccc"
         inkscape:connector-curvature="0"
         id="path3114"
         d="m 2713.902,304.51762 47.5218,-224.306557 0.1718,-0.28711 0,0 0,0 166.0087,166.116287"
         style="fill:none;stroke:#000000;stroke-width:3;stroke-linecap:round;stroke-linejoin:round;stroke-opacity:1" />
      <path
         sodipodi:nodetypes="cccc"
         inkscape:connector-curvature="0"
         id="path3116"
         d="m 3032.295,154.16788 -291.9064,-268.14432 -86.0351,31.119143 -80.9855,363.183357"
         style="fill:none;stroke:#000000;stroke-width:2.88255382;stroke-linecap:round;stroke-linejoin:round;stroke-opacity:1" />
      <path
         sodipodi:nodetypes="ccc"
         inkscape:connector-curvature="0"
         id="path3118"
         d="M 2981.3658,207.01477 2776.0153,11.322003 2713.9001,304.51619"
         style="fill:none;stroke:#000000;stroke-width:3;stroke-linecap:round;stroke-linejoin:round;stroke-opacity:1" />
      <path
         sodipodi:nodetypes="cc"
         inkscape:connector-curvature="0"
         id="path3120"
         d="m 2654.6409,300.00691 85.7486,-413.98323"
         style="fill:none;stroke:#000000;stroke-width:3;stroke-linecap:round;stroke-linejoin:round;stroke-opacity:1" />
    </g>
    <path
       sodipodi:nodetypes="ccccccc"
       inkscape:connector-curvature="0"
       id="path3978"
       d="m 427.29694,273.23906 34.63713,36.41336 143.87722,-134.10778 42.63029,202.49389 40.85403,-2.6644 -60.3929,-287.754458 z"
       style="fill:#000000;fill-opacity:0.31372549;stroke:none" />
    <g
       transform="matrix(-0.39384362,0,0,0.39384362,1476.0201,192.69763)"
       id="g3064">
      <g
         transform="translate(1476.5397,-304.51639)"
         id="g3039"
         style="fill:#4d4d4d;fill-opacity:1">
        <path
           id="path3041"
           style="fill:#e9afaf;fill-opacity:1;fill-rule:evenodd;stroke:#000000;stroke-width:2.53907884"
           d="m 1555.7562,458.68439 -291.9064,-268.14432 -86.0351,31.11914 -80.9855,363.18336 c 44.7131,18.72038 92.0226,24.45834 140.5331,24.19144 l 47.5218,-224.30656 0.1718,-0.28711 0,0 0,0 166.0087,166.11629 c 49.0058,-28.27265 78.2317,-59.84194 104.6916,-91.87224 z"
           inkscape:connector-curvature="0"
           sodipodi:nodetypes="ccccccccccc" />
      </g>
      <path
         style="fill:none;stroke:#000000;stroke-width:3;stroke-linecap:round;stroke-linejoin:round;stroke-opacity:1"
         d="m 2713.902,304.51762 47.5218,-224.306557 0.1718,-0.28711 0,0 0,0 166.0087,166.116287"
         id="path3043"
         inkscape:connector-curvature="0"
         sodipodi:nodetypes="cccccc" />
      <path
         style="fill:none;stroke:#000000;stroke-width:3;stroke-linecap:round;stroke-linejoin:round;stroke-opacity:1"
         d="m 3032.295,154.16788 -291.9064,-268.14432 -86.0351,31.119143 -80.9855,363.183357"
         id="path3045"
         inkscape:connector-curvature="0"
         sodipodi:nodetypes="cccc" />
      <path
         style="fill:none;stroke:#000000;stroke-width:3;stroke-linecap:round;stroke-linejoin:round;stroke-opacity:1"
         d="M 2981.3658,207.01477 2776.0153,11.322003 2713.9001,304.51619"
         id="path3047"
         inkscape:connector-curvature="0"
         sodipodi:nodetypes="ccc" />
      <path
         style="fill:none;stroke:#000000;stroke-width:3;stroke-linecap:round;stroke-linejoin:round;stroke-opacity:1"
         d="m 2654.6409,300.00691 85.7486,-413.98323"
         id="path3049"
         inkscape:connector-curvature="0"
         sodipodi:nodetypes="cc" />
    </g>
    <path
       style="fill:#808080;fill-opacity:1;stroke:none"
       d="m 195.36161,20.946429 0,203.187501 65.34375,209.65625 0,-203.21875 -65.34375,-209.625001 z"
       id="path3906"
       inkscape:connector-curvature="0" />
    <path
       style="fill:#fff6d5;fill-opacity:1;stroke:none"
       d="m 213.10836,154.91518 c 7.59699,-0.1099 20.11839,32.8951 28.19504,74.59375 8.20485,42.36053 8.73741,77.65821 1.18058,78.84375 -7.55683,1.18554 -20.33742,-32.20197 -28.54227,-74.5625 -8.20485,-42.36053 -8.73741,-77.65821 -1.18058,-78.84375 0.11808,-0.0185 0.22664,-0.0295 0.34723,-0.0312 z"
       id="rect3029"
       inkscape:connector-curvature="0" />
    <g
       id="g3122"
       transform="matrix(-0.05195235,0.00629059,0.03842557,0.17771974,368.81995,197.77358)">
      <g
         style="fill:#4d4d4d;fill-opacity:1"
         id="g3124"
         transform="translate(1476.5397,-304.51639)">
        <path
           sodipodi:nodetypes="ccccccccccc"
           inkscape:connector-curvature="0"
           d="m 1555.7562,458.68439 -291.9064,-268.14432 -86.0351,31.11914 -80.9855,363.18336 c 44.7131,18.72038 92.0226,24.45834 140.5331,24.19144 l 47.5218,-224.30656 0.1718,-0.28711 0,0 0,0 166.0087,166.11629 c 49.0058,-28.27265 78.2317,-59.84194 104.6916,-91.87224 z"
           style="fill:#cccccc;fill-opacity:1;fill-rule:evenodd;stroke:none"
           id="path3126" />
      </g>
      <path
         sodipodi:nodetypes="cccccc"
         inkscape:connector-curvature="0"
         id="path3128"
         d="m 2713.902,304.51762 47.5218,-224.306557 0.1718,-0.28711 0,0 0,0 166.0087,166.116287"
         style="fill:none;stroke:#000000;stroke-width:3;stroke-linecap:round;stroke-linejoin:round;stroke-opacity:1" />
      <path
         sodipodi:nodetypes="cccc"
         inkscape:connector-curvature="0"
         id="path3130"
         d="m 3032.295,154.16788 -291.9064,-268.14432 -86.0351,31.119143 -80.9855,363.183357"
         style="fill:none;stroke:#000000;stroke-width:3;stroke-linecap:round;stroke-linejoin:round;stroke-opacity:1" />
      <path
         sodipodi:nodetypes="ccc"
         inkscape:connector-curvature="0"
         id="path3132"
         d="M 2981.3658,207.01477 2776.0153,11.322003 2713.9001,304.51619"
         style="fill:none;stroke:#000000;stroke-width:3;stroke-linecap:round;stroke-linejoin:round;stroke-opacity:1" />
      <path
         sodipodi:nodetypes="cc"
         inkscape:connector-curvature="0"
         id="path3134"
         d="m 2654.6409,300.00691 85.7486,-413.98323"
         style="fill:none;stroke:#000000;stroke-width:3;stroke-linecap:round;stroke-linejoin:round;stroke-opacity:1" />
    </g>
    <path
       inkscape:transform-center-y="8.7941722"
       inkscape:transform-center-x="-307.97061"
       inkscape:connector-curvature="0"
       id="path3908"
       d="M 653.46481,79.548903 247.22701,188.4 m -15.0843,4.04183 L 93.126631,229.69108 247.17794,270.969 m 13.84305,3.70924 446.5079,119.64143"
       style="fill:none;stroke:#000000;stroke-width:1;stroke-linecap:butt;stroke-linejoin:miter;stroke-opacity:1"
       sodipodi:nodetypes="ccccccc" />
    <path
       transform="matrix(0.66306875,-0.7485585,0.7485585,0.66306875,-130.52661,169.19554)"
       d="m 144.45181,209.89496 c 0,21.75778 -16.95977,39.39595 -37.88072,39.39595 -20.920944,0 -37.880721,-17.63817 -37.880721,-39.39595 0,-21.75778 16.959777,-39.39595 37.880721,-39.39595 20.92095,0 37.88072,17.63817 37.88072,39.39595 z"
       sodipodi:ry="39.39595"
       sodipodi:rx="37.880722"
       sodipodi:cy="209.89496"
       sodipodi:cx="106.57109"
       id="path3910"
       style="fill:#ffffff;fill-opacity:1;stroke:#999999"
       sodipodi:type="arc" />
    <path
       transform="matrix(0.66306875,-0.7485585,0.7485585,0.66306875,-130.52661,169.19554)"
       style="opacity:0.8;fill:#000000;fill-opacity:0.39215686;stroke:none"
       d="m 144.45181,209.89496 c 0,21.75778 -16.95977,39.39595 -37.88072,39.39595 -1.8908,0 -3.77895,-0.14723 -5.64861,-0.44046 9.04764,-24.04707 24.90678,-34.2995 43.52933,-38.95549 z"
       id="path3025"
       inkscape:connector-curvature="0"
       sodipodi:nodetypes="cscc" />
    <path
       sodipodi:type="arc"
       style="fill:#000000;fill-opacity:1;stroke:#999999;stroke-width:1;stroke-linecap:round;stroke-linejoin:round;stroke-miterlimit:4;stroke-opacity:1;stroke-dasharray:4, 8;stroke-dashoffset:0"
       id="path3959"
       sodipodi:cx="95"
       sodipodi:cy="222.08482"
       sodipodi:rx="3.5714285"
       sodipodi:ry="9.6428576"
       d="m 98.571429,222.08482 c 0,5.32561 -1.598983,9.64286 -3.571429,9.64286 -1.972446,0 -3.571429,-4.31725 -3.571429,-9.64286 0,-5.3256 1.598983,-9.64285 3.571429,-9.64285 1.972446,0 3.571429,4.31725 3.571429,9.64285 z"
       transform="translate(39.21875,7.5625)" />
    <path
       style="fill:url(#linearGradient3970);stroke:none;stroke-width:1px;stroke-linecap:butt;stroke-linejoin:miter;stroke-opacity:1;fill-opacity:1"
       d="m 353.57143,216.01339 -6.42857,-25.71428 -70,66.42857 25.71428,9.28571 z"
       id="path3962"
       inkscape:connector-curvature="0"
       transform="translate(35.21875,7.5625)" />
    <path
       inkscape:connector-curvature="0"
       id="path3972"
       d="m 615.21874,221.67335 -11.59545,-46.38182 -126.26168,119.81975 46.38183,16.74899 z"
       style="fill:url(#linearGradient3974);fill-opacity:1;stroke:none" />
    <path
       style="fill:#000000;stroke:none;stroke-width:1px;stroke-linecap:butt;stroke-linejoin:miter;stroke-opacity:1;fill-opacity:0.3137255"
       d="m 246.47722,245.72219 19.69798,20.70812 81.82235,-76.26651 24.24366,115.15739 23.23351,-1.51523 -34.34518,-163.64471 z"
       id="path3976"
       inkscape:connector-curvature="0"
       transform="translate(35.21875,7.5625)"
       sodipodi:nodetypes="ccccccc" />
  </g>
</svg>
