<?xml version="1.0" encoding="UTF-8" standalone="no"?>
<!-- Created with Inkscape (http://www.inkscape.org/) -->

<svg
   xmlns:dc="http://purl.org/dc/elements/1.1/"
   xmlns:cc="http://creativecommons.org/ns#"
   xmlns:rdf="http://www.w3.org/1999/02/22-rdf-syntax-ns#"
   xmlns:svg="http://www.w3.org/2000/svg"
   xmlns="http://www.w3.org/2000/svg"
   xmlns:sodipodi="http://sodipodi.sourceforge.net/DTD/sodipodi-0.dtd"
   xmlns:inkscape="http://www.inkscape.org/namespaces/inkscape"
   width="210mm"
   height="297mm"
   viewBox="0 0 744.09448819 1052.3622047"
   id="svg2"
   version="1.1"
   inkscape:version="0.91 r13725"
   sodipodi:docname="Penrose.svg">
  <defs
     id="defs4" />
  <sodipodi:namedview
     id="base"
     pagecolor="#ffffff"
     bordercolor="#666666"
     borderopacity="1.0"
     inkscape:pageopacity="0.0"
     inkscape:pageshadow="2"
     inkscape:zoom="0.24748737"
     inkscape:cx="1783.4234"
     inkscape:cy="482.43045"
     inkscape:document-units="px"
     inkscape:current-layer="layer1"
     showgrid="false"
     inkscape:snap-intersection-paths="true"
     inkscape:object-paths="true"
     inkscape:object-nodes="true"
     inkscape:window-width="1024"
     inkscape:window-height="718"
     inkscape:window-x="0"
     inkscape:window-y="0"
     inkscape:window-maximized="1" />
  <metadata
     id="metadata7">
    <rdf:RDF>
      <cc:Work
         rdf:about="">
        <dc:format>image/svg+xml</dc:format>
        <dc:type
           rdf:resource="http://purl.org/dc/dcmitype/StillImage" />
        <dc:title></dc:title>
      </cc:Work>
    </rdf:RDF>
  </metadata>
  <g
     inkscape:label="Calque 1"
     inkscape:groupmode="layer"
     id="layer1">
    <g
       id="g4536"
       transform="translate(52.5279,-290.92393)">
      <ellipse
         style="fill:#e5ffd5;stroke:#000000;stroke-width:2;stroke-linecap:round;stroke-linejoin:round"
         id="ellipse4356"
         cx="1739.111"
         cy="757.98639"
         rx="318.57144"
         ry="325.71429" />
      <path
         sodipodi:nodetypes="cccccccc"
         inkscape:connector-curvature="0"
         d="m 1843.2317,450.54241 c -40.5957,-14.73138 -83.9272,-25.02191 -140.5185,-15.7342 l -75.8433,340.1231 69.9687,58.9512 358.4315,-112.528 c -3.9774,-50.83068 -18.6341,-94.9868 -44.1614,-132.3488 l -210.9986,65.0877 z"
         style="fill:#808080;fill-rule:evenodd;stroke:none;stroke-width:3;stroke-linecap:round;stroke-linejoin:round;stroke-opacity:1"
         id="path4533" />
      <path
         sodipodi:nodetypes="ccc"
         inkscape:connector-curvature="0"
         id="path4375"
         d="m 1800.1101,654.09341 0,0 43.1241,-203.549"
         style="fill:none;fill-rule:evenodd;stroke:#000000;stroke-width:3;stroke-linecap:round;stroke-linejoin:round;stroke-opacity:1" />
      <path
         sodipodi:nodetypes="cccc"
         inkscape:connector-curvature="0"
         id="path4371"
         d="m 1702.7132,434.80821 -75.8433,340.1231 69.9687,58.9512 358.4315,-112.528"
         style="fill:none;fill-rule:evenodd;stroke:#000000;stroke-width:3;stroke-linecap:round;stroke-linejoin:round;stroke-opacity:1" />
      <path
         sodipodi:nodetypes="cc"
         inkscape:connector-curvature="0"
         id="path4367"
         d="m 1626.8697,774.93221 410.5625,-130.6669"
         style="fill:none;fill-rule:evenodd;stroke:#000000;stroke-width:3;stroke-linecap:round;stroke-linejoin:round;stroke-opacity:1" />
      <path
         sodipodi:nodetypes="cc"
         inkscape:connector-curvature="0"
         id="path4365"
         d="m 1843.2317,450.54241 -43.1237,203.5514"
         style="fill:none;fill-rule:evenodd;stroke:#000000;stroke-width:3;stroke-linecap:round;stroke-linejoin:round;stroke-opacity:1" />
      <path
         sodipodi:nodetypes="ccc"
         inkscape:connector-curvature="0"
         id="path4359"
         d="m 2011.1087,589.00571 -275.1361,84.8722 49.2489,-237.7674"
         style="fill:none;fill-rule:evenodd;stroke:#000000;stroke-width:3;stroke-linecap:round;stroke-linejoin:round;stroke-opacity:1" />
      <path
         style="fill:#f10000;fill-opacity:0.19607843;stroke:none;stroke-width:2;stroke-linecap:round;stroke-linejoin:round"
         d="m 1739.1108,432.27222 a 318.57144,325.71429 0 0 0 -211.0312,82.25391 396.82047,369.43555 0 0 0 278.4374,106.64843 396.82047,369.43555 0 0 0 194.5235,-47.94921 318.57144,325.71429 0 0 0 -261.9297,-140.95313 z"
         id="ellipse4405"
         inkscape:connector-curvature="0" />
      <path
         style="fill:#f10000;fill-opacity:0.19607843;stroke:none;stroke-width:2;stroke-linecap:round;stroke-linejoin:round"
         d="m 1873.1147,462.89527 a 234.69588,234.69588 0 0 0 -40.6211,131.91015 234.69588,234.69588 0 0 0 217.3554,233.8281 318.57144,325.71429 0 0 0 7.834,-70.6465 318.57144,325.71429 0 0 0 -184.5683,-295.09175 z"
         id="circle4395"
         inkscape:connector-curvature="0" />
    </g>
    <circle
       style="fill:#ffffff;fill-rule:evenodd;stroke:#000000;stroke-width:1px;stroke-linecap:butt;stroke-linejoin:miter;stroke-opacity:1"
       id="path3336"
       cx="372.85712"
       cy="499.50504"
       r="350.4982" />
    <g
       id="g4180">
      <path
         inkscape:connector-curvature="0"
         id="path3338"
         d="m 311.69224,154.37751 -86.03515,31.11914 -120.66992,541.15039 69.96874,58.95117 528.98438,-166.07227 16.06836,-90.07031 -408.31641,-375.07812 z m 21.20508,193.90039 183.83789,183.95703 -238.50781,73.57422 -0.002,0 54.5,-257.24414 0.17187,-0.28711 z"
         style="fill:#999999;stroke:#000000;stroke-width:3;stroke-linecap:round;stroke-linejoin:round" />
      <path
         sodipodi:nodetypes="ccc"
         inkscape:connector-curvature="0"
         id="path4140"
         d="M 104.98696,726.6479 564.78165,580.3122 332.89698,348.27832"
         style="fill:none;fill-rule:evenodd;stroke:#000000;stroke-width:3;stroke-linecap:round;stroke-linejoin:round;stroke-opacity:1" />
      <path
         sodipodi:nodetypes="ccc"
         inkscape:connector-curvature="0"
         id="path4142"
         d="M 703.94063,619.52555 347.31889,279.67595 278.22532,605.8095"
         style="fill:none;fill-rule:evenodd;stroke:#000000;stroke-width:3;stroke-linecap:round;stroke-linejoin:round;stroke-opacity:1" />
      <path
         sodipodi:nodetypes="ccc"
         inkscape:connector-curvature="0"
         id="path4144"
         d="M 516.73578,532.23541 214.08985,625.59358 311.69311,154.37763"
         style="fill:none;fill-rule:evenodd;stroke:#000000;stroke-width:3;stroke-linecap:round;stroke-linejoin:round;stroke-opacity:1" />
    </g>
    <g
       id="g4513"
       transform="translate(-204.2299,-199.00578)">
      <circle
         r="234.69588"
         cy="502.88623"
         cx="2323.9475"
         id="path4304"
         style="fill:#d7f4e3;stroke:#000000;stroke-width:2;stroke-linecap:round;stroke-linejoin:round" />
      <path
         sodipodi:nodetypes="cccccccc"
         inkscape:connector-curvature="0"
         d="m 2094.4212,550.58974 200.9548,-61.9892 -144.1261,-144.21886 c 54.7716,-54.11393 85.1395,-59.42062 117.8539,-69.42023 l 229.5451,210.85929 -16.0684,90.0703 -317.2401,99.5961 c -46.6689,-39.32955 -61.9427,-81.79861 -70.9192,-124.8974 z"
         style="fill:#666666;fill-rule:evenodd;stroke:none;stroke-width:3;stroke-linecap:round;stroke-linejoin:round;stroke-opacity:1"
         id="path4510" />
      <path
         sodipodi:nodetypes="cccc"
         inkscape:connector-curvature="0"
         id="path4322"
         d="m 2165.3404,675.48714 317.2401,-99.5961 16.0684,-90.0703 -229.5451,-210.85929"
         style="fill:none;fill-rule:evenodd;stroke:#000000;stroke-width:3;stroke-linecap:round;stroke-linejoin:round;stroke-opacity:1" />
      <path
         sodipodi:nodetypes="ccc"
         inkscape:connector-curvature="0"
         id="path4318"
         d="m 2114.8324,609.42894 228.5895,-72.7516 -192.172,-192.29566"
         style="fill:none;fill-rule:evenodd;stroke:#000000;stroke-width:3;stroke-linecap:round;stroke-linejoin:round;stroke-opacity:1" />
      <path
         sodipodi:nodetypes="cc"
         inkscape:connector-curvature="0"
         id="path4312"
         d="M 2482.5808,575.89064 2198.1369,304.82432"
         style="fill:none;fill-rule:evenodd;stroke:#000000;stroke-width:3;stroke-linecap:round;stroke-linejoin:round;stroke-opacity:1" />
      <path
         sodipodi:nodetypes="cc"
         inkscape:connector-curvature="0"
         id="path4301"
         d="m 2295.376,488.60054 -200.9548,61.9892"
         style="fill:none;fill-rule:evenodd;stroke:#000000;stroke-width:3;stroke-linecap:round;stroke-linejoin:round;stroke-opacity:1" />
      <path
         inkscape:connector-curvature="0"
         id="path4459"
         d="m 2323.948,268.19133 a 234.69588,234.69588 0 0 0 -234.6972,234.69531 234.69588,234.69588 0 0 0 1.664,25.45899 396.82047,369.43555 0 0 0 341.3106,-233.47266 234.69588,234.69588 0 0 0 -108.2774,-26.68164 z"
         style="fill:#f10000;fill-opacity:0.19607843;stroke:none;stroke-width:2;stroke-linecap:round;stroke-linejoin:round" />
      <path
         inkscape:connector-curvature="0"
         id="path4461"
         d="m 2129.8719,370.97649 a 234.69588,234.69588 0 0 0 -40.6211,131.91015 234.69588,234.69588 0 0 0 217.3554,233.8281 318.57144,325.71429 0 0 0 7.834,-70.6465 318.57144,325.71429 0 0 0 -184.5683,-295.09175 z"
         style="fill:#f10000;fill-opacity:0.19607843;stroke:none;stroke-width:2;stroke-linecap:round;stroke-linejoin:round" />
    </g>
    <g
       id="g4484">
      <ellipse
         style="fill:#f4eed7;stroke:#000000;stroke-width:2;stroke-linecap:round;stroke-linejoin:round"
         id="ellipse4272"
         cx="1859.045"
         cy="-39.184227"
         rx="396.82047"
         ry="369.43555" />
      <g
         style="fill:#4d4d4d;fill-opacity:1"
         id="g4465"
         transform="translate(622.25397,-278.8021)">
        <path
           sodipodi:nodetypes="ccccccccccc"
           inkscape:connector-curvature="0"
           d="m 1555.7562,458.68439 -291.9064,-268.14432 -86.0351,31.11914 -80.9855,363.18336 c 44.7131,18.72038 92.0226,24.45834 140.5331,24.19144 l 47.5218,-224.30656 0.1718,-0.28711 0,0 0,0 166.0087,166.11629 c 49.0058,-28.27265 78.2317,-59.84194 104.6916,-91.87224 z"
           style="fill:#808080;fill-rule:evenodd;stroke:none;stroke-width:3;stroke-linecap:round;stroke-linejoin:round;stroke-opacity:1;fill-opacity:1"
           id="path4475" />
      </g>
      <path
         sodipodi:nodetypes="cccccc"
         inkscape:connector-curvature="0"
         id="path4291"
         d="m 1859.6163,330.23191 47.5218,-224.30656 0.1718,-0.28711 0,0 0,0 166.0087,166.11629"
         style="fill:none;fill-rule:evenodd;stroke:#000000;stroke-width:3;stroke-linecap:round;stroke-linejoin:round;stroke-opacity:1" />
      <path
         sodipodi:nodetypes="cccc"
         inkscape:connector-curvature="0"
         id="path4287"
         d="m 2178.0093,179.88217 -291.9064,-268.14432 -86.0351,31.11914 -80.9855,363.18336"
         style="fill:none;fill-rule:evenodd;stroke:#000000;stroke-width:3;stroke-linecap:round;stroke-linejoin:round;stroke-opacity:1" />
      <path
         sodipodi:nodetypes="ccc"
         inkscape:connector-curvature="0"
         id="path4279"
         d="M 2127.0801,232.72906 1921.7296,37.03629 1859.6144,330.23048"
         style="fill:none;fill-rule:evenodd;stroke:#000000;stroke-width:3;stroke-linecap:round;stroke-linejoin:round;stroke-opacity:1" />
      <path
         sodipodi:nodetypes="cc"
         inkscape:connector-curvature="0"
         id="path4275"
         d="m 1800.3552,325.7212 85.7486,-413.98323"
         style="fill:none;fill-rule:evenodd;stroke:#000000;stroke-width:3;stroke-linecap:round;stroke-linejoin:round;stroke-opacity:1" />
      <path
         style="fill:#f10000;fill-opacity:0.19607843;stroke:none;stroke-width:2;stroke-linecap:round;stroke-linejoin:round"
         d="m 2119.7188,69.186178 a 234.69588,234.69588 0 0 0 -234.6972,234.695312 234.69588,234.69588 0 0 0 1.664,25.45899 396.82047,369.43555 0 0 0 341.3106,-233.472662 234.69588,234.69588 0 0 0 -108.2774,-26.68164 z"
         id="ellipse4400"
         inkscape:connector-curvature="0" />
      <path
         inkscape:connector-curvature="0"
         id="path4463"
         d="M 1791.6388,141.34829 A 318.57144,325.71429 0 0 0 1580.6075,223.6022 396.82047,369.43555 0 0 0 1859.045,330.25063 396.82047,369.43555 0 0 0 2053.5685,282.30142 318.57144,325.71429 0 0 0 1791.6388,141.34829 Z"
         style="fill:#f10000;fill-opacity:0.19607843;stroke:none;stroke-width:2;stroke-linecap:round;stroke-linejoin:round" />
    </g>
  </g>
</svg>
