<?xml version="1.0" encoding="UTF-8" standalone="no"?>
<!-- Created with Inkscape (http://www.inkscape.org/) -->

<svg
   xmlns:dc="http://purl.org/dc/elements/1.1/"
   xmlns:cc="http://creativecommons.org/ns#"
   xmlns:rdf="http://www.w3.org/1999/02/22-rdf-syntax-ns#"
   xmlns:svg="http://www.w3.org/2000/svg"
   xmlns="http://www.w3.org/2000/svg"
   xmlns:sodipodi="http://sodipodi.sourceforge.net/DTD/sodipodi-0.dtd"
   xmlns:inkscape="http://www.inkscape.org/namespaces/inkscape"
   width="2000"
   height="2000"
   id="svg5754"
   version="1.1"
   inkscape:version="0.48.4 r9939"
   sodipodi:docname="theoreme.svg">
  <defs
     id="defs5756" />
  <sodipodi:namedview
     id="base"
     pagecolor="#ffffff"
     bordercolor="#666666"
     borderopacity="1.0"
     inkscape:pageopacity="0.0"
     inkscape:pageshadow="2"
     inkscape:zoom="0.24748737"
     inkscape:cx="1217.8504"
     inkscape:cy="1342.3423"
     inkscape:document-units="px"
     inkscape:current-layer="layer6"
     showgrid="false"
     inkscape:window-width="1615"
     inkscape:window-height="1026"
     inkscape:window-x="65"
     inkscape:window-y="24"
     inkscape:window-maximized="1"
     showborder="true"
     inkscape:showpageshadow="true"
     showguides="true"
     inkscape:guide-bbox="true"
     inkscape:snap-center="true"
     inkscape:snap-bbox="true"
     inkscape:snap-global="true"
     fit-margin-top="0"
     fit-margin-left="0"
     fit-margin-right="0"
     fit-margin-bottom="0"
     borderlayer="false">
    <sodipodi:guide
       orientation="1,0"
       position="1000,698.28572"
       id="guide5923" />
    <sodipodi:guide
       orientation="0,1"
       position="1000,1698.2857"
       id="guide5925" />
    <sodipodi:guide
       orientation="0,1"
       position="1000,1898.2857"
       id="guide5999" />
    <sodipodi:guide
       orientation="0,1"
       position="1000,1498.2857"
       id="guide6001" />
    <sodipodi:guide
       orientation="0,1"
       position="1000,1798.2857"
       id="guide6003" />
    <sodipodi:guide
       orientation="0,1"
       position="1000,1598.2857"
       id="guide6005" />
    <sodipodi:guide
       orientation="0,1"
       position="-107.1429,1748.2857"
       id="guide6007" />
    <sodipodi:guide
       orientation="0,1"
       position="-107.1429,1648.2857"
       id="guide6009" />
  </sodipodi:namedview>
  <metadata
     id="metadata5759">
    <rdf:RDF>
      <cc:Work
         rdf:about="">
        <dc:format>image/svg+xml</dc:format>
        <dc:type
           rdf:resource="http://purl.org/dc/dcmitype/StillImage" />
        <dc:title></dc:title>
      </cc:Work>
    </rdf:RDF>
  </metadata>
  <g
     inkscape:groupmode="layer"
     id="layer10"
     inkscape:label="Calque0"
     style="display:inline"
     transform="translate(1000,249.3521)">
    <rect
       style="fill:#ffffff;fill-opacity:1;stroke:none;display:inline"
       id="rect6064"
       width="2000"
       height="2000"
       x="-1000"
       y="-249.3521" />
    <rect
       inkscape:tile-y0="645.71429"
       inkscape:tile-x0="-665.71429"
       y="396.36218"
       x="-1665.7144"
       height="71.428581"
       width="74.28569"
       id="use6730"
       style="fill:#ffb380;fill-opacity:1;stroke:none" />
    <rect
       inkscape:tile-y0="645.71429"
       inkscape:tile-x0="-665.71429"
       y="539.21936"
       x="-1665.7144"
       height="71.428581"
       width="74.28569"
       id="use6732"
       style="fill:#ff7f2a;fill-opacity:1;stroke:none" />
    <rect
       inkscape:tile-y0="645.71429"
       inkscape:tile-x0="-665.71429"
       y="682.07654"
       x="-1665.7144"
       height="71.428581"
       width="74.28569"
       id="use6734"
       style="fill:#ffd42a;fill-opacity:1;stroke:none" />
    <rect
       inkscape:tile-y0="645.71429"
       inkscape:tile-x0="-665.71429"
       y="824.93365"
       x="-1665.7144"
       height="71.428581"
       width="74.28569"
       id="use6736"
       style="fill:#803300;fill-opacity:1;stroke:none" />
    <rect
       inkscape:tile-y0="645.71429"
       inkscape:tile-x0="-665.71429"
       y="967.79083"
       x="-1665.7144"
       height="71.428581"
       width="74.28569"
       id="use6738"
       style="fill:#00ffff;fill-opacity:1;stroke:none" />
    <rect
       inkscape:tile-y0="645.71429"
       inkscape:tile-x0="-665.71429"
       y="1110.6479"
       x="-1665.7144"
       height="71.428581"
       width="74.28569"
       id="use6740"
       style="fill:#00ffff;fill-opacity:1;stroke:none" />
    <rect
       inkscape:tile-y0="645.71429"
       inkscape:tile-x0="-665.71429"
       y="1253.5051"
       x="-1665.7144"
       height="71.428581"
       width="74.28569"
       id="use6742"
       style="fill:#00ffff;fill-opacity:1;stroke:none" />
    <rect
       inkscape:tile-y0="645.71429"
       inkscape:tile-x0="-665.71429"
       y="1396.3623"
       x="-1665.7144"
       height="71.428581"
       width="74.28569"
       id="use6744"
       style="fill:#00ffff;fill-opacity:1;stroke:none" />
  </g>
  <g
     inkscape:label="Calque 1"
     inkscape:groupmode="layer"
     id="layer1"
     style="display:inline"
     transform="translate(1000,249.3521)">
    <rect
       y="-147.63782"
       x="-951.09467"
       height="400"
       width="1902.1893"
       id="rect13600"
       style="fill:#ffb380;fill-opacity:1;stroke:none" />
    <rect
       y="502.36218"
       x="-550"
       height="1100"
       width="1100"
       id="rect13598"
       style="fill:#ffb380;fill-opacity:1;stroke:none" />
  </g>
  <g
     inkscape:groupmode="layer"
     id="layer3"
     inkscape:label="Calque2"
     style="display:inline"
     transform="translate(1000,249.3521)">
    <rect
       style="fill:#ff7f2a;fill-opacity:1;stroke:none"
       id="rect5927"
       width="385.71429"
       height="385.71429"
       x="-514.28571"
       y="535.2193" />
    <rect
       y="535.2193"
       x="124.1104"
       height="385.71429"
       width="385.71429"
       id="rect6013"
       style="fill:#ffd42a;fill-opacity:1;stroke:none" />
    <rect
       style="fill:#ffd42a;fill-opacity:1;stroke:none"
       id="rect6017"
       width="385.71429"
       height="385.71429"
       x="-516.32629"
       y="1179.6967" />
    <rect
       y="1179.6967"
       x="126.13072"
       height="385.71429"
       width="385.71429"
       id="rect6019"
       style="fill:#ffd42a;fill-opacity:1;stroke:none" />
  </g>
  <g
     inkscape:groupmode="layer"
     id="layer7"
     inkscape:label="Calque2-a"
     style="display:none"
     transform="translate(1000,249.3521)">
    <path
       style="fill:#ffd42a;stroke:none;display:inline"
       d="m -254.55844,152.36218 c 0,0 -96.97465,0 -64.64976,-50 32.32488,-49.999997 84.85281,0 84.85281,0 0,0 24.25355,23.12376 30.20097,50 3.7726,17.04835 -17.93153,34.98916 0.1036,51.47186 12.07972,11.03992 57.33323,-12.77954 88.71708,-7.10575 89.340285,16.15157 209.80128,13.10999 248.67388,-23.48598 52.52793,-49.45156 96.38291,-120.880127 106.48443,-120.880127 10.10153,0 93.52577,155.512477 119.78974,153.492167 26.26396,-2.02031 -18.18275,41.37034 -70.71068,-6.06092 C 236.3757,152.36218 285.76293,92.809103 239.29591,152.36218 192.8289,211.91527 163.64471,234.50504 0,234.50504 c -163.64471,0 -244.45692,-35.67584 -258.59905,-35.67584 -14.14214,0 12.12183,9.04545 -46.46702,11.06576 -58.58885,2.02031 52.8233,-19.22324 -18.18274,-57.53278 -30.22651,-16.30796 68.69037,0 68.69037,0 z"
       id="path6015"
       inkscape:connector-curvature="0"
       sodipodi:nodetypes="cscssssssssssssc" />
    <path
       style="fill:#ffd42a;stroke:none;display:inline"
       d="m -18.182746,73.524366 c -9.091373,-1.010152 -25.253813,1.010153 -47.477169,13.131983 -22.223356,12.121831 -58.588845,22.223361 -33.335034,31.314731 25.253813,9.09137 39.395949,14.14213 69.700525,11.11168 30.3045765,-3.03046 55.55839,-9.09138 82.832509,-16.16244 27.274119,-7.07107 51.517775,-13.131988 58.588845,-28.284276 7.07107,-15.152288 11.11168,-15.152288 -20.203048,-15.152288 -31.314729,0 -110.106628,4.04061 -110.106628,4.04061 z"
       id="path6021"
       inkscape:connector-curvature="0" />
    <path
       style="fill:#ffd42a;fill-opacity:1;stroke:none;display:inline"
       d="m -440.75854,161.62559 c 0,0 -228.57142,17.14286 -294.28571,11.42857 -65.71429,-5.71428 -171.42857,-117.600296 -77.14286,-117.600296 94.28572,0 140,0 171.42857,0 31.42858,0 22.85715,73.828266 51.42858,0 28.57142,-73.828272 37.14285,-102.3997 71.42857,-85.256843 34.28571,17.142857 28.57143,88.571428 114.28571,25.714285 85.71429,-62.857142 45.71429,-68.571428 102.85714,-74.285714 57.14286,-5.714281 65.71429,-34.285712 91.42858,8.571429 25.71428,42.857143 -8.57143,54.285714 34.28571,54.285714 42.85715,0 140.000004,-11.428571 140.000004,-28.571429 0,-17.142857 74.285714,-57.142856 108.57143,-25.714285 34.285706,31.428571 94.285706,125.256843 48.571426,125.256843 -45.714286,0 -31.428566,0 -94.285713,0 -62.857143,0 91.428563,-57.6003 -62.857143,0 -154.285714,57.600296 -165.714294,117.600296 -82.857144,103.314586 82.857144,-14.28572 191.428574,17.6003 225.71428,-42.85714 34.28572,-60.457446 60,-105.714289 108.57143,-134.285718 48.57143,-28.571428 240,-51.428572 317.14286,-25.714286 3.59395,1.197982 -14.10883,11.551756 -4.48316,9.695057 10.67443,-2.058994 48.76097,-16.343997 53.09843,-14.587843 3.20484,1.297578 -50.33329,29.254952 -47.049,30.651053 3.307,1.405755 68.07978,-25.891984 71.45504,-24.400141 4.06094,1.794908 -21.29746,19.53997 -17.15737,21.437411 69.72915,31.957509 149.16134,76.747021 186.9932,76.747021 48.57143,0 140,74.743156 -5.71428,94.743156 -145.71429,20 -108.57143,14.28571 -208.57143,28.57143 -100,14.28571 -74.28572,25.71428 -162.85715,14.28571 -88.57142,-11.42857 -94.28571,-137.600296 -120,-137.600296 -25.71428,0 -22.85714,-66.171729 -80,0 -57.14285,66.171726 -57.14285,54.743156 -74.28571,83.314586 -17.14286,28.57143 20,28.57143 -31.428566,40 -51.428573,11.42857 -128.57143,14.28571 -128.57143,11.42857 0,-2.85714 134.28571,-2.85714 0,-11.42857 -134.285714,-8.57143 -157.142864,48.57143 -154.285714,-5.71429 2.85714,-54.28571 31.42857,-117.600296 48.57142,-117.600296 17.14287,0 165.714294,0 105.714294,0 -60,0 -68.571424,0 -117.142864,0 -48.57143,0 -25.71428,0 -91.42857,0 -65.71428,0 -48.57143,0 -77.14286,0 -28.57142,0 -65.71428,-63.314586 -62.85714,0 2.85714,63.314586 2.85714,71.886016 17.14286,89.028866 14.28571,17.14286 71.42857,37.14286 5.71428,45.71429 -65.71428,8.57143 -85.71428,-42.85714 -85.71428,-42.85714 z"
       id="path5997"
       inkscape:connector-curvature="0"
       sodipodi:nodetypes="csssssssssssssssssssssssssssssssssssssssssscc" />
    <path
       style="fill:#ffd42a;stroke:none;display:inline"
       d="m -167.14286,-93.352104 c 2.85715,24.285715 5.71429,48.571429 37.14286,45.714286 31.428571,-2.857143 40,-40 75.714286,-50 35.714285,-10.000002 140,-11.428572 157.142854,12.857143 17.14286,24.285714 47.14286,45.714286 70,42.857143 22.85715,-2.857143 21.42857,7.142857 88.57143,-12.857143 67.14286,-20 285.71429,-18.571429 192.85714,-37.142857 -92.85714,-18.571428 -407.647791,-40.228658 -602.85714,-22.857148 -99.94517,8.89403 -174.61764,-13.02963 -300.71428,-13.57142 -126.09664,-0.54179 -486.75654,-26.79741 -463.83434,132.341875 11.88744,82.529517 93.60566,-63.478307 250.13539,-2.0443903 61.96668,24.3203363 -40.84585,-58.5272217 30.73849,-76.4252797 62.29409,-15.575237 114.40496,13.918371 150.67189,20.074907 36.26693,6.156536 39.38665,44.238192 67.28857,13.910027 32.85715,-35.714281 15.71428,-40 42.85714,-52.857143 27.14286,-12.857146 32.85714,-14.285716 71.42857,-12.857146 38.57143,1.42857 132.85714,12.857146 132.85714,12.857146 z"
       id="path6023"
       inkscape:connector-curvature="0"
       sodipodi:nodetypes="cssssssszasszsssc" />
  </g>
  <g
     inkscape:groupmode="layer"
     id="layer6"
     inkscape:label="Calque2-b"
     style="display:inline"
     transform="translate(1000,249.3521)">
    <rect
       style="fill:#ff7f2a;fill-opacity:1;stroke:none;display:inline"
       id="rect6011"
       width="271.42856"
       height="200"
       x="-864.28571"
       y="-47.637817" />
    <rect
       y="-47.637817"
       x="-507.14285"
       height="200"
       width="271.42856"
       id="rect6039"
       style="fill:#ffd42a;fill-opacity:1;stroke:none;display:inline" />
    <rect
       style="fill:#ffd42a;fill-opacity:1;stroke:none;display:inline"
       id="rect6041"
       width="271.42856"
       height="200"
       x="218.57143"
       y="-47.637817" />
    <rect
       y="-47.637817"
       x="590"
       height="200"
       width="271.42856"
       id="rect6043"
       style="fill:#ffd42a;fill-opacity:1;stroke:none;display:inline" />
  </g>
  <g
     inkscape:groupmode="layer"
     id="layer4"
     inkscape:label="Calque3"
     style="display:inline"
     transform="translate(1000,249.3521)">
    <rect
       style="fill:#803300;fill-opacity:1;stroke:none"
       id="rect6050"
       width="138.57143"
       height="138.57143"
       x="-497.85715"
       y="556.64789" />
  </g>
  <g
     inkscape:groupmode="layer"
     id="layer8"
     inkscape:label="Calque3-a"
     style="display:none"
     transform="translate(1000,249.3521)">
    <path
       style="fill:#803300;stroke:none"
       d="m -796.50528,20.996433 c -4.04061,8.081221 -63.13454,13.58859 -44.44671,47.47717 18.68782,33.888577 34.34518,33.888577 51.51778,33.888577 17.17259,0 63.6418,-15.60379 60.86278,-49.999997 -2.77901,-34.396207 -97.73335,-66.216013 -64.39832,-66.216013 33.33504,0 78.03319,22.6774123 71.21576,44.446712 -6.81744,21.769301 13.63706,92.885568 44.95178,82.327428 31.31473,-10.55813 73.23606,-97.372573 53.03301,-110.5581274 -20.20305,-13.1855546 -141.42135,-38.9444446 -163.13963,-35.9139866 -21.71828,3.030457 -42.93149,35.9139866 -31.31473,35.9139866 11.61675,0 21.71828,18.6342504 21.71828,18.6342504 z"
       id="path6058"
       inkscape:connector-curvature="0" />
  </g>
  <g
     inkscape:groupmode="layer"
     id="layer9"
     inkscape:label="Calque3-b"
     style="display:inline"
     transform="translate(1000,249.3521)">
    <rect
       style="fill:#803300;fill-opacity:1;stroke:none;display:inline"
       id="rect6052"
       width="40.357197"
       height="100"
       x="-829.28571"
       y="2.3621826" />
  </g>
  <g
     inkscape:groupmode="layer"
     id="layer2"
     inkscape:label="export"
     style="display:inline"
     transform="translate(1000,249.3521)">
    <g
       id="g5882"
       transform="translate(-469.38454,343.34909)">
      <path
         inkscape:connector-curvature="0"
         d="m -350.04712,-290.98691 6.7441,0 m 6.7444,0 6.7442,0 m 20.233,0 6.7441,0 m 6.7444,0 6.7444,0 m 60.6987,0 6.7442,0 m 6.7444,0 6.7441,0 m 20.233,0 6.7442,0 m 6.7444,0 6.7441,0 m 182.096,0 6.7444,0 m 6.7442,0 6.7444,0 m 20.233,0 6.7442,0 m 6.7444,0 6.7441,0 m 60.6987,0 6.7444,0 m 6.7442,0 6.7444,0 m 20.2327,0 6.7444,0 m 6.7444,0 6.7442,0 m 546.28774,0 6.7444,0 m 6.7442,0 6.7444,0 m 20.2327,0 6.7444,0 m 6.7444,0 6.7442,0 m 60.6987,0 6.7444,0 m 6.7441,0 6.7444,0 m 20.2328,0 6.7444,0 m 6.7441,0 6.7444,0 m 182.09598,0 6.7442,0 m 6.7444,0 6.7442,0 m 20.2329,0 6.7442,0 m 6.7444,0 6.7444,0 m 60.6984,0 6.7444,0 m 6.7444,0 6.7442,0 m 20.233,0 6.7441,0 m 6.7444,0 6.7442,0"
         style="fill:none;stroke:#000000;stroke-width:6.79604673;stroke-linecap:butt;stroke-linejoin:round;stroke-opacity:0.39215686"
         id="path4880-0" />
      <path
         inkscape:connector-curvature="0"
         d="m 1287.7128,-290.95241 -2.2466,0 m -2.2467,0 -2.2465,0 m -6.7397,0 -2.2466,0 m -2.2466,0 -2.2466,0 m -20.2192,0 -2.2465,0 m -2.2465,0 -2.2467,0 m -6.7397,0 -2.2466,0 m -2.2466,0 -2.2465,0 m -60.6576,0 -2.2465,0 m -2.2467,0 -2.2465,0 m -6.7398,0 -2.2466,0 m -2.2465,0 -2.2466,0 m -20.2192,0 -2.2466,0 m -2.2466,0 -2.2465,0 m -6.7398,0 -2.2465,0 m -2.2467,0 -2.2465,0 m -181.97268,0 -2.2466,0 m -2.2467,0 -2.2465,0 m -6.7397,0 -2.2466,0 m -2.2465,0 -2.2467,0 m -20.2191,0 -2.2466,0 m -2.2466,0 -2.2466,0 m -6.7397,0 -2.2466,0 m -2.2465,0 -2.2467,0 m -60.6575,0 -2.2466,0 m -2.2466,0 -2.2466,0 m -6.7397,0 -2.2466,0 m -2.2466,0 -2.2465,0 m -20.2192,0 -2.2467,0 m -2.2465,0 -2.2465,0 m -6.7398,0 -2.2466,0 m -2.2466,0 -2.2466,0 m -545.91834,0 -2.2466,0 m -2.2465,0 -2.2467,0 m -6.7396,0 -2.2467,0 m -2.2466,0 -2.2466,0 m -20.2192,0 -2.2466,0 m -2.2466,0 -2.2465,0 m -6.7398,0 -2.2465,0 m -2.2466,0 -2.2465,0 m -60.6577,0 -2.2465,0 m -2.2466,0 -2.2465,0 m -6.74,0 -2.2464,0 m -2.2466,0 -2.2466,0 m -20.2191,0 -2.2466,0 m -2.2467,0 -2.2465,0 m -6.7397,0 -2.2466,0 m -2.2466,0 -2.2465,0 m -181.9729,0 -2.2465,0 m -2.2466,0 -2.2466,0 m -6.7398,0 -2.2465,0 m -2.2466,0 -2.2465,0 m -20.2193,0 -2.2466,0 m -2.2465,0 -2.2465,0 m -6.7399,0 -2.2466,0 m -2.2464,0 -2.2467,0 m -60.6575,0 -2.2466,0 m -2.2465,0 -2.2467,0 m -6.7397,0 -2.2466,0 m -2.2466,0 -2.2465,0 m -20.2191,0 -2.2468,0 m -2.2465,0 -2.2466,0 m -6.7397,0 -2.2465,0 m -2.2466,0 -2.2467,0"
         style="fill:none;stroke:#000000;stroke-width:1.99842227;stroke-linecap:butt;stroke-linejoin:miter;stroke-opacity:1"
         id="path54908" />
    </g>
    <path
       id="path3319"
       style="fill:#000000;stroke:none;display:inline"
       d="m -481.42857,1533.7908 0,-3.9624 3.96238,0 0,3.9624 -3.96238,0 m 0,-11.8871 3.96238,0 0,3.9623 -3.96238,0 0,-3.9623 m 11.88711,0 0,3.9623 -3.96238,0 0,-3.9623 3.96238,0 m 0,11.8871 -3.96238,0 0,-3.9624 3.96238,0 0,3.9624 m -11.88711,-35.6614 3.96238,0 0,3.9623 -3.96238,0 0,-3.9623 m 11.88711,0 0,3.9623 -3.96238,0 0,-3.9623 3.96238,0 m 0,11.8871 -3.96238,0 0,-3.9623 3.96238,0 0,3.9623 m -11.88711,0 0,-3.9623 3.96238,0 0,3.9623 -3.96238,0 m 35.66137,-11.8871 0,3.9623 -3.96238,0 0,-3.9623 3.96238,0 m 0,11.8871 -3.96238,0 0,-3.9623 3.96238,0 0,3.9623 m -11.88711,0 0,-3.9623 3.96235,0 0,3.9623 -3.96235,0 m 0,-11.8871 3.96235,0 0,3.9623 -3.96235,0 0,-3.9623 m 11.88711,35.6614 -3.96238,0 0,-3.9624 3.96238,0 0,3.9624 m -11.88711,0 0,-3.9624 3.96235,0 0,3.9624 -3.96235,0 m 0,-11.8871 3.96235,0 0,3.9623 -3.96235,0 0,-3.9623 m 11.88711,0 0,3.9623 -3.96238,0 0,-3.9623 3.96238,0 m -35.66137,-95.097 3.96238,0 0,3.9623 -3.96238,0 0,-3.9623 m 11.88711,0 0,3.9623 -3.96238,0 0,-3.9623 3.96238,0 m 0,11.8871 -3.96238,0 0,-3.9624 3.96238,0 0,3.9624 m -11.88711,0 0,-3.9624 3.96238,0 0,3.9624 -3.96238,0 m 35.66137,-11.8871 0,3.9623 -3.96238,0 0,-3.9623 3.96238,0 m 0,11.8871 -3.96238,0 0,-3.9624 3.96238,0 0,3.9624 m -11.88711,0 0,-3.9624 3.96235,0 0,3.9624 -3.96235,0 m 0,-11.8871 3.96235,0 0,3.9623 -3.96235,0 0,-3.9623 m 11.88711,35.6613 -3.96238,0 0,-3.9624 3.96238,0 0,3.9624 m -11.88711,0 0,-3.9624 3.96235,0 0,3.9624 -3.96235,0 m 0,-11.8871 3.96235,0 0,3.9624 -3.96235,0 0,-3.9624 m 11.88711,0 0,3.9624 -3.96238,0 0,-3.9624 3.96238,0 m -35.66137,11.8871 0,-3.9624 3.96238,0 0,3.9624 -3.96238,0 m 0,-11.8871 3.96238,0 0,3.9624 -3.96238,0 0,-3.9624 m 11.88711,0 0,3.9624 -3.96238,0 0,-3.9624 3.96238,0 m 0,11.8871 -3.96238,0 0,-3.9624 3.96238,0 0,3.9624 m 95.09702,-35.6613 0,3.9623 -3.9624,0 0,-3.9623 3.9624,0 m 0,11.8871 -3.9624,0 0,-3.9624 3.9624,0 0,3.9624 m -11.88713,0 0,-3.9624 3.96239,0 0,3.9624 -3.96239,0 m 0,-11.8871 3.96239,0 0,3.9623 -3.96239,0 0,-3.9623 m 11.88713,35.6613 -3.9624,0 0,-3.9624 3.9624,0 0,3.9624 m -11.88713,0 0,-3.9624 3.96239,0 0,3.9624 -3.96239,0 m 0,-11.8871 3.96239,0 0,3.9624 -3.96239,0 0,-3.9624 m 11.88713,0 0,3.9624 -3.9624,0 0,-3.9624 3.9624,0 m -35.66139,11.8871 0,-3.9624 3.96239,0 0,3.9624 -3.96239,0 m 0,-11.8871 3.96239,0 0,3.9624 -3.96239,0 0,-3.9624 m 11.88712,0 0,3.9624 -3.96235,0 0,-3.9624 3.96235,0 m 0,11.8871 -3.96235,0 0,-3.9624 3.96235,0 0,3.9624 m -11.88712,-35.6613 3.96239,0 0,3.9623 -3.96239,0 0,-3.9623 m 11.88712,0 0,3.9623 -3.96235,0 0,-3.9623 3.96235,0 m 0,11.8871 -3.96235,0 0,-3.9624 3.96235,0 0,3.9624 m -11.88712,0 0,-3.9624 3.96239,0 0,3.9624 -3.96239,0 m 35.66139,95.097 -3.9624,0 0,-3.9624 3.9624,0 0,3.9624 m -11.88713,0 0,-3.9624 3.96239,0 0,3.9624 -3.96239,0 m 0,-11.8871 3.96239,0 0,3.9623 -3.96239,0 0,-3.9623 m 11.88713,0 0,3.9623 -3.9624,0 0,-3.9623 3.9624,0 m -35.66139,11.8871 0,-3.9624 3.96239,0 0,3.9624 -3.96239,0 m 0,-11.8871 3.96239,0 0,3.9623 -3.96239,0 0,-3.9623 m 11.88712,0 0,3.9623 -3.96235,0 0,-3.9623 3.96235,0 m 0,11.8871 -3.96235,0 0,-3.9624 3.96235,0 0,3.9624 m -11.88712,-35.6614 3.96239,0 0,3.9623 -3.96239,0 0,-3.9623 m 11.88712,0 0,3.9623 -3.96235,0 0,-3.9623 3.96235,0 m 0,11.8871 -3.96235,0 0,-3.9623 3.96235,0 0,3.9623 m -11.88712,0 0,-3.9623 3.96239,0 0,3.9623 -3.96239,0 m 35.66139,-11.8871 0,3.9623 -3.9624,0 0,-3.9623 3.9624,0 m 0,11.8871 -3.9624,0 0,-3.9623 3.9624,0 0,3.9623 m -11.88713,0 0,-3.9623 3.96239,0 0,3.9623 -3.96239,0 m 0,-11.8871 3.96239,0 0,3.9623 -3.96239,0 0,-3.9623 m -95.097,-285.2911 3.96238,0 0,3.9624 -3.96238,0 0,-3.9624 m 11.88711,0 0,3.9624 -3.96238,0 0,-3.9624 3.96238,0 m 0,11.8872 -3.96238,0 0,-3.9624 3.96238,0 0,3.9624 m -11.88711,0 0,-3.9624 3.96238,0 0,3.9624 -3.96238,0 m 35.66137,-11.8872 0,3.9624 -3.96238,0 0,-3.9624 3.96238,0 m 0,11.8872 -3.96238,0 0,-3.9624 3.96238,0 0,3.9624 m -11.88711,0 0,-3.9624 3.96235,0 0,3.9624 -3.96235,0 m 0,-11.8872 3.96235,0 0,3.9624 -3.96235,0 0,-3.9624 m 11.88711,35.6614 -3.96238,0 0,-3.9624 3.96238,0 0,3.9624 m -11.88711,0 0,-3.9624 3.96235,0 0,3.9624 -3.96235,0 m 0,-11.8871 3.96235,0 0,3.9623 -3.96235,0 0,-3.9623 m 11.88711,0 0,3.9623 -3.96238,0 0,-3.9623 3.96238,0 m -35.66137,11.8871 0,-3.9624 3.96238,0 0,3.9624 -3.96238,0 m 0,-11.8871 3.96238,0 0,3.9623 -3.96238,0 0,-3.9623 m 11.88711,0 0,3.9623 -3.96238,0 0,-3.9623 3.96238,0 m 0,11.8871 -3.96238,0 0,-3.9624 3.96238,0 0,3.9624 m 95.09702,-35.6614 0,3.9624 -3.9624,0 0,-3.9624 3.9624,0 m 0,11.8872 -3.9624,0 0,-3.9624 3.9624,0 0,3.9624 m -11.88713,0 0,-3.9624 3.96239,0 0,3.9624 -3.96239,0 m 0,-11.8872 3.96239,0 0,3.9624 -3.96239,0 0,-3.9624 m 11.88713,35.6614 -3.9624,0 0,-3.9624 3.9624,0 0,3.9624 m -11.88713,0 0,-3.9624 3.96239,0 0,3.9624 -3.96239,0 m 0,-11.8871 3.96239,0 0,3.9623 -3.96239,0 0,-3.9623 m 11.88713,0 0,3.9623 -3.9624,0 0,-3.9623 3.9624,0 m -35.66139,11.8871 0,-3.9624 3.96239,0 0,3.9624 -3.96239,0 m 0,-11.8871 3.96239,0 0,3.9623 -3.96239,0 0,-3.9623 m 11.88712,0 0,3.9623 -3.96235,0 0,-3.9623 3.96235,0 m 0,11.8871 -3.96235,0 0,-3.9624 3.96235,0 0,3.9624 m -11.88712,-35.6614 3.96239,0 0,3.9624 -3.96239,0 0,-3.9624 m 11.88712,0 0,3.9624 -3.96235,0 0,-3.9624 3.96235,0 m 0,11.8872 -3.96235,0 0,-3.9624 3.96235,0 0,3.9624 m -11.88712,0 0,-3.9624 3.96239,0 0,3.9624 -3.96239,0 m 35.66139,95.097 -3.9624,0 0,-3.9624 3.9624,0 0,3.9624 m -11.88713,0 0,-3.9624 3.96239,0 0,3.9624 -3.96239,0 m 0,-11.8872 3.96239,0 0,3.9624 -3.96239,0 0,-3.9624 m 11.88713,0 0,3.9624 -3.9624,0 0,-3.9624 3.9624,0 m -35.66139,11.8872 0,-3.9624 3.96239,0 0,3.9624 -3.96239,0 m 0,-11.8872 3.96239,0 0,3.9624 -3.96239,0 0,-3.9624 m 11.88712,0 0,3.9624 -3.96235,0 0,-3.9624 3.96235,0 m 0,11.8872 -3.96235,0 0,-3.9624 3.96235,0 0,3.9624 m -11.88712,-35.6614 3.96239,0 0,3.9624 -3.96239,0 0,-3.9624 m 11.88712,0 0,3.9624 -3.96235,0 0,-3.9624 3.96235,0 m 0,11.8871 -3.96235,0 0,-3.9623 3.96235,0 0,3.9623 m -11.88712,0 0,-3.9623 3.96239,0 0,3.9623 -3.96239,0 m 35.66139,-11.8871 0,3.9624 -3.9624,0 0,-3.9624 3.9624,0 m 0,11.8871 -3.9624,0 0,-3.9623 3.9624,0 0,3.9623 m -11.88713,0 0,-3.9623 3.96239,0 0,3.9623 -3.96239,0 m 0,-11.8871 3.96239,0 0,3.9624 -3.96239,0 0,-3.9624 m -95.097,35.6614 0,-3.9624 3.96238,0 0,3.9624 -3.96238,0 m 0,-11.8872 3.96238,0 0,3.9624 -3.96238,0 0,-3.9624 m 11.88711,0 0,3.9624 -3.96238,0 0,-3.9624 3.96238,0 m 0,11.8872 -3.96238,0 0,-3.9624 3.96238,0 0,3.9624 m -11.88711,-35.6614 3.96238,0 0,3.9624 -3.96238,0 0,-3.9624 m 11.88711,0 0,3.9624 -3.96238,0 0,-3.9624 3.96238,0 m 0,11.8871 -3.96238,0 0,-3.9623 3.96238,0 0,3.9623 m -11.88711,0 0,-3.9623 3.96238,0 0,3.9623 -3.96238,0 m 35.66137,-11.8871 0,3.9624 -3.96238,0 0,-3.9624 3.96238,0 m 0,11.8871 -3.96238,0 0,-3.9623 3.96238,0 0,3.9623 m -11.88711,0 0,-3.9623 3.96235,0 0,3.9623 -3.96235,0 m 0,-11.8871 3.96235,0 0,3.9624 -3.96235,0 0,-3.9624 m 11.88711,35.6614 -3.96238,0 0,-3.9624 3.96238,0 0,3.9624 m -11.88711,0 0,-3.9624 3.96235,0 0,3.9624 -3.96235,0 m 0,-11.8872 3.96235,0 0,3.9624 -3.96235,0 0,-3.9624 m 11.88711,0 0,3.9624 -3.96238,0 0,-3.9624 3.96238,0 m 285.29102,-95.097 0,3.9624 -3.96238,0 0,-3.9624 3.96238,0 m 0,11.8872 -3.96238,0 0,-3.9624 3.96238,0 0,3.9624 m -11.88715,0 0,-3.9624 3.96239,0 0,3.9624 -3.96239,0 m 0,-11.8872 3.96239,0 0,3.9624 -3.96239,0 0,-3.9624 m 11.88715,35.6614 -3.96238,0 0,-3.9624 3.96238,0 0,3.9624 m -11.88715,0 0,-3.9624 3.96239,0 0,3.9624 -3.96239,0 m 0,-11.8871 3.96239,0 0,3.9623 -3.96239,0 0,-3.9623 m 11.88715,0 0,3.9623 -3.96238,0 0,-3.9623 3.96238,0 m -35.66137,11.8871 0,-3.9624 3.96234,0 0,3.9624 -3.96234,0 m 0,-11.8871 3.96234,0 0,3.9623 -3.96234,0 0,-3.9623 m 11.88711,0 0,3.9623 -3.96239,0 0,-3.9623 3.96239,0 m 0,11.8871 -3.96239,0 0,-3.9624 3.96239,0 0,3.9624 m -11.88711,-35.6614 3.96234,0 0,3.9624 -3.96234,0 0,-3.9624 m 11.88711,0 0,3.9624 -3.96239,0 0,-3.9624 3.96239,0 m 0,11.8872 -3.96239,0 0,-3.9624 3.96239,0 0,3.9624 m -11.88711,0 0,-3.9624 3.96234,0 0,3.9624 -3.96234,0 m 35.66137,95.097 -3.96238,0 0,-3.9624 3.96238,0 0,3.9624 m -11.88715,0 0,-3.9624 3.96239,0 0,3.9624 -3.96239,0 m 0,-11.8872 3.96239,0 0,3.9624 -3.96239,0 0,-3.9624 m 11.88715,0 0,3.9624 -3.96238,0 0,-3.9624 3.96238,0 m -35.66137,11.8872 0,-3.9624 3.96234,0 0,3.9624 -3.96234,0 m 0,-11.8872 3.96234,0 0,3.9624 -3.96234,0 0,-3.9624 m 11.88711,0 0,3.9624 -3.96239,0 0,-3.9624 3.96239,0 m 0,11.8872 -3.96239,0 0,-3.9624 3.96239,0 0,3.9624 m -11.88711,-35.6614 3.96234,0 0,3.9624 -3.96234,0 0,-3.9624 m 11.88711,0 0,3.9624 -3.96239,0 0,-3.9624 3.96239,0 m 0,11.8871 -3.96239,0 0,-3.9623 3.96239,0 0,3.9623 m -11.88711,0 0,-3.9623 3.96234,0 0,3.9623 -3.96234,0 m 35.66137,-11.8871 0,3.9624 -3.96238,0 0,-3.9624 3.96238,0 m 0,11.8871 -3.96238,0 0,-3.9623 3.96238,0 0,3.9623 m -11.88715,0 0,-3.9623 3.96239,0 0,3.9623 -3.96239,0 m 0,-11.8871 3.96239,0 0,3.9624 -3.96239,0 0,-3.9624 m -95.097,35.6614 0,-3.9624 3.96238,0 0,3.9624 -3.96238,0 m 0,-11.8872 3.96238,0 0,3.9624 -3.96238,0 0,-3.9624 m 11.88714,0 0,3.9624 -3.96238,0 0,-3.9624 3.96238,0 m 0,11.8872 -3.96238,0 0,-3.9624 3.96238,0 0,3.9624 m -11.88714,-35.6614 3.96238,0 0,3.9624 -3.96238,0 0,-3.9624 m 11.88714,0 0,3.9624 -3.96238,0 0,-3.9624 3.96238,0 m 0,11.8871 -3.96238,0 0,-3.9623 3.96238,0 0,3.9623 m -11.88714,0 0,-3.9623 3.96238,0 0,3.9623 -3.96238,0 m 35.6614,-11.8871 0,3.9624 -3.96238,0 0,-3.9624 3.96238,0 m 0,11.8871 -3.96238,0 0,-3.9623 3.96238,0 0,3.9623 m -11.88715,0 0,-3.9623 3.96238,0 0,3.9623 -3.96238,0 m 0,-11.8871 3.96238,0 0,3.9624 -3.96238,0 0,-3.9624 m 11.88715,35.6614 -3.96238,0 0,-3.9624 3.96238,0 0,3.9624 m -11.88715,0 0,-3.9624 3.96238,0 0,3.9624 -3.96238,0 m 0,-11.8872 3.96238,0 0,3.9624 -3.96238,0 0,-3.9624 m 11.88715,0 0,3.9624 -3.96238,0 0,-3.9624 3.96238,0 m -35.6614,-95.097 3.96238,0 0,3.9624 -3.96238,0 0,-3.9624 m 11.88714,0 0,3.9624 -3.96238,0 0,-3.9624 3.96238,0 m 0,11.8872 -3.96238,0 0,-3.9624 3.96238,0 0,3.9624 m -11.88714,0 0,-3.9624 3.96238,0 0,3.9624 -3.96238,0 m 35.6614,-11.8872 0,3.9624 -3.96238,0 0,-3.9624 3.96238,0 m 0,11.8872 -3.96238,0 0,-3.9624 3.96238,0 0,3.9624 m -11.88715,0 0,-3.9624 3.96238,0 0,3.9624 -3.96238,0 m 0,-11.8872 3.96238,0 0,3.9624 -3.96238,0 0,-3.9624 m 11.88715,35.6614 -3.96238,0 0,-3.9624 3.96238,0 0,3.9624 m -11.88715,0 0,-3.9624 3.96238,0 0,3.9624 -3.96238,0 m 0,-11.8871 3.96238,0 0,3.9623 -3.96238,0 0,-3.9623 m 11.88715,0 0,3.9623 -3.96238,0 0,-3.9623 3.96238,0 m -35.6614,11.8871 0,-3.9624 3.96238,0 0,3.9624 -3.96238,0 m 0,-11.8871 3.96238,0 0,3.9623 -3.96238,0 0,-3.9623 m 11.88714,0 0,3.9623 -3.96238,0 0,-3.9623 3.96238,0 m 0,11.8871 -3.96238,0 0,-3.9624 3.96238,0 0,3.9624 m 95.09701,285.2911 -3.96238,0 0,-3.9624 3.96238,0 0,3.9624 m -11.88715,0 0,-3.9624 3.96239,0 0,3.9624 -3.96239,0 m 0,-11.8871 3.96239,0 0,3.9623 -3.96239,0 0,-3.9623 m 11.88715,0 0,3.9623 -3.96238,0 0,-3.9623 3.96238,0 m -35.66137,11.8871 0,-3.9624 3.96234,0 0,3.9624 -3.96234,0 m 0,-11.8871 3.96234,0 0,3.9623 -3.96234,0 0,-3.9623 m 11.88711,0 0,3.9623 -3.96239,0 0,-3.9623 3.96239,0 m 0,11.8871 -3.96239,0 0,-3.9624 3.96239,0 0,3.9624 m -11.88711,-35.6614 3.96234,0 0,3.9623 -3.96234,0 0,-3.9623 m 11.88711,0 0,3.9623 -3.96239,0 0,-3.9623 3.96239,0 m 0,11.8871 -3.96239,0 0,-3.9623 3.96239,0 0,3.9623 m -11.88711,0 0,-3.9623 3.96234,0 0,3.9623 -3.96234,0 m 35.66137,-11.8871 0,3.9623 -3.96238,0 0,-3.9623 3.96238,0 m 0,11.8871 -3.96238,0 0,-3.9623 3.96238,0 0,3.9623 m -11.88715,0 0,-3.9623 3.96239,0 0,3.9623 -3.96239,0 m 0,-11.8871 3.96239,0 0,3.9623 -3.96239,0 0,-3.9623 m -95.097,35.6614 0,-3.9624 3.96238,0 0,3.9624 -3.96238,0 m 0,-11.8871 3.96238,0 0,3.9623 -3.96238,0 0,-3.9623 m 11.88714,0 0,3.9623 -3.96238,0 0,-3.9623 3.96238,0 m 0,11.8871 -3.96238,0 0,-3.9624 3.96238,0 0,3.9624 m -11.88714,-35.6614 3.96238,0 0,3.9623 -3.96238,0 0,-3.9623 m 11.88714,0 0,3.9623 -3.96238,0 0,-3.9623 3.96238,0 m 0,11.8871 -3.96238,0 0,-3.9623 3.96238,0 0,3.9623 m -11.88714,0 0,-3.9623 3.96238,0 0,3.9623 -3.96238,0 m 35.6614,-11.8871 0,3.9623 -3.96238,0 0,-3.9623 3.96238,0 m 0,11.8871 -3.96238,0 0,-3.9623 3.96238,0 0,3.9623 m -11.88715,0 0,-3.9623 3.96238,0 0,3.9623 -3.96238,0 m 0,-11.8871 3.96238,0 0,3.9623 -3.96238,0 0,-3.9623 m 11.88715,35.6614 -3.96238,0 0,-3.9624 3.96238,0 0,3.9624 m -11.88715,0 0,-3.9624 3.96238,0 0,3.9624 -3.96238,0 m 0,-11.8871 3.96238,0 0,3.9623 -3.96238,0 0,-3.9623 m 11.88715,0 0,3.9623 -3.96238,0 0,-3.9623 3.96238,0 m -35.6614,-95.097 3.96238,0 0,3.9623 -3.96238,0 0,-3.9623 m 11.88714,0 0,3.9623 -3.96238,0 0,-3.9623 3.96238,0 m 0,11.8871 -3.96238,0 0,-3.9624 3.96238,0 0,3.9624 m -11.88714,0 0,-3.9624 3.96238,0 0,3.9624 -3.96238,0 m 35.6614,-11.8871 0,3.9623 -3.96238,0 0,-3.9623 3.96238,0 m 0,11.8871 -3.96238,0 0,-3.9624 3.96238,0 0,3.9624 m -11.88715,0 0,-3.9624 3.96238,0 0,3.9624 -3.96238,0 m 0,-11.8871 3.96238,0 0,3.9623 -3.96238,0 0,-3.9623 m 11.88715,35.6613 -3.96238,0 0,-3.9624 3.96238,0 0,3.9624 m -11.88715,0 0,-3.9624 3.96238,0 0,3.9624 -3.96238,0 m 0,-11.8871 3.96238,0 0,3.9624 -3.96238,0 0,-3.9624 m 11.88715,0 0,3.9624 -3.96238,0 0,-3.9624 3.96238,0 m -35.6614,11.8871 0,-3.9624 3.96238,0 0,3.9624 -3.96238,0 m 0,-11.8871 3.96238,0 0,3.9624 -3.96238,0 0,-3.9624 m 11.88714,0 0,3.9624 -3.96238,0 0,-3.9624 3.96238,0 m 0,11.8871 -3.96238,0 0,-3.9624 3.96238,0 0,3.9624 m 95.09701,-35.6613 0,3.9623 -3.96238,0 0,-3.9623 3.96238,0 m 0,11.8871 -3.96238,0 0,-3.9624 3.96238,0 0,3.9624 m -11.88715,0 0,-3.9624 3.96239,0 0,3.9624 -3.96239,0 m 0,-11.8871 3.96239,0 0,3.9623 -3.96239,0 0,-3.9623 m 11.88715,35.6613 -3.96238,0 0,-3.9624 3.96238,0 0,3.9624 m -11.88715,0 0,-3.9624 3.96239,0 0,3.9624 -3.96239,0 m 0,-11.8871 3.96239,0 0,3.9624 -3.96239,0 0,-3.9624 m 11.88715,0 0,3.9624 -3.96238,0 0,-3.9624 3.96238,0 m -35.66137,11.8871 0,-3.9624 3.96234,0 0,3.9624 -3.96234,0 m 0,-11.8871 3.96234,0 0,3.9624 -3.96234,0 0,-3.9624 m 11.88711,0 0,3.9624 -3.96239,0 0,-3.9624 3.96239,0 m 0,11.8871 -3.96239,0 0,-3.9624 3.96239,0 0,3.9624 m -11.88711,-35.6613 3.96234,0 0,3.9623 -3.96234,0 0,-3.9623 m 11.88711,0 0,3.9623 -3.96239,0 0,-3.9623 3.96239,0 m 0,11.8871 -3.96239,0 0,-3.9624 3.96239,0 0,3.9624 m -11.88711,0 0,-3.9624 3.96234,0 0,3.9624 -3.96234,0 m -285.29103,-867.76023 3.96238,0 0,3.96239 -3.96238,0 0,-3.96239 m 11.88711,0 0,3.96239 -3.96237,0 0,-3.96239 3.96237,0 m 0,11.88715 -3.96237,0 0,-3.96238 3.96237,0 0,3.96238 m -11.88711,0 0,-3.96238 3.96238,0 0,3.96238 -3.96238,0 m 35.66137,-11.88715 0,3.96239 -3.96238,0 0,-3.96239 3.96238,0 m 0,11.88715 -3.96238,0 0,-3.96238 3.96238,0 0,3.96238 m -11.88711,0 0,-3.96238 3.96235,0 0,3.96238 -3.96235,0 m 0,-11.88715 3.96235,0 0,3.96239 -3.96235,0 0,-3.96239 m 11.88711,35.66137 -3.96238,0 0,-3.96238 3.96238,0 0,3.96238 m -11.88711,0 0,-3.96238 3.96235,0 0,3.96238 -3.96235,0 m 0,-11.88711 3.96235,0 0,3.96238 -3.96235,0 0,-3.96238 m 11.88711,0 0,3.96238 -3.96238,0 0,-3.96238 3.96238,0 m -35.66137,11.88711 0,-3.96238 3.96238,0 0,3.96238 -3.96238,0 m 0,-11.88711 3.96238,0 0,3.96238 -3.96238,0 0,-3.96238 m 11.88711,0 0,3.96238 -3.96237,0 0,-3.96238 3.96237,0 m 0,11.88711 -3.96237,0 0,-3.96238 3.96237,0 0,3.96238 m 95.09702,-35.66137 0,3.96239 -3.9624,0 0,-3.96239 3.9624,0 m 0,11.88715 -3.9624,0 0,-3.96238 3.9624,0 0,3.96238 m -11.88713,0 0,-3.96238 3.96239,0 0,3.96238 -3.96239,0 m 0,-11.88715 3.96239,0 0,3.96239 -3.96239,0 0,-3.96239 m 11.88713,35.66137 -3.9624,0 0,-3.96238 3.9624,0 0,3.96238 m -11.88713,0 0,-3.96238 3.96239,0 0,3.96238 -3.96239,0 m 0,-11.88711 3.96239,0 0,3.96238 -3.96239,0 0,-3.96238 m 11.88713,0 0,3.96238 -3.9624,0 0,-3.96238 3.9624,0 m -35.66139,11.88711 0,-3.96238 3.9624,0 0,3.96238 -3.9624,0 m 0,-11.88711 3.9624,0 0,3.96238 -3.9624,0 0,-3.96238 m 11.88712,0 0,3.96238 -3.96235,0 0,-3.96238 3.96235,0 m 0,11.88711 -3.96235,0 0,-3.96238 3.96235,0 0,3.96238 m -11.88712,-35.66137 3.9624,0 0,3.96239 -3.9624,0 0,-3.96239 m 11.88712,0 0,3.96239 -3.96235,0 0,-3.96239 3.96235,0 m 0,11.88715 -3.96235,0 0,-3.96238 3.96235,0 0,3.96238 m -11.88712,0 0,-3.96238 3.9624,0 0,3.96238 -3.9624,0 m 35.66139,95.09701 -3.9624,0 0,-3.96239 3.9624,0 0,3.96239 m -11.88713,0 0,-3.96239 3.96239,0 0,3.96239 -3.96239,0 m 0,-11.88715 3.96239,0 0,3.96238 -3.96239,0 0,-3.96238 m 11.88713,0 0,3.96238 -3.9624,0 0,-3.96238 3.9624,0 m -35.66139,11.88715 0,-3.96239 3.9624,0 0,3.96239 -3.9624,0 m 0,-11.88715 3.9624,0 0,3.96238 -3.9624,0 0,-3.96238 m 11.88712,0 0,3.96238 -3.96235,0 0,-3.96238 3.96235,0 m 0,11.88715 -3.96235,0 0,-3.96239 3.96235,0 0,3.96239 m -11.88712,-35.66141 3.9624,0 0,3.96238 -3.9624,0 0,-3.96238 m 11.88712,0 0,3.96238 -3.96235,0 0,-3.96238 3.96235,0 m 0,11.88715 -3.96235,0 0,-3.96239 3.96235,0 0,3.96239 m -11.88712,0 0,-3.96239 3.9624,0 0,3.96239 -3.9624,0 m 35.66139,-11.88715 0,3.96238 -3.9624,0 0,-3.96238 3.9624,0 m 0,11.88715 -3.9624,0 0,-3.96239 3.9624,0 0,3.96239 m -11.88713,0 0,-3.96239 3.96239,0 0,3.96239 -3.96239,0 m 0,-11.88715 3.96239,0 0,3.96238 -3.96239,0 0,-3.96238 m -95.097,35.66141 0,-3.96239 3.96238,0 0,3.96239 -3.96238,0 m 0,-11.88715 3.96238,0 0,3.96238 -3.96238,0 0,-3.96238 m 11.88711,0 0,3.96238 -3.96237,0 0,-3.96238 3.96237,0 m 0,11.88715 -3.96237,0 0,-3.96239 3.96237,0 0,3.96239 m -11.88711,-35.66141 3.96238,0 0,3.96238 -3.96238,0 0,-3.96238 m 11.88711,0 0,3.96238 -3.96237,0 0,-3.96238 3.96237,0 m 0,11.88715 -3.96237,0 0,-3.96239 3.96237,0 0,3.96239 m -11.88711,0 0,-3.96239 3.96238,0 0,3.96239 -3.96238,0 m 35.66137,-11.88715 0,3.96238 -3.96238,0 0,-3.96238 3.96238,0 m 0,11.88715 -3.96238,0 0,-3.96239 3.96238,0 0,3.96239 m -11.88711,0 0,-3.96239 3.96235,0 0,3.96239 -3.96235,0 m 0,-11.88715 3.96235,0 0,3.96238 -3.96235,0 0,-3.96238 m 11.88711,35.66141 -3.96238,0 0,-3.96239 3.96238,0 0,3.96239 m -11.88711,0 0,-3.96239 3.96235,0 0,3.96239 -3.96235,0 m 0,-11.88715 3.96235,0 0,3.96238 -3.96235,0 0,-3.96238 m 11.88711,0 0,3.96238 -3.96238,0 0,-3.96238 3.96238,0 m 285.29102,-95.09701 0,3.96239 -3.96238,0 0,-3.96239 3.96238,0 m 0,11.88715 -3.96238,0 0,-3.96238 3.96238,0 0,3.96238 m -11.88715,0 0,-3.96238 3.96239,0 0,3.96238 -3.96239,0 m 0,-11.88715 3.96239,0 0,3.96239 -3.96239,0 0,-3.96239 m 11.88715,35.66137 -3.96238,0 0,-3.96238 3.96238,0 0,3.96238 m -11.88715,0 0,-3.96238 3.96239,0 0,3.96238 -3.96239,0 m 0,-11.88711 3.96239,0 0,3.96238 -3.96239,0 0,-3.96238 m 11.88715,0 0,3.96238 -3.96238,0 0,-3.96238 3.96238,0 m -35.66137,11.88711 0,-3.96238 3.96234,0 0,3.96238 -3.96234,0 m 0,-11.88711 3.96234,0 0,3.96238 -3.96234,0 0,-3.96238 m 11.88711,0 0,3.96238 -3.96239,0 0,-3.96238 3.96239,0 m 0,11.88711 -3.96239,0 0,-3.96238 3.96239,0 0,3.96238 m -11.88711,-35.66137 3.96234,0 0,3.96239 -3.96234,0 0,-3.96239 m 11.88711,0 0,3.96239 -3.96239,0 0,-3.96239 3.96239,0 m 0,11.88715 -3.96239,0 0,-3.96238 3.96239,0 0,3.96238 m -11.88711,0 0,-3.96238 3.96234,0 0,3.96238 -3.96234,0 m 35.66137,95.09701 -3.96238,0 0,-3.96239 3.96238,0 0,3.96239 m -11.88715,0 0,-3.96239 3.96239,0 0,3.96239 -3.96239,0 m 0,-11.88715 3.96239,0 0,3.96238 -3.96239,0 0,-3.96238 m 11.88715,0 0,3.96238 -3.96238,0 0,-3.96238 3.96238,0 m -35.66137,11.88715 0,-3.96239 3.96234,0 0,3.96239 -3.96234,0 m 0,-11.88715 3.96234,0 0,3.96238 -3.96234,0 0,-3.96238 m 11.88711,0 0,3.96238 -3.96239,0 0,-3.96238 3.96239,0 m 0,11.88715 -3.96239,0 0,-3.96239 3.96239,0 0,3.96239 m -11.88711,-35.66141 3.96234,0 0,3.96238 -3.96234,0 0,-3.96238 m 11.88711,0 0,3.96238 -3.96239,0 0,-3.96238 3.96239,0 m 0,11.88715 -3.96239,0 0,-3.96239 3.96239,0 0,3.96239 m -11.88711,0 0,-3.96239 3.96234,0 0,3.96239 -3.96234,0 m 35.66137,-11.88715 0,3.96238 -3.96238,0 0,-3.96238 3.96238,0 m 0,11.88715 -3.96238,0 0,-3.96239 3.96238,0 0,3.96239 m -11.88715,0 0,-3.96239 3.96239,0 0,3.96239 -3.96239,0 m 0,-11.88715 3.96239,0 0,3.96238 -3.96239,0 0,-3.96238 m -95.097,35.66141 0,-3.96239 3.96238,0 0,3.96239 -3.96238,0 m 0,-11.88715 3.96238,0 0,3.96238 -3.96238,0 0,-3.96238 m 11.88714,0 0,3.96238 -3.96238,0 0,-3.96238 3.96238,0 m 0,11.88715 -3.96238,0 0,-3.96239 3.96238,0 0,3.96239 m -11.88714,-35.66141 3.96238,0 0,3.96238 -3.96238,0 0,-3.96238 m 11.88714,0 0,3.96238 -3.96238,0 0,-3.96238 3.96238,0 m 0,11.88715 -3.96238,0 0,-3.96239 3.96238,0 0,3.96239 m -11.88714,0 0,-3.96239 3.96238,0 0,3.96239 -3.96238,0 m 35.6614,-11.88715 0,3.96238 -3.96238,0 0,-3.96238 3.96238,0 m 0,11.88715 -3.96238,0 0,-3.96239 3.96238,0 0,3.96239 m -11.88715,0 0,-3.96239 3.96238,0 0,3.96239 -3.96238,0 m 0,-11.88715 3.96238,0 0,3.96238 -3.96238,0 0,-3.96238 m 11.88715,35.66141 -3.96238,0 0,-3.96239 3.96238,0 0,3.96239 m -11.88715,0 0,-3.96239 3.96238,0 0,3.96239 -3.96238,0 m 0,-11.88715 3.96238,0 0,3.96238 -3.96238,0 0,-3.96238 m 11.88715,0 0,3.96238 -3.96238,0 0,-3.96238 3.96238,0 m -35.6614,-95.09701 3.96238,0 0,3.96239 -3.96238,0 0,-3.96239 m 11.88714,0 0,3.96239 -3.96238,0 0,-3.96239 3.96238,0 m 0,11.88715 -3.96238,0 0,-3.96238 3.96238,0 0,3.96238 m -11.88714,0 0,-3.96238 3.96238,0 0,3.96238 -3.96238,0 m 35.6614,-11.88715 0,3.96239 -3.96238,0 0,-3.96239 3.96238,0 m 0,11.88715 -3.96238,0 0,-3.96238 3.96238,0 0,3.96238 m -11.88715,0 0,-3.96238 3.96238,0 0,3.96238 -3.96238,0 m 0,-11.88715 3.96238,0 0,3.96239 -3.96238,0 0,-3.96239 m 11.88715,35.66137 -3.96238,0 0,-3.96238 3.96238,0 0,3.96238 m -11.88715,0 0,-3.96238 3.96238,0 0,3.96238 -3.96238,0 m 0,-11.88711 3.96238,0 0,3.96238 -3.96238,0 0,-3.96238 m 11.88715,0 0,3.96238 -3.96238,0 0,-3.96238 3.96238,0 m -35.6614,11.88711 0,-3.96238 3.96238,0 0,3.96238 -3.96238,0 m 0,-11.88711 3.96238,0 0,3.96238 -3.96238,0 0,-3.96238 m 11.88714,0 0,3.96238 -3.96238,0 0,-3.96238 3.96238,0 m 0,11.88711 -3.96238,0 0,-3.96238 3.96238,0 0,3.96238 m 95.09701,285.29102 -3.96238,0 0,-3.96238 3.96238,0 0,3.96238 m -11.88715,0 0,-3.96238 3.96239,0 0,3.96238 -3.96239,0 m 0,-11.88715 3.96239,0 0,3.96242 -3.96239,0 0,-3.96242 m 11.88715,0 0,3.96242 -3.96238,0 0,-3.96242 3.96238,0 m -35.66137,11.88715 0,-3.96238 3.96234,0 0,3.96238 -3.96234,0 m 0,-11.88715 3.96234,0 0,3.96242 -3.96234,0 0,-3.96242 m 11.88711,0 0,3.96242 -3.96239,0 0,-3.96242 3.96239,0 m 0,11.88715 -3.96239,0 0,-3.96238 3.96239,0 0,3.96238 m -11.88711,-35.66137 3.96234,0 0,3.96238 -3.96234,0 0,-3.96238 m 11.88711,0 0,3.96238 -3.96239,0 0,-3.96238 3.96239,0 m 0,11.88714 -3.96239,0 0,-3.96242 3.96239,0 0,3.96242 m -11.88711,0 0,-3.96242 3.96234,0 0,3.96242 -3.96234,0 m 35.66137,-11.88714 0,3.96238 -3.96238,0 0,-3.96238 3.96238,0 m 0,11.88714 -3.96238,0 0,-3.96242 3.96238,0 0,3.96242 m -11.88715,0 0,-3.96242 3.96239,0 0,3.96242 -3.96239,0 m 0,-11.88714 3.96239,0 0,3.96238 -3.96239,0 0,-3.96238 m -95.097,35.66137 0,-3.96238 3.96238,0 0,3.96238 -3.96238,0 m 0,-11.88715 3.96238,0 0,3.96242 -3.96238,0 0,-3.96242 m 11.88714,0 0,3.96242 -3.96238,0 0,-3.96242 3.96238,0 m 0,11.88715 -3.96238,0 0,-3.96238 3.96238,0 0,3.96238 m -11.88714,-35.66137 3.96238,0 0,3.96238 -3.96238,0 0,-3.96238 m 11.88714,0 0,3.96238 -3.96238,0 0,-3.96238 3.96238,0 m 0,11.88714 -3.96238,0 0,-3.96242 3.96238,0 0,3.96242 m -11.88714,0 0,-3.96242 3.96238,0 0,3.96242 -3.96238,0 m 35.6614,-11.88714 0,3.96238 -3.96238,0 0,-3.96238 3.96238,0 m 0,11.88714 -3.96238,0 0,-3.96242 3.96238,0 0,3.96242 m -11.88715,0 0,-3.96242 3.96238,0 0,3.96242 -3.96238,0 m 0,-11.88714 3.96238,0 0,3.96238 -3.96238,0 0,-3.96238 m 11.88715,35.66137 -3.96238,0 0,-3.96238 3.96238,0 0,3.96238 m -11.88715,0 0,-3.96238 3.96238,0 0,3.96238 -3.96238,0 m 0,-11.88715 3.96238,0 0,3.96242 -3.96238,0 0,-3.96242 m 11.88715,0 0,3.96242 -3.96238,0 0,-3.96242 3.96238,0 m -35.6614,-95.09697 3.96238,0 0,3.96238 -3.96238,0 0,-3.96238 m 11.88714,0 0,3.96238 -3.96238,0 0,-3.96238 3.96238,0 m 0,11.88711 -3.96238,0 0,-3.96235 3.96238,0 0,3.96235 m -11.88714,0 0,-3.96235 3.96238,0 0,3.96235 -3.96238,0 m 35.6614,-11.88711 0,3.96238 -3.96238,0 0,-3.96238 3.96238,0 m 0,11.88711 -3.96238,0 0,-3.96235 3.96238,0 0,3.96235 m -11.88715,0 0,-3.96235 3.96238,0 0,3.96235 -3.96238,0 m 0,-11.88711 3.96238,0 0,3.96238 -3.96238,0 0,-3.96238 m 11.88715,35.66137 -3.96238,0 0,-3.96234 3.96238,0 0,3.96234 m -11.88715,0 0,-3.96234 3.96238,0 0,3.96234 -3.96238,0 m 0,-11.88712 3.96238,0 0,3.96235 -3.96238,0 0,-3.96235 m 11.88715,0 0,3.96235 -3.96238,0 0,-3.96235 3.96238,0 m -35.6614,11.88712 0,-3.96234 3.96238,0 0,3.96234 -3.96238,0 m 0,-11.88712 3.96238,0 0,3.96235 -3.96238,0 0,-3.96235 m 11.88714,0 0,3.96235 -3.96238,0 0,-3.96235 3.96238,0 m 0,11.88712 -3.96238,0 0,-3.96234 3.96238,0 0,3.96234 m 95.09701,-35.66137 0,3.96238 -3.96238,0 0,-3.96238 3.96238,0 m 0,11.88711 -3.96238,0 0,-3.96235 3.96238,0 0,3.96235 m -11.88715,0 0,-3.96235 3.96239,0 0,3.96235 -3.96239,0 m 0,-11.88711 3.96239,0 0,3.96238 -3.96239,0 0,-3.96238 m 11.88715,35.66137 -3.96238,0 0,-3.96234 3.96238,0 0,3.96234 m -11.88715,0 0,-3.96234 3.96239,0 0,3.96234 -3.96239,0 m 0,-11.88712 3.96239,0 0,3.96235 -3.96239,0 0,-3.96235 m 11.88715,0 0,3.96235 -3.96238,0 0,-3.96235 3.96238,0 m -35.66137,11.88712 0,-3.96234 3.96234,0 0,3.96234 -3.96234,0 m 0,-11.88712 3.96234,0 0,3.96235 -3.96234,0 0,-3.96235 m 11.88711,0 0,3.96235 -3.96239,0 0,-3.96235 3.96239,0 m 0,11.88712 -3.96239,0 0,-3.96234 3.96239,0 0,3.96234 m -11.88711,-35.66137 3.96234,0 0,3.96238 -3.96234,0 0,-3.96238 m 11.88711,0 0,3.96238 -3.96239,0 0,-3.96238 3.96239,0 m 0,11.88711 -3.96239,0 0,-3.96235 3.96239,0 0,3.96235 m -11.88711,0 0,-3.96235 3.96234,0 0,3.96235 -3.96234,0 m -285.29102,95.09701 0,-3.96238 3.96238,0 0,3.96238 -3.96238,0 m 0,-11.88715 3.96238,0 0,3.96242 -3.96238,0 0,-3.96242 m 11.88711,0 0,3.96242 -3.96237,0 0,-3.96242 3.96237,0 m 0,11.88715 -3.96237,0 0,-3.96238 3.96237,0 0,3.96238 m -11.88711,-35.66137 3.96238,0 0,3.96238 -3.96238,0 0,-3.96238 m 11.88711,0 0,3.96238 -3.96237,0 0,-3.96238 3.96237,0 m 0,11.88714 -3.96237,0 0,-3.96242 3.96237,0 0,3.96242 m -11.88711,0 0,-3.96242 3.96238,0 0,3.96242 -3.96238,0 m 35.66137,-11.88714 0,3.96238 -3.96238,0 0,-3.96238 3.96238,0 m 0,11.88714 -3.96238,0 0,-3.96242 3.96238,0 0,3.96242 m -11.88711,0 0,-3.96242 3.96235,0 0,3.96242 -3.96235,0 m 0,-11.88714 3.96235,0 0,3.96238 -3.96235,0 0,-3.96238 m 11.88711,35.66137 -3.96238,0 0,-3.96238 3.96238,0 0,3.96238 m -11.88711,0 0,-3.96238 3.96235,0 0,3.96238 -3.96235,0 m 0,-11.88715 3.96235,0 0,3.96242 -3.96235,0 0,-3.96242 m 11.88711,0 0,3.96242 -3.96238,0 0,-3.96242 3.96238,0 m -35.66137,-95.09697 3.96238,0 0,3.96238 -3.96238,0 0,-3.96238 m 11.88711,0 0,3.96238 -3.96237,0 0,-3.96238 3.96237,0 m 0,11.88711 -3.96237,0 0,-3.96235 3.96237,0 0,3.96235 m -11.88711,0 0,-3.96235 3.96238,0 0,3.96235 -3.96238,0 m 35.66137,-11.88711 0,3.96238 -3.96238,0 0,-3.96238 3.96238,0 m 0,11.88711 -3.96238,0 0,-3.96235 3.96238,0 0,3.96235 m -11.88711,0 0,-3.96235 3.96235,0 0,3.96235 -3.96235,0 m 0,-11.88711 3.96235,0 0,3.96238 -3.96235,0 0,-3.96238 m 11.88711,35.66137 -3.96238,0 0,-3.96234 3.96238,0 0,3.96234 m -11.88711,0 0,-3.96234 3.96235,0 0,3.96234 -3.96235,0 m 0,-11.88712 3.96235,0 0,3.96235 -3.96235,0 0,-3.96235 m 11.88711,0 0,3.96235 -3.96238,0 0,-3.96235 3.96238,0 m -35.66137,11.88712 0,-3.96234 3.96238,0 0,3.96234 -3.96238,0 m 0,-11.88712 3.96238,0 0,3.96235 -3.96238,0 0,-3.96235 m 11.88711,0 0,3.96235 -3.96237,0 0,-3.96235 3.96237,0 m 0,11.88712 -3.96237,0 0,-3.96234 3.96237,0 0,3.96234 m 95.09702,-35.66137 0,3.96238 -3.9624,0 0,-3.96238 3.9624,0 m 0,11.88711 -3.9624,0 0,-3.96235 3.9624,0 0,3.96235 m -11.88713,0 0,-3.96235 3.96239,0 0,3.96235 -3.96239,0 m 0,-11.88711 3.96239,0 0,3.96238 -3.96239,0 0,-3.96238 m 11.88713,35.66137 -3.9624,0 0,-3.96234 3.9624,0 0,3.96234 m -11.88713,0 0,-3.96234 3.96239,0 0,3.96234 -3.96239,0 m 0,-11.88712 3.96239,0 0,3.96235 -3.96239,0 0,-3.96235 m 11.88713,0 0,3.96235 -3.9624,0 0,-3.96235 3.9624,0 m -35.66139,11.88712 0,-3.96234 3.9624,0 0,3.96234 -3.9624,0 m 0,-11.88712 3.9624,0 0,3.96235 -3.9624,0 0,-3.96235 m 11.88712,0 0,3.96235 -3.96235,0 0,-3.96235 3.96235,0 m 0,11.88712 -3.96235,0 0,-3.96234 3.96235,0 0,3.96234 m -11.88712,-35.66137 3.9624,0 0,3.96238 -3.9624,0 0,-3.96238 m 11.88712,0 0,3.96238 -3.96235,0 0,-3.96238 3.96235,0 m 0,11.88711 -3.96235,0 0,-3.96235 3.96235,0 0,3.96235 m -11.88712,0 0,-3.96235 3.9624,0 0,3.96235 -3.9624,0 m 35.66139,95.09701 -3.9624,0 0,-3.96238 3.9624,0 0,3.96238 m -11.88713,0 0,-3.96238 3.96239,0 0,3.96238 -3.96239,0 m 0,-11.88715 3.96239,0 0,3.96242 -3.96239,0 0,-3.96242 m 11.88713,0 0,3.96242 -3.9624,0 0,-3.96242 3.9624,0 m -35.66139,11.88715 0,-3.96238 3.9624,0 0,3.96238 -3.9624,0 m 0,-11.88715 3.9624,0 0,3.96242 -3.9624,0 0,-3.96242 m 11.88712,0 0,3.96242 -3.96235,0 0,-3.96242 3.96235,0 m 0,11.88715 -3.96235,0 0,-3.96238 3.96235,0 0,3.96238 m -11.88712,-35.66137 3.9624,0 0,3.96238 -3.9624,0 0,-3.96238 m 11.88712,0 0,3.96238 -3.96235,0 0,-3.96238 3.96235,0 m 0,11.88714 -3.96235,0 0,-3.96242 3.96235,0 0,3.96242 m -11.88712,0 0,-3.96242 3.9624,0 0,3.96242 -3.9624,0 m 35.66139,-11.88714 0,3.96238 -3.9624,0 0,-3.96238 3.9624,0 m 0,11.88714 -3.9624,0 0,-3.96242 3.9624,0 0,3.96242 m -11.88713,0 0,-3.96242 3.96239,0 0,3.96242 -3.96239,0 m 0,-11.88714 3.96239,0 0,3.96238 -3.96239,0 0,-3.96238 m 867.76015,-285.29102 0,3.96239 -3.96236,0 0,-3.96239 3.96236,0 m 0,11.88715 -3.96236,0 0,-3.96238 3.96236,0 0,3.96238 m -11.88712,0 0,-3.96238 3.96235,0 0,3.96238 -3.96235,0 m 0,-11.88715 3.96235,0 0,3.96239 -3.96235,0 0,-3.96239 m 11.88712,35.66137 -3.96236,0 0,-3.96238 3.96236,0 0,3.96238 m -11.88712,0 0,-3.96238 3.96235,0 0,3.96238 -3.96235,0 m 0,-11.88711 3.96235,0 0,3.96238 -3.96235,0 0,-3.96238 m 11.88712,0 0,3.96238 -3.96236,0 0,-3.96238 3.96236,0 m -35.66137,11.88711 0,-3.96238 3.96235,0 0,3.96238 -3.96235,0 m 0,-11.88711 3.96235,0 0,3.96238 -3.96235,0 0,-3.96238 m 11.88711,0 0,3.96238 -3.96235,0 0,-3.96238 3.96235,0 m 0,11.88711 -3.96235,0 0,-3.96238 3.96235,0 0,3.96238 m -11.88711,-35.66137 3.96235,0 0,3.96239 -3.96235,0 0,-3.96239 m 11.88711,0 0,3.96239 -3.96235,0 0,-3.96239 3.96235,0 m 0,11.88715 -3.96235,0 0,-3.96238 3.96235,0 0,3.96238 m -11.88711,0 0,-3.96238 3.96235,0 0,3.96238 -3.96235,0 m 35.66137,95.09701 -3.96236,0 0,-3.96239 3.96236,0 0,3.96239 m -11.88712,0 0,-3.96239 3.96235,0 0,3.96239 -3.96235,0 m 0,-11.88715 3.96235,0 0,3.96238 -3.96235,0 0,-3.96238 m 11.88712,0 0,3.96238 -3.96236,0 0,-3.96238 3.96236,0 m -35.66137,11.88715 0,-3.96239 3.96235,0 0,3.96239 -3.96235,0 m 0,-11.88715 3.96235,0 0,3.96238 -3.96235,0 0,-3.96238 m 11.88711,0 0,3.96238 -3.96235,0 0,-3.96238 3.96235,0 m 0,11.88715 -3.96235,0 0,-3.96239 3.96235,0 0,3.96239 m -11.88711,-35.66141 3.96235,0 0,3.96238 -3.96235,0 0,-3.96238 m 11.88711,0 0,3.96238 -3.96235,0 0,-3.96238 3.96235,0 m 0,11.88715 -3.96235,0 0,-3.96239 3.96235,0 0,3.96239 m -11.88711,0 0,-3.96239 3.96235,0 0,3.96239 -3.96235,0 m 35.66137,-11.88715 0,3.96238 -3.96236,0 0,-3.96238 3.96236,0 m 0,11.88715 -3.96236,0 0,-3.96239 3.96236,0 0,3.96239 m -11.88712,0 0,-3.96239 3.96235,0 0,3.96239 -3.96235,0 m 0,-11.88715 3.96235,0 0,3.96238 -3.96235,0 0,-3.96238 m -95.09704,35.66141 0,-3.96239 3.96239,0 0,3.96239 -3.96239,0 m 0,-11.88715 3.96239,0 0,3.96238 -3.96239,0 0,-3.96238 m 11.88716,0 0,3.96238 -3.96242,0 0,-3.96238 3.96242,0 m 0,11.88715 -3.96242,0 0,-3.96239 3.96242,0 0,3.96239 m -11.88716,-35.66141 3.96239,0 0,3.96238 -3.96239,0 0,-3.96238 m 11.88716,0 0,3.96238 -3.96242,0 0,-3.96238 3.96242,0 m 0,11.88715 -3.96242,0 0,-3.96239 3.96242,0 0,3.96239 m -11.88716,0 0,-3.96239 3.96239,0 0,3.96239 -3.96239,0 m 35.66141,-11.88715 0,3.96238 -3.96241,0 0,-3.96238 3.96241,0 m 0,11.88715 -3.96241,0 0,-3.96239 3.96241,0 0,3.96239 m -11.88714,0 0,-3.96239 3.96241,0 0,3.96239 -3.96241,0 m 0,-11.88715 3.96241,0 0,3.96238 -3.96241,0 0,-3.96238 m 11.88714,35.66141 -3.96241,0 0,-3.96239 3.96241,0 0,3.96239 m -11.88714,0 0,-3.96239 3.96241,0 0,3.96239 -3.96241,0 m 0,-11.88715 3.96241,0 0,3.96238 -3.96241,0 0,-3.96238 m 11.88714,0 0,3.96238 -3.96241,0 0,-3.96238 3.96241,0 m -35.66141,-95.09701 3.96239,0 0,3.96239 -3.96239,0 0,-3.96239 m 11.88716,0 0,3.96239 -3.96242,0 0,-3.96239 3.96242,0 m 0,11.88715 -3.96242,0 0,-3.96238 3.96242,0 0,3.96238 m -11.88716,0 0,-3.96238 3.96239,0 0,3.96238 -3.96239,0 m 35.66141,-11.88715 0,3.96239 -3.96241,0 0,-3.96239 3.96241,0 m 0,11.88715 -3.96241,0 0,-3.96238 3.96241,0 0,3.96238 m -11.88714,0 0,-3.96238 3.96241,0 0,3.96238 -3.96241,0 m 0,-11.88715 3.96241,0 0,3.96239 -3.96241,0 0,-3.96239 m 11.88714,35.66137 -3.96241,0 0,-3.96238 3.96241,0 0,3.96238 m -11.88714,0 0,-3.96238 3.96241,0 0,3.96238 -3.96241,0 m 0,-11.88711 3.96241,0 0,3.96238 -3.96241,0 0,-3.96238 m 11.88714,0 0,3.96238 -3.96241,0 0,-3.96238 3.96241,0 m -35.66141,11.88711 0,-3.96238 3.96239,0 0,3.96238 -3.96239,0 m 0,-11.88711 3.96239,0 0,3.96238 -3.96239,0 0,-3.96238 m 11.88716,0 0,3.96238 -3.96242,0 0,-3.96238 3.96242,0 m 0,11.88711 -3.96242,0 0,-3.96238 3.96242,0 0,3.96238 m 95.097,285.29102 -3.96236,0 0,-3.96238 3.96236,0 0,3.96238 m -11.88712,0 0,-3.96238 3.96235,0 0,3.96238 -3.96235,0 m 0,-11.88715 3.96235,0 0,3.96242 -3.96235,0 0,-3.96242 m 11.88712,0 0,3.96242 -3.96236,0 0,-3.96242 3.96236,0 m -35.66137,11.88715 0,-3.96238 3.96235,0 0,3.96238 -3.96235,0 m 0,-11.88715 3.96235,0 0,3.96242 -3.96235,0 0,-3.96242 m 11.88711,0 0,3.96242 -3.96235,0 0,-3.96242 3.96235,0 m 0,11.88715 -3.96235,0 0,-3.96238 3.96235,0 0,3.96238 m -11.88711,-35.66137 3.96235,0 0,3.96238 -3.96235,0 0,-3.96238 m 11.88711,0 0,3.96238 -3.96235,0 0,-3.96238 3.96235,0 m 0,11.88714 -3.96235,0 0,-3.96242 3.96235,0 0,3.96242 m -11.88711,0 0,-3.96242 3.96235,0 0,3.96242 -3.96235,0 m 35.66137,-11.88714 0,3.96238 -3.96236,0 0,-3.96238 3.96236,0 m 0,11.88714 -3.96236,0 0,-3.96242 3.96236,0 0,3.96242 m -11.88712,0 0,-3.96242 3.96235,0 0,3.96242 -3.96235,0 m 0,-11.88714 3.96235,0 0,3.96238 -3.96235,0 0,-3.96238 m -95.09704,35.66137 0,-3.96238 3.96239,0 0,3.96238 -3.96239,0 m 0,-11.88715 3.96239,0 0,3.96242 -3.96239,0 0,-3.96242 m 11.88716,0 0,3.96242 -3.96242,0 0,-3.96242 3.96242,0 m 0,11.88715 -3.96242,0 0,-3.96238 3.96242,0 0,3.96238 m -11.88716,-35.66137 3.96239,0 0,3.96238 -3.96239,0 0,-3.96238 m 11.88716,0 0,3.96238 -3.96242,0 0,-3.96238 3.96242,0 m 0,11.88714 -3.96242,0 0,-3.96242 3.96242,0 0,3.96242 m -11.88716,0 0,-3.96242 3.96239,0 0,3.96242 -3.96239,0 m 35.66141,-11.88714 0,3.96238 -3.96241,0 0,-3.96238 3.96241,0 m 0,11.88714 -3.96241,0 0,-3.96242 3.96241,0 0,3.96242 m -11.88714,0 0,-3.96242 3.96241,0 0,3.96242 -3.96241,0 m 0,-11.88714 3.96241,0 0,3.96238 -3.96241,0 0,-3.96238 m 11.88714,35.66137 -3.96241,0 0,-3.96238 3.96241,0 0,3.96238 m -11.88714,0 0,-3.96238 3.96241,0 0,3.96238 -3.96241,0 m 0,-11.88715 3.96241,0 0,3.96242 -3.96241,0 0,-3.96242 m 11.88714,0 0,3.96242 -3.96241,0 0,-3.96242 3.96241,0 m -35.66141,-95.09697 3.96239,0 0,3.96238 -3.96239,0 0,-3.96238 m 11.88716,0 0,3.96238 -3.96242,0 0,-3.96238 3.96242,0 m 0,11.88711 -3.96242,0 0,-3.96235 3.96242,0 0,3.96235 m -11.88716,0 0,-3.96235 3.96239,0 0,3.96235 -3.96239,0 m 35.66141,-11.88711 0,3.96238 -3.96241,0 0,-3.96238 3.96241,0 m 0,11.88711 -3.96241,0 0,-3.96235 3.96241,0 0,3.96235 m -11.88714,0 0,-3.96235 3.96241,0 0,3.96235 -3.96241,0 m 0,-11.88711 3.96241,0 0,3.96238 -3.96241,0 0,-3.96238 m 11.88714,35.66137 -3.96241,0 0,-3.96234 3.96241,0 0,3.96234 m -11.88714,0 0,-3.96234 3.96241,0 0,3.96234 -3.96241,0 m 0,-11.88712 3.96241,0 0,3.96235 -3.96241,0 0,-3.96235 m 11.88714,0 0,3.96235 -3.96241,0 0,-3.96235 3.96241,0 m -35.66141,11.88712 0,-3.96234 3.96239,0 0,3.96234 -3.96239,0 m 0,-11.88712 3.96239,0 0,3.96235 -3.96239,0 0,-3.96235 m 11.88716,0 0,3.96235 -3.96242,0 0,-3.96235 3.96242,0 m 0,11.88712 -3.96242,0 0,-3.96234 3.96242,0 0,3.96234 m 95.097,-35.66137 0,3.96238 -3.96236,0 0,-3.96238 3.96236,0 m 0,11.88711 -3.96236,0 0,-3.96235 3.96236,0 0,3.96235 m -11.88712,0 0,-3.96235 3.96235,0 0,3.96235 -3.96235,0 m 0,-11.88711 3.96235,0 0,3.96238 -3.96235,0 0,-3.96238 m 11.88712,35.66137 -3.96236,0 0,-3.96234 3.96236,0 0,3.96234 m -11.88712,0 0,-3.96234 3.96235,0 0,3.96234 -3.96235,0 m 0,-11.88712 3.96235,0 0,3.96235 -3.96235,0 0,-3.96235 m 11.88712,0 0,3.96235 -3.96236,0 0,-3.96235 3.96236,0 m -35.66137,11.88712 0,-3.96234 3.96235,0 0,3.96234 -3.96235,0 m 0,-11.88712 3.96235,0 0,3.96235 -3.96235,0 0,-3.96235 m 11.88711,0 0,3.96235 -3.96235,0 0,-3.96235 3.96235,0 m 0,11.88712 -3.96235,0 0,-3.96234 3.96235,0 0,3.96234 m -11.88711,-35.66137 3.96235,0 0,3.96238 -3.96235,0 0,-3.96238 m 11.88711,0 0,3.96238 -3.96235,0 0,-3.96238 3.96235,0 m 0,11.88711 -3.96235,0 0,-3.96235 3.96235,0 0,3.96235 m -11.88711,0 0,-3.96235 3.96235,0 0,3.96235 -3.96235,0 m -285.29105,95.09701 0,-3.96238 3.96241,0 0,3.96238 -3.96241,0 m 0,-11.88715 3.96241,0 0,3.96242 -3.96241,0 0,-3.96242 m 11.88719,0 0,3.96242 -3.96243,0 0,-3.96242 3.96243,0 m 0,11.88715 -3.96243,0 0,-3.96238 3.96243,0 0,3.96238 m -11.88719,-35.66137 3.96241,0 0,3.96238 -3.96241,0 0,-3.96238 m 11.88719,0 0,3.96238 -3.96243,0 0,-3.96238 3.96243,0 m 0,11.88714 -3.96243,0 0,-3.96242 3.96243,0 0,3.96242 m -11.88719,0 0,-3.96242 3.96241,0 0,3.96242 -3.96241,0 m 35.66141,-11.88714 0,3.96238 -3.96238,0 0,-3.96238 3.96238,0 m 0,11.88714 -3.96238,0 0,-3.96242 3.96238,0 0,3.96242 m -11.88715,0 0,-3.96242 3.96238,0 0,3.96242 -3.96238,0 m 0,-11.88714 3.96238,0 0,3.96238 -3.96238,0 0,-3.96238 m 11.88715,35.66137 -3.96238,0 0,-3.96238 3.96238,0 0,3.96238 m -11.88715,0 0,-3.96238 3.96238,0 0,3.96238 -3.96238,0 m 0,-11.88715 3.96238,0 0,3.96242 -3.96238,0 0,-3.96242 m 11.88715,0 0,3.96242 -3.96238,0 0,-3.96242 3.96238,0 m -35.66141,-95.09697 3.96241,0 0,3.96238 -3.96241,0 0,-3.96238 m 11.88719,0 0,3.96238 -3.96243,0 0,-3.96238 3.96243,0 m 0,11.88711 -3.96243,0 0,-3.96235 3.96243,0 0,3.96235 m -11.88719,0 0,-3.96235 3.96241,0 0,3.96235 -3.96241,0 m 35.66141,-11.88711 0,3.96238 -3.96238,0 0,-3.96238 3.96238,0 m 0,11.88711 -3.96238,0 0,-3.96235 3.96238,0 0,3.96235 m -11.88715,0 0,-3.96235 3.96238,0 0,3.96235 -3.96238,0 m 0,-11.88711 3.96238,0 0,3.96238 -3.96238,0 0,-3.96238 m 11.88715,35.66137 -3.96238,0 0,-3.96234 3.96238,0 0,3.96234 m -11.88715,0 0,-3.96234 3.96238,0 0,3.96234 -3.96238,0 m 0,-11.88712 3.96238,0 0,3.96235 -3.96238,0 0,-3.96235 m 11.88715,0 0,3.96235 -3.96238,0 0,-3.96235 3.96238,0 m -35.66141,11.88712 0,-3.96234 3.96241,0 0,3.96234 -3.96241,0 m 0,-11.88712 3.96241,0 0,3.96235 -3.96241,0 0,-3.96235 m 11.88719,0 0,3.96235 -3.96243,0 0,-3.96235 3.96243,0 m 0,11.88712 -3.96243,0 0,-3.96234 3.96243,0 0,3.96234 m 95.09696,-35.66137 0,3.96238 -3.96238,0 0,-3.96238 3.96238,0 m 0,11.88711 -3.96238,0 0,-3.96235 3.96238,0 0,3.96235 m -11.88714,0 0,-3.96235 3.96241,0 0,3.96235 -3.96241,0 m 0,-11.88711 3.96241,0 0,3.96238 -3.96241,0 0,-3.96238 m 11.88714,35.66137 -3.96238,0 0,-3.96234 3.96238,0 0,3.96234 m -11.88714,0 0,-3.96234 3.96241,0 0,3.96234 -3.96241,0 m 0,-11.88712 3.96241,0 0,3.96235 -3.96241,0 0,-3.96235 m 11.88714,0 0,3.96235 -3.96238,0 0,-3.96235 3.96238,0 m -35.66134,11.88712 0,-3.96234 3.96235,0 0,3.96234 -3.96235,0 m 0,-11.88712 3.96235,0 0,3.96235 -3.96235,0 0,-3.96235 m 11.88709,0 0,3.96235 -3.96235,0 0,-3.96235 3.96235,0 m 0,11.88712 -3.96235,0 0,-3.96234 3.96235,0 0,3.96234 m -11.88709,-35.66137 3.96235,0 0,3.96238 -3.96235,0 0,-3.96238 m 11.88709,0 0,3.96238 -3.96235,0 0,-3.96238 3.96235,0 m 0,11.88711 -3.96235,0 0,-3.96235 3.96235,0 0,3.96235 m -11.88709,0 0,-3.96235 3.96235,0 0,3.96235 -3.96235,0 m 35.66134,95.09701 -3.96238,0 0,-3.96238 3.96238,0 0,3.96238 m -11.88714,0 0,-3.96238 3.96241,0 0,3.96238 -3.96241,0 m 0,-11.88715 3.96241,0 0,3.96242 -3.96241,0 0,-3.96242 m 11.88714,0 0,3.96242 -3.96238,0 0,-3.96242 3.96238,0 m -35.66134,11.88715 0,-3.96238 3.96235,0 0,3.96238 -3.96235,0 m 0,-11.88715 3.96235,0 0,3.96242 -3.96235,0 0,-3.96242 m 11.88709,0 0,3.96242 -3.96235,0 0,-3.96242 3.96235,0 m 0,11.88715 -3.96235,0 0,-3.96238 3.96235,0 0,3.96238 m -11.88709,-35.66137 3.96235,0 0,3.96238 -3.96235,0 0,-3.96238 m 11.88709,0 0,3.96238 -3.96235,0 0,-3.96238 3.96235,0 m 0,11.88714 -3.96235,0 0,-3.96242 3.96235,0 0,3.96242 m -11.88709,0 0,-3.96242 3.96235,0 0,3.96242 -3.96235,0 m 35.66134,-11.88714 0,3.96238 -3.96238,0 0,-3.96238 3.96238,0 m 0,11.88714 -3.96238,0 0,-3.96242 3.96238,0 0,3.96242 m -11.88714,0 0,-3.96242 3.96241,0 0,3.96242 -3.96241,0 m 0,-11.88714 3.96241,0 0,3.96238 -3.96241,0 0,-3.96238 m -95.09701,-285.29102 3.96241,0 0,3.96239 -3.96241,0 0,-3.96239 m 11.88719,0 0,3.96239 -3.96243,0 0,-3.96239 3.96243,0 m 0,11.88715 -3.96243,0 0,-3.96238 3.96243,0 0,3.96238 m -11.88719,0 0,-3.96238 3.96241,0 0,3.96238 -3.96241,0 m 35.66141,-11.88715 0,3.96239 -3.96238,0 0,-3.96239 3.96238,0 m 0,11.88715 -3.96238,0 0,-3.96238 3.96238,0 0,3.96238 m -11.88715,0 0,-3.96238 3.96238,0 0,3.96238 -3.96238,0 m 0,-11.88715 3.96238,0 0,3.96239 -3.96238,0 0,-3.96239 m 11.88715,35.66137 -3.96238,0 0,-3.96238 3.96238,0 0,3.96238 m -11.88715,0 0,-3.96238 3.96238,0 0,3.96238 -3.96238,0 m 0,-11.88711 3.96238,0 0,3.96238 -3.96238,0 0,-3.96238 m 11.88715,0 0,3.96238 -3.96238,0 0,-3.96238 3.96238,0 m -35.66141,11.88711 0,-3.96238 3.96241,0 0,3.96238 -3.96241,0 m 0,-11.88711 3.96241,0 0,3.96238 -3.96241,0 0,-3.96238 m 11.88719,0 0,3.96238 -3.96243,0 0,-3.96238 3.96243,0 m 0,11.88711 -3.96243,0 0,-3.96238 3.96243,0 0,3.96238 m 95.09696,-35.66137 0,3.96239 -3.96238,0 0,-3.96239 3.96238,0 m 0,11.88715 -3.96238,0 0,-3.96238 3.96238,0 0,3.96238 m -11.88714,0 0,-3.96238 3.96241,0 0,3.96238 -3.96241,0 m 0,-11.88715 3.96241,0 0,3.96239 -3.96241,0 0,-3.96239 m 11.88714,35.66137 -3.96238,0 0,-3.96238 3.96238,0 0,3.96238 m -11.88714,0 0,-3.96238 3.96241,0 0,3.96238 -3.96241,0 m 0,-11.88711 3.96241,0 0,3.96238 -3.96241,0 0,-3.96238 m 11.88714,0 0,3.96238 -3.96238,0 0,-3.96238 3.96238,0 m -35.66134,11.88711 0,-3.96238 3.96235,0 0,3.96238 -3.96235,0 m 0,-11.88711 3.96235,0 0,3.96238 -3.96235,0 0,-3.96238 m 11.88709,0 0,3.96238 -3.96235,0 0,-3.96238 3.96235,0 m 0,11.88711 -3.96235,0 0,-3.96238 3.96235,0 0,3.96238 m -11.88709,-35.66137 3.96235,0 0,3.96239 -3.96235,0 0,-3.96239 m 11.88709,0 0,3.96239 -3.96235,0 0,-3.96239 3.96235,0 m 0,11.88715 -3.96235,0 0,-3.96238 3.96235,0 0,3.96238 m -11.88709,0 0,-3.96238 3.96235,0 0,3.96238 -3.96235,0 m 35.66134,95.09701 -3.96238,0 0,-3.96239 3.96238,0 0,3.96239 m -11.88714,0 0,-3.96239 3.96241,0 0,3.96239 -3.96241,0 m 0,-11.88715 3.96241,0 0,3.96238 -3.96241,0 0,-3.96238 m 11.88714,0 0,3.96238 -3.96238,0 0,-3.96238 3.96238,0 m -35.66134,11.88715 0,-3.96239 3.96235,0 0,3.96239 -3.96235,0 m 0,-11.88715 3.96235,0 0,3.96238 -3.96235,0 0,-3.96238 m 11.88709,0 0,3.96238 -3.96235,0 0,-3.96238 3.96235,0 m 0,11.88715 -3.96235,0 0,-3.96239 3.96235,0 0,3.96239 m -11.88709,-35.66141 3.96235,0 0,3.96238 -3.96235,0 0,-3.96238 m 11.88709,0 0,3.96238 -3.96235,0 0,-3.96238 3.96235,0 m 0,11.88715 -3.96235,0 0,-3.96239 3.96235,0 0,3.96239 m -11.88709,0 0,-3.96239 3.96235,0 0,3.96239 -3.96235,0 m 35.66134,-11.88715 0,3.96238 -3.96238,0 0,-3.96238 3.96238,0 m 0,11.88715 -3.96238,0 0,-3.96239 3.96238,0 0,3.96239 m -11.88714,0 0,-3.96239 3.96241,0 0,3.96239 -3.96241,0 m 0,-11.88715 3.96241,0 0,3.96238 -3.96241,0 0,-3.96238 m -95.09701,35.66141 0,-3.96239 3.96241,0 0,3.96239 -3.96241,0 m 0,-11.88715 3.96241,0 0,3.96238 -3.96241,0 0,-3.96238 m 11.88719,0 0,3.96238 -3.96243,0 0,-3.96238 3.96243,0 m 0,11.88715 -3.96243,0 0,-3.96239 3.96243,0 0,3.96239 m -11.88719,-35.66141 3.96241,0 0,3.96238 -3.96241,0 0,-3.96238 m 11.88719,0 0,3.96238 -3.96243,0 0,-3.96238 3.96243,0 m 0,11.88715 -3.96243,0 0,-3.96239 3.96243,0 0,3.96239 m -11.88719,0 0,-3.96239 3.96241,0 0,3.96239 -3.96241,0 m 35.66141,-11.88715 0,3.96238 -3.96238,0 0,-3.96238 3.96238,0 m 0,11.88715 -3.96238,0 0,-3.96239 3.96238,0 0,3.96239 m -11.88715,0 0,-3.96239 3.96238,0 0,3.96239 -3.96238,0 m 0,-11.88715 3.96238,0 0,3.96238 -3.96238,0 0,-3.96238 m 11.88715,35.66141 -3.96238,0 0,-3.96239 3.96238,0 0,3.96239 m -11.88715,0 0,-3.96239 3.96238,0 0,3.96239 -3.96238,0 m 0,-11.88715 3.96238,0 0,3.96238 -3.96238,0 0,-3.96238 m 11.88715,0 0,3.96238 -3.96238,0 0,-3.96238 3.96238,0 m 285.29101,867.76022 -3.96236,0 0,-3.9624 3.96236,0 0,3.9624 m -11.88712,0 0,-3.9624 3.96235,0 0,3.9624 -3.96235,0 m 0,-11.8871 3.96235,0 0,3.9623 -3.96235,0 0,-3.9623 m 11.88712,0 0,3.9623 -3.96236,0 0,-3.9623 3.96236,0 m -35.66137,11.8871 0,-3.9624 3.96235,0 0,3.9624 -3.96235,0 m 0,-11.8871 3.96235,0 0,3.9623 -3.96235,0 0,-3.9623 m 11.88711,0 0,3.9623 -3.96235,0 0,-3.9623 3.96235,0 m 0,11.8871 -3.96235,0 0,-3.9624 3.96235,0 0,3.9624 m -11.88711,-35.6614 3.96235,0 0,3.9623 -3.96235,0 0,-3.9623 m 11.88711,0 0,3.9623 -3.96235,0 0,-3.9623 3.96235,0 m 0,11.8871 -3.96235,0 0,-3.9623 3.96235,0 0,3.9623 m -11.88711,0 0,-3.9623 3.96235,0 0,3.9623 -3.96235,0 m 35.66137,-11.8871 0,3.9623 -3.96236,0 0,-3.9623 3.96236,0 m 0,11.8871 -3.96236,0 0,-3.9623 3.96236,0 0,3.9623 m -11.88712,0 0,-3.9623 3.96235,0 0,3.9623 -3.96235,0 m 0,-11.8871 3.96235,0 0,3.9623 -3.96235,0 0,-3.9623 m -95.09704,35.6614 0,-3.9624 3.9624,0 0,3.9624 -3.9624,0 m 0,-11.8871 3.9624,0 0,3.9623 -3.9624,0 0,-3.9623 m 11.88716,0 0,3.9623 -3.96242,0 0,-3.9623 3.96242,0 m 0,11.8871 -3.96242,0 0,-3.9624 3.96242,0 0,3.9624 m -11.88716,-35.6614 3.9624,0 0,3.9623 -3.9624,0 0,-3.9623 m 11.88716,0 0,3.9623 -3.96242,0 0,-3.9623 3.96242,0 m 0,11.8871 -3.96242,0 0,-3.9623 3.96242,0 0,3.9623 m -11.88716,0 0,-3.9623 3.9624,0 0,3.9623 -3.9624,0 m 35.66141,-11.8871 0,3.9623 -3.96241,0 0,-3.9623 3.96241,0 m 0,11.8871 -3.96241,0 0,-3.9623 3.96241,0 0,3.9623 m -11.88714,0 0,-3.9623 3.96241,0 0,3.9623 -3.96241,0 m 0,-11.8871 3.96241,0 0,3.9623 -3.96241,0 0,-3.9623 m 11.88714,35.6614 -3.96241,0 0,-3.9624 3.96241,0 0,3.9624 m -11.88714,0 0,-3.9624 3.96241,0 0,3.9624 -3.96241,0 m 0,-11.8871 3.96241,0 0,3.9623 -3.96241,0 0,-3.9623 m 11.88714,0 0,3.9623 -3.96241,0 0,-3.9623 3.96241,0 m -35.66141,-95.097 3.9624,0 0,3.9623 -3.9624,0 0,-3.9623 m 11.88716,0 0,3.9623 -3.96242,0 0,-3.9623 3.96242,0 m 0,11.8871 -3.96242,0 0,-3.9624 3.96242,0 0,3.9624 m -11.88716,0 0,-3.9624 3.9624,0 0,3.9624 -3.9624,0 m 35.66141,-11.8871 0,3.9623 -3.96241,0 0,-3.9623 3.96241,0 m 0,11.8871 -3.96241,0 0,-3.9624 3.96241,0 0,3.9624 m -11.88714,0 0,-3.9624 3.96241,0 0,3.9624 -3.96241,0 m 0,-11.8871 3.96241,0 0,3.9623 -3.96241,0 0,-3.9623 m 11.88714,35.6613 -3.96241,0 0,-3.9624 3.96241,0 0,3.9624 m -11.88714,0 0,-3.9624 3.96241,0 0,3.9624 -3.96241,0 m 0,-11.8871 3.96241,0 0,3.9624 -3.96241,0 0,-3.9624 m 11.88714,0 0,3.9624 -3.96241,0 0,-3.9624 3.96241,0 m -35.66141,11.8871 0,-3.9624 3.9624,0 0,3.9624 -3.9624,0 m 0,-11.8871 3.9624,0 0,3.9624 -3.9624,0 0,-3.9624 m 11.88716,0 0,3.9624 -3.96242,0 0,-3.9624 3.96242,0 m 0,11.8871 -3.96242,0 0,-3.9624 3.96242,0 0,3.9624 m 95.097,-35.6613 0,3.9623 -3.96236,0 0,-3.9623 3.96236,0 m 0,11.8871 -3.96236,0 0,-3.9624 3.96236,0 0,3.9624 m -11.88712,0 0,-3.9624 3.96235,0 0,3.9624 -3.96235,0 m 0,-11.8871 3.96235,0 0,3.9623 -3.96235,0 0,-3.9623 m 11.88712,35.6613 -3.96236,0 0,-3.9624 3.96236,0 0,3.9624 m -11.88712,0 0,-3.9624 3.96235,0 0,3.9624 -3.96235,0 m 0,-11.8871 3.96235,0 0,3.9624 -3.96235,0 0,-3.9624 m 11.88712,0 0,3.9624 -3.96236,0 0,-3.9624 3.96236,0 m -35.66137,11.8871 0,-3.9624 3.96235,0 0,3.9624 -3.96235,0 m 0,-11.8871 3.96235,0 0,3.9624 -3.96235,0 0,-3.9624 m 11.88711,0 0,3.9624 -3.96235,0 0,-3.9624 3.96235,0 m 0,11.8871 -3.96235,0 0,-3.9624 3.96235,0 0,3.9624 m -11.88711,-35.6613 3.96235,0 0,3.9623 -3.96235,0 0,-3.9623 m 11.88711,0 0,3.9623 -3.96235,0 0,-3.9623 3.96235,0 m 0,11.8871 -3.96235,0 0,-3.9624 3.96235,0 0,3.9624 m -11.88711,0 0,-3.9624 3.96235,0 0,3.9624 -3.96235,0 m -285.29105,95.097 0,-3.9624 3.96241,0 0,3.9624 -3.96241,0 m 0,-11.8871 3.96241,0 0,3.9623 -3.96241,0 0,-3.9623 m 11.88719,0 0,3.9623 -3.96243,0 0,-3.9623 3.96243,0 m 0,11.8871 -3.96243,0 0,-3.9624 3.96243,0 0,3.9624 m -11.88719,-35.6614 3.96241,0 0,3.9623 -3.96241,0 0,-3.9623 m 11.88719,0 0,3.9623 -3.96243,0 0,-3.9623 3.96243,0 m 0,11.8871 -3.96243,0 0,-3.9623 3.96243,0 0,3.9623 m -11.88719,0 0,-3.9623 3.96241,0 0,3.9623 -3.96241,0 m 35.66141,-11.8871 0,3.9623 -3.96238,0 0,-3.9623 3.96238,0 m 0,11.8871 -3.96238,0 0,-3.9623 3.96238,0 0,3.9623 m -11.88715,0 0,-3.9623 3.96238,0 0,3.9623 -3.96238,0 m 0,-11.8871 3.96238,0 0,3.9623 -3.96238,0 0,-3.9623 m 11.88715,35.6614 -3.96238,0 0,-3.9624 3.96238,0 0,3.9624 m -11.88715,0 0,-3.9624 3.96238,0 0,3.9624 -3.96238,0 m 0,-11.8871 3.96238,0 0,3.9623 -3.96238,0 0,-3.9623 m 11.88715,0 0,3.9623 -3.96238,0 0,-3.9623 3.96238,0 m -35.66141,-95.097 3.96241,0 0,3.9623 -3.96241,0 0,-3.9623 m 11.88719,0 0,3.9623 -3.96243,0 0,-3.9623 3.96243,0 m 0,11.8871 -3.96243,0 0,-3.9624 3.96243,0 0,3.9624 m -11.88719,0 0,-3.9624 3.96241,0 0,3.9624 -3.96241,0 m 35.66141,-11.8871 0,3.9623 -3.96238,0 0,-3.9623 3.96238,0 m 0,11.8871 -3.96238,0 0,-3.9624 3.96238,0 0,3.9624 m -11.88715,0 0,-3.9624 3.96238,0 0,3.9624 -3.96238,0 m 0,-11.8871 3.96238,0 0,3.9623 -3.96238,0 0,-3.9623 m 11.88715,35.6613 -3.96238,0 0,-3.9624 3.96238,0 0,3.9624 m -11.88715,0 0,-3.9624 3.96238,0 0,3.9624 -3.96238,0 m 0,-11.8871 3.96238,0 0,3.9624 -3.96238,0 0,-3.9624 m 11.88715,0 0,3.9624 -3.96238,0 0,-3.9624 3.96238,0 m -35.66141,11.8871 0,-3.9624 3.96241,0 0,3.9624 -3.96241,0 m 0,-11.8871 3.96241,0 0,3.9624 -3.96241,0 0,-3.9624 m 11.88719,0 0,3.9624 -3.96243,0 0,-3.9624 3.96243,0 m 0,11.8871 -3.96243,0 0,-3.9624 3.96243,0 0,3.9624 m 95.09696,-35.6613 0,3.9623 -3.96238,0 0,-3.9623 3.96238,0 m 0,11.8871 -3.96238,0 0,-3.9624 3.96238,0 0,3.9624 m -11.88713,0 0,-3.9624 3.9624,0 0,3.9624 -3.9624,0 m 0,-11.8871 3.9624,0 0,3.9623 -3.9624,0 0,-3.9623 m 11.88713,35.6613 -3.96238,0 0,-3.9624 3.96238,0 0,3.9624 m -11.88713,0 0,-3.9624 3.9624,0 0,3.9624 -3.9624,0 m 0,-11.8871 3.9624,0 0,3.9624 -3.9624,0 0,-3.9624 m 11.88713,0 0,3.9624 -3.96238,0 0,-3.9624 3.96238,0 m -35.66134,11.8871 0,-3.9624 3.96235,0 0,3.9624 -3.96235,0 m 0,-11.8871 3.96235,0 0,3.9624 -3.96235,0 0,-3.9624 m 11.88709,0 0,3.9624 -3.96234,0 0,-3.9624 3.96234,0 m 0,11.8871 -3.96234,0 0,-3.9624 3.96234,0 0,3.9624 m -11.88709,-35.6613 3.96235,0 0,3.9623 -3.96235,0 0,-3.9623 m 11.88709,0 0,3.9623 -3.96234,0 0,-3.9623 3.96234,0 m 0,11.8871 -3.96234,0 0,-3.9624 3.96234,0 0,3.9624 m -11.88709,0 0,-3.9624 3.96235,0 0,3.9624 -3.96235,0 m 35.66134,95.097 -3.96238,0 0,-3.9624 3.96238,0 0,3.9624 m -11.88713,0 0,-3.9624 3.9624,0 0,3.9624 -3.9624,0 m 0,-11.8871 3.9624,0 0,3.9623 -3.9624,0 0,-3.9623 m 11.88713,0 0,3.9623 -3.96238,0 0,-3.9623 3.96238,0 m -35.66134,11.8871 0,-3.9624 3.96235,0 0,3.9624 -3.96235,0 m 0,-11.8871 3.96235,0 0,3.9623 -3.96235,0 0,-3.9623 m 11.88709,0 0,3.9623 -3.96234,0 0,-3.9623 3.96234,0 m 0,11.8871 -3.96234,0 0,-3.9624 3.96234,0 0,3.9624 m -11.88709,-35.6614 3.96235,0 0,3.9623 -3.96235,0 0,-3.9623 m 11.88709,0 0,3.9623 -3.96234,0 0,-3.9623 3.96234,0 m 0,11.8871 -3.96234,0 0,-3.9623 3.96234,0 0,3.9623 m -11.88709,0 0,-3.9623 3.96235,0 0,3.9623 -3.96235,0 m 35.66134,-11.8871 0,3.9623 -3.96238,0 0,-3.9623 3.96238,0 m 0,11.8871 -3.96238,0 0,-3.9623 3.96238,0 0,3.9623 m -11.88713,0 0,-3.9623 3.9624,0 0,3.9623 -3.9624,0 m 0,-11.8871 3.9624,0 0,3.9623 -3.9624,0 0,-3.9623 m -95.09702,-285.2911 3.96241,0 0,3.9624 -3.96241,0 0,-3.9624 m 11.88719,0 0,3.9624 -3.96243,0 0,-3.9624 3.96243,0 m 0,11.8872 -3.96243,0 0,-3.9624 3.96243,0 0,3.9624 m -11.88719,0 0,-3.9624 3.96241,0 0,3.9624 -3.96241,0 m 35.66141,-11.8872 0,3.9624 -3.96238,0 0,-3.9624 3.96238,0 m 0,11.8872 -3.96238,0 0,-3.9624 3.96238,0 0,3.9624 m -11.88715,0 0,-3.9624 3.96238,0 0,3.9624 -3.96238,0 m 0,-11.8872 3.96238,0 0,3.9624 -3.96238,0 0,-3.9624 m 11.88715,35.6614 -3.96238,0 0,-3.9624 3.96238,0 0,3.9624 m -11.88715,0 0,-3.9624 3.96238,0 0,3.9624 -3.96238,0 m 0,-11.8871 3.96238,0 0,3.9623 -3.96238,0 0,-3.9623 m 11.88715,0 0,3.9623 -3.96238,0 0,-3.9623 3.96238,0 m -35.66141,11.8871 0,-3.9624 3.96241,0 0,3.9624 -3.96241,0 m 0,-11.8871 3.96241,0 0,3.9623 -3.96241,0 0,-3.9623 m 11.88719,0 0,3.9623 -3.96243,0 0,-3.9623 3.96243,0 m 0,11.8871 -3.96243,0 0,-3.9624 3.96243,0 0,3.9624 m 95.09696,-35.6614 0,3.9624 -3.96238,0 0,-3.9624 3.96238,0 m 0,11.8872 -3.96238,0 0,-3.9624 3.96238,0 0,3.9624 m -11.88713,0 0,-3.9624 3.9624,0 0,3.9624 -3.9624,0 m 0,-11.8872 3.9624,0 0,3.9624 -3.9624,0 0,-3.9624 m 11.88713,35.6614 -3.96238,0 0,-3.9624 3.96238,0 0,3.9624 m -11.88713,0 0,-3.9624 3.9624,0 0,3.9624 -3.9624,0 m 0,-11.8871 3.9624,0 0,3.9623 -3.9624,0 0,-3.9623 m 11.88713,0 0,3.9623 -3.96238,0 0,-3.9623 3.96238,0 m -35.66134,11.8871 0,-3.9624 3.96235,0 0,3.9624 -3.96235,0 m 0,-11.8871 3.96235,0 0,3.9623 -3.96235,0 0,-3.9623 m 11.88709,0 0,3.9623 -3.96234,0 0,-3.9623 3.96234,0 m 0,11.8871 -3.96234,0 0,-3.9624 3.96234,0 0,3.9624 m -11.88709,-35.6614 3.96235,0 0,3.9624 -3.96235,0 0,-3.9624 m 11.88709,0 0,3.9624 -3.96234,0 0,-3.9624 3.96234,0 m 0,11.8872 -3.96234,0 0,-3.9624 3.96234,0 0,3.9624 m -11.88709,0 0,-3.9624 3.96235,0 0,3.9624 -3.96235,0 m 35.66134,95.097 -3.96238,0 0,-3.9624 3.96238,0 0,3.9624 m -11.88713,0 0,-3.9624 3.9624,0 0,3.9624 -3.9624,0 m 0,-11.8872 3.9624,0 0,3.9624 -3.9624,0 0,-3.9624 m 11.88713,0 0,3.9624 -3.96238,0 0,-3.9624 3.96238,0 m -35.66134,11.8872 0,-3.9624 3.96235,0 0,3.9624 -3.96235,0 m 0,-11.8872 3.96235,0 0,3.9624 -3.96235,0 0,-3.9624 m 11.88709,0 0,3.9624 -3.96234,0 0,-3.9624 3.96234,0 m 0,11.8872 -3.96234,0 0,-3.9624 3.96234,0 0,3.9624 m -11.88709,-35.6614 3.96235,0 0,3.9624 -3.96235,0 0,-3.9624 m 11.88709,0 0,3.9624 -3.96234,0 0,-3.9624 3.96234,0 m 0,11.8871 -3.96234,0 0,-3.9623 3.96234,0 0,3.9623 m -11.88709,0 0,-3.9623 3.96235,0 0,3.9623 -3.96235,0 m 35.66134,-11.8871 0,3.9624 -3.96238,0 0,-3.9624 3.96238,0 m 0,11.8871 -3.96238,0 0,-3.9623 3.96238,0 0,3.9623 m -11.88713,0 0,-3.9623 3.9624,0 0,3.9623 -3.9624,0 m 0,-11.8871 3.9624,0 0,3.9624 -3.9624,0 0,-3.9624 m -95.09702,35.6614 0,-3.9624 3.96241,0 0,3.9624 -3.96241,0 m 0,-11.8872 3.96241,0 0,3.9624 -3.96241,0 0,-3.9624 m 11.88719,0 0,3.9624 -3.96243,0 0,-3.9624 3.96243,0 m 0,11.8872 -3.96243,0 0,-3.9624 3.96243,0 0,3.9624 m -11.88719,-35.6614 3.96241,0 0,3.9624 -3.96241,0 0,-3.9624 m 11.88719,0 0,3.9624 -3.96243,0 0,-3.9624 3.96243,0 m 0,11.8871 -3.96243,0 0,-3.9623 3.96243,0 0,3.9623 m -11.88719,0 0,-3.9623 3.96241,0 0,3.9623 -3.96241,0 m 35.66141,-11.8871 0,3.9624 -3.96238,0 0,-3.9624 3.96238,0 m 0,11.8871 -3.96238,0 0,-3.9623 3.96238,0 0,3.9623 m -11.88715,0 0,-3.9623 3.96238,0 0,3.9623 -3.96238,0 m 0,-11.8871 3.96238,0 0,3.9624 -3.96238,0 0,-3.9624 m 11.88715,35.6614 -3.96238,0 0,-3.9624 3.96238,0 0,3.9624 m -11.88715,0 0,-3.9624 3.96238,0 0,3.9624 -3.96238,0 m 0,-11.8872 3.96238,0 0,3.9624 -3.96238,0 0,-3.9624 m 11.88715,0 0,3.9624 -3.96238,0 0,-3.9624 3.96238,0 m 285.29102,-95.097 0,3.9624 -3.96236,0 0,-3.9624 3.96236,0 m 0,11.8872 -3.96236,0 0,-3.9624 3.96236,0 0,3.9624 m -11.88712,0 0,-3.9624 3.96235,0 0,3.9624 -3.96235,0 m 0,-11.8872 3.96235,0 0,3.9624 -3.96235,0 0,-3.9624 m 11.88712,35.6614 -3.96236,0 0,-3.9624 3.96236,0 0,3.9624 m -11.88712,0 0,-3.9624 3.96235,0 0,3.9624 -3.96235,0 m 0,-11.8871 3.96235,0 0,3.9623 -3.96235,0 0,-3.9623 m 11.88712,0 0,3.9623 -3.96236,0 0,-3.9623 3.96236,0 m -35.66137,11.8871 0,-3.9624 3.96235,0 0,3.9624 -3.96235,0 m 0,-11.8871 3.96235,0 0,3.9623 -3.96235,0 0,-3.9623 m 11.88711,0 0,3.9623 -3.96235,0 0,-3.9623 3.96235,0 m 0,11.8871 -3.96235,0 0,-3.9624 3.96235,0 0,3.9624 m -11.88711,-35.6614 3.96235,0 0,3.9624 -3.96235,0 0,-3.9624 m 11.88711,0 0,3.9624 -3.96235,0 0,-3.9624 3.96235,0 m 0,11.8872 -3.96235,0 0,-3.9624 3.96235,0 0,3.9624 m -11.88711,0 0,-3.9624 3.96235,0 0,3.9624 -3.96235,0 m 35.66137,95.097 -3.96236,0 0,-3.9624 3.96236,0 0,3.9624 m -11.88712,0 0,-3.9624 3.96235,0 0,3.9624 -3.96235,0 m 0,-11.8872 3.96235,0 0,3.9624 -3.96235,0 0,-3.9624 m 11.88712,0 0,3.9624 -3.96236,0 0,-3.9624 3.96236,0 m -35.66137,11.8872 0,-3.9624 3.96235,0 0,3.9624 -3.96235,0 m 0,-11.8872 3.96235,0 0,3.9624 -3.96235,0 0,-3.9624 m 11.88711,0 0,3.9624 -3.96235,0 0,-3.9624 3.96235,0 m 0,11.8872 -3.96235,0 0,-3.9624 3.96235,0 0,3.9624 m -11.88711,-35.6614 3.96235,0 0,3.9624 -3.96235,0 0,-3.9624 m 11.88711,0 0,3.9624 -3.96235,0 0,-3.9624 3.96235,0 m 0,11.8871 -3.96235,0 0,-3.9623 3.96235,0 0,3.9623 m -11.88711,0 0,-3.9623 3.96235,0 0,3.9623 -3.96235,0 m 35.66137,-11.8871 0,3.9624 -3.96236,0 0,-3.9624 3.96236,0 m 0,11.8871 -3.96236,0 0,-3.9623 3.96236,0 0,3.9623 m -11.88712,0 0,-3.9623 3.96235,0 0,3.9623 -3.96235,0 m 0,-11.8871 3.96235,0 0,3.9624 -3.96235,0 0,-3.9624 m -95.09704,35.6614 0,-3.9624 3.96239,0 0,3.9624 -3.96239,0 m 0,-11.8872 3.96239,0 0,3.9624 -3.96239,0 0,-3.9624 m 11.88716,0 0,3.9624 -3.96242,0 0,-3.9624 3.96242,0 m 0,11.8872 -3.96242,0 0,-3.9624 3.96242,0 0,3.9624 m -11.88716,-35.6614 3.96239,0 0,3.9624 -3.96239,0 0,-3.9624 m 11.88716,0 0,3.9624 -3.96242,0 0,-3.9624 3.96242,0 m 0,11.8871 -3.96242,0 0,-3.9623 3.96242,0 0,3.9623 m -11.88716,0 0,-3.9623 3.96239,0 0,3.9623 -3.96239,0 m 35.66141,-11.8871 0,3.9624 -3.96241,0 0,-3.9624 3.96241,0 m 0,11.8871 -3.96241,0 0,-3.9623 3.96241,0 0,3.9623 m -11.88714,0 0,-3.9623 3.96241,0 0,3.9623 -3.96241,0 m 0,-11.8871 3.96241,0 0,3.9624 -3.96241,0 0,-3.9624 m 11.88714,35.6614 -3.96241,0 0,-3.9624 3.96241,0 0,3.9624 m -11.88714,0 0,-3.9624 3.96241,0 0,3.9624 -3.96241,0 m 0,-11.8872 3.96241,0 0,3.9624 -3.96241,0 0,-3.9624 m 11.88714,0 0,3.9624 -3.96241,0 0,-3.9624 3.96241,0 m -35.66141,-95.097 3.96239,0 0,3.9624 -3.96239,0 0,-3.9624 m 11.88716,0 0,3.9624 -3.96242,0 0,-3.9624 3.96242,0 m 0,11.8872 -3.96242,0 0,-3.9624 3.96242,0 0,3.9624 m -11.88716,0 0,-3.9624 3.96239,0 0,3.9624 -3.96239,0 m 35.66141,-11.8872 0,3.9624 -3.96241,0 0,-3.9624 3.96241,0 m 0,11.8872 -3.96241,0 0,-3.9624 3.96241,0 0,3.9624 m -11.88714,0 0,-3.9624 3.96241,0 0,3.9624 -3.96241,0 m 0,-11.8872 3.96241,0 0,3.9624 -3.96241,0 0,-3.9624 m 11.88714,35.6614 -3.96241,0 0,-3.9624 3.96241,0 0,3.9624 m -11.88714,0 0,-3.9624 3.96241,0 0,3.9624 -3.96241,0 m 0,-11.8871 3.96241,0 0,3.9623 -3.96241,0 0,-3.9623 m 11.88714,0 0,3.9623 -3.96241,0 0,-3.9623 3.96241,0 m -35.66141,11.8871 0,-3.9624 3.96239,0 0,3.9624 -3.96239,0 m 0,-11.8871 3.96239,0 0,3.9623 -3.96239,0 0,-3.9623 m 11.88716,0 0,3.9623 -3.96242,0 0,-3.9623 3.96242,0 m 0,11.8871 -3.96242,0 0,-3.9624 3.96242,0 0,3.9624"
       inkscape:connector-curvature="0" />
  </g>
</svg>
